M48
; DRILL file {KiCad 7.0.10} date Wed Apr 10 01:10:36 2024
; FORMAT={-:-/ absolute / inch / decimal}
; #@! TF.CreationDate,2024-04-10T01:10:36-04:00
; #@! TF.GenerationSoftware,Kicad,Pcbnew,7.0.10
; #@! TF.FileFunction,Plated,1,2,PTH
FMAT,2
INCH
; #@! TA.AperFunction,Plated,PTH,ComponentDrill
T1C0.0315
; #@! TA.AperFunction,Plated,PTH,ComponentDrill
T2C0.0394
%
G90
G05
T1
X0.65Y-1.95
X0.65Y-2.45
X0.75Y-1.95
X0.75Y-2.45
X0.85Y-1.95
X0.85Y-2.45
X0.95Y-1.95
X0.95Y-2.45
X1.05Y-1.95
X1.05Y-2.45
X1.15Y-1.95
X1.15Y-2.45
X1.25Y-1.95
X1.25Y-2.45
X1.35Y-1.95
X1.35Y-2.45
X1.45Y-1.95
X1.45Y-2.45
X1.55Y-1.95
X1.55Y-2.45
X1.65Y-1.95
X1.65Y-2.45
X1.75Y-1.95
X1.75Y-2.45
X1.85Y-1.95
X1.85Y-2.45
X1.95Y-1.95
X1.95Y-2.45
X2.05Y-1.95
X2.05Y-2.45
X2.15Y-1.95
X2.15Y-2.45
X2.25Y-1.95
X2.25Y-2.45
X2.35Y-1.95
X2.35Y-2.45
X2.45Y-1.95
X2.45Y-2.45
X2.55Y-1.95
X2.55Y-2.45
X2.65Y-1.95
X2.65Y-2.45
X2.75Y-1.95
X2.75Y-2.45
X2.85Y-1.95
X2.85Y-2.45
X2.95Y-1.95
X2.95Y-2.45
X3.05Y-1.95
X3.05Y-2.45
X3.15Y-1.95
X3.15Y-2.45
X3.25Y-1.95
X3.25Y-2.45
X3.35Y-1.95
X3.35Y-2.45
X3.45Y-1.95
X3.45Y-2.45
X3.55Y-1.95
X3.55Y-2.45
X3.65Y-1.95
X3.65Y-2.45
X3.75Y-1.95
X3.75Y-2.45
T2
X0.2Y-0.4743
X0.3Y-0.4743
X0.3Y-0.5743
X0.3Y-0.6743
X0.3Y-0.7743
X0.3Y-0.8743
X0.3Y-0.9743
X0.3Y-1.0743
X0.3Y-1.1743
X0.3Y-1.2743
X0.3Y-1.3743
X0.3Y-1.4743
X0.3Y-1.5743
X0.4Y-0.4743
X0.4Y-0.5743
X0.4Y-0.6743
X0.4Y-0.7743
X0.5Y-0.4743
X0.5Y-0.5986
X0.5Y-0.6743
X0.5Y-0.7743
X0.5Y-0.8743
X0.5Y-0.9743
X0.5Y-1.0743
X0.5Y-1.1743
X0.5Y-1.2743
X0.5Y-1.3743
X0.5Y-1.4743
X0.5Y-1.55
X0.65Y-1.85
X0.75Y-1.85
X0.85Y-2.65
X0.95Y-2.65
X1.05Y-2.65
X1.15Y-2.65
X1.4Y-0.65
X1.4Y-1.35
X1.45Y-1.85
X1.55Y-1.85
X1.65Y-2.65
X1.75Y-2.65
X1.85Y-2.65
X1.95Y-2.65
X2.25Y-1.85
X2.35Y-1.85
X2.45Y-2.65
X2.55Y-2.65
X2.65Y-2.65
X2.75Y-2.65
X3.0Y-0.65
X3.0Y-1.35
X3.05Y-1.85
X3.15Y-1.85
X3.25Y-2.649
X3.35Y-2.649
X3.45Y-0.65
X3.45Y-2.649
X3.55Y-2.649
X3.75Y-1.85
M30
