%TF.GenerationSoftware,KiCad,Pcbnew,7.0.10*%
%TF.CreationDate,2024-04-10T19:25:23-04:00*%
%TF.ProjectId,ping_pong,70696e67-5f70-46f6-9e67-2e6b69636164,rev?*%
%TF.SameCoordinates,Original*%
%TF.FileFunction,Copper,L1,Top*%
%TF.FilePolarity,Positive*%
%FSLAX46Y46*%
G04 Gerber Fmt 4.6, Leading zero omitted, Abs format (unit mm)*
G04 Created by KiCad (PCBNEW 7.0.10) date 2024-04-10 19:25:23*
%MOMM*%
%LPD*%
G01*
G04 APERTURE LIST*
%TA.AperFunction,ComponentPad*%
%ADD10C,1.600000*%
%TD*%
%TA.AperFunction,ComponentPad*%
%ADD11O,1.600000X1.600000*%
%TD*%
%TA.AperFunction,ComponentPad*%
%ADD12R,1.700000X1.700000*%
%TD*%
%TA.AperFunction,ComponentPad*%
%ADD13R,1.800000X1.800000*%
%TD*%
%TA.AperFunction,ComponentPad*%
%ADD14C,1.800000*%
%TD*%
%TA.AperFunction,ComponentPad*%
%ADD15R,1.600000X1.600000*%
%TD*%
%TA.AperFunction,ComponentPad*%
%ADD16O,1.700000X1.700000*%
%TD*%
%TA.AperFunction,ComponentPad*%
%ADD17C,1.700000*%
%TD*%
%TA.AperFunction,Conductor*%
%ADD18C,1.000000*%
%TD*%
G04 APERTURE END LIST*
D10*
%TO.P,R101,1*%
%TO.N,5V*%
X7620000Y-38100000D03*
D11*
%TO.P,R101,2*%
%TO.N,Net-(D101-A)*%
X7620000Y-45720000D03*
%TD*%
D12*
%TO.P,J112,1,Pin_1*%
%TO.N,Net-(J108-Pin_1)*%
X5080000Y-7620000D03*
%TD*%
%TO.P,J108,1,Pin_1*%
%TO.N,Net-(J108-Pin_1)*%
X5080000Y-10160000D03*
%TD*%
D13*
%TO.P,D101,1,K*%
%TO.N,GND*%
X7620000Y-50800000D03*
D14*
%TO.P,D101,2,A*%
%TO.N,Net-(D101-A)*%
X7620000Y-48260000D03*
%TD*%
D12*
%TO.P,J142,1,Pin_1*%
%TO.N,3.3V*%
X10160000Y-10160000D03*
%TD*%
%TO.P,J128,1,Pin_1*%
%TO.N,GND*%
X12700000Y-35560000D03*
%TD*%
%TO.P,J113,1,Pin_1*%
%TO.N,Net-(A103-STEP)*%
X59690000Y-43180000D03*
%TD*%
D15*
%TO.P,A102,1,GND*%
%TO.N,GND*%
X36830000Y-58420000D03*
D11*
%TO.P,A102,2,VDD*%
%TO.N,5V*%
X39370000Y-58420000D03*
%TO.P,A102,3,1B*%
%TO.N,Net-(A102-1B)*%
X41910000Y-58420000D03*
%TO.P,A102,4,1A*%
%TO.N,Net-(A102-1A)*%
X44450000Y-58420000D03*
%TO.P,A102,5,2A*%
%TO.N,Net-(A102-2A)*%
X46990000Y-58420000D03*
%TO.P,A102,6,2B*%
%TO.N,Net-(A102-2B)*%
X49530000Y-58420000D03*
%TO.P,A102,7,GND*%
%TO.N,unconnected-(A102-GND-Pad7)*%
X52070000Y-58420000D03*
%TO.P,A102,8,VMOT*%
%TO.N,12V*%
X54610000Y-58420000D03*
%TO.P,A102,9,~{ENABLE}*%
%TO.N,ENABLE*%
X54610000Y-45720000D03*
%TO.P,A102,10,MS1*%
%TO.N,unconnected-(A102-MS1-Pad10)*%
X52070000Y-45720000D03*
%TO.P,A102,11,MS2*%
%TO.N,unconnected-(A102-MS2-Pad11)*%
X49530000Y-45720000D03*
%TO.P,A102,12,MS3*%
%TO.N,unconnected-(A102-MS3-Pad12)*%
X46990000Y-45720000D03*
%TO.P,A102,13,~{RESET}*%
%TO.N,Net-(A102-~{RESET})*%
X44450000Y-45720000D03*
%TO.P,A102,14,~{SLEEP}*%
X41910000Y-45720000D03*
%TO.P,A102,15,STEP*%
%TO.N,Net-(A102-STEP)*%
X39370000Y-45720000D03*
%TO.P,A102,16,DIR*%
%TO.N,Net-(A102-DIR)*%
X36830000Y-45720000D03*
%TD*%
D12*
%TO.P,J130,1,Pin_1*%
%TO.N,GND*%
X12700000Y-15240000D03*
%TD*%
D15*
%TO.P,A103,1,GND*%
%TO.N,GND*%
X57150000Y-58420000D03*
D11*
%TO.P,A103,2,VDD*%
%TO.N,5V*%
X59690000Y-58420000D03*
%TO.P,A103,3,1B*%
%TO.N,Net-(A103-1B)*%
X62230000Y-58420000D03*
%TO.P,A103,4,1A*%
%TO.N,Net-(A103-1A)*%
X64770000Y-58420000D03*
%TO.P,A103,5,2A*%
%TO.N,Net-(A103-2A)*%
X67310000Y-58420000D03*
%TO.P,A103,6,2B*%
%TO.N,Net-(A103-2B)*%
X69850000Y-58420000D03*
%TO.P,A103,7,GND*%
%TO.N,unconnected-(A103-GND-Pad7)*%
X72390000Y-58420000D03*
%TO.P,A103,8,VMOT*%
%TO.N,12V*%
X74930000Y-58420000D03*
%TO.P,A103,9,~{ENABLE}*%
%TO.N,ENABLE*%
X74930000Y-45720000D03*
%TO.P,A103,10,MS1*%
%TO.N,unconnected-(A103-MS1-Pad10)*%
X72390000Y-45720000D03*
%TO.P,A103,11,MS2*%
%TO.N,unconnected-(A103-MS2-Pad11)*%
X69850000Y-45720000D03*
%TO.P,A103,12,MS3*%
%TO.N,unconnected-(A103-MS3-Pad12)*%
X67310000Y-45720000D03*
%TO.P,A103,13,~{RESET}*%
%TO.N,Net-(A103-~{RESET})*%
X64770000Y-45720000D03*
%TO.P,A103,14,~{SLEEP}*%
X62230000Y-45720000D03*
%TO.P,A103,15,STEP*%
%TO.N,Net-(A103-STEP)*%
X59690000Y-45720000D03*
%TO.P,A103,16,DIR*%
%TO.N,Net-(A103-DIR)*%
X57150000Y-45720000D03*
%TD*%
D12*
%TO.P,J126,1,Pin_1*%
%TO.N,GND*%
X12700000Y-17780000D03*
%TD*%
%TO.P,J134,1,Pin_1*%
%TO.N,GND*%
X12700000Y-25400000D03*
%TD*%
%TO.P,J144,1,Pin_1*%
%TO.N,3.3V*%
X10160000Y-12700000D03*
%TD*%
%TO.P,J117,1,Pin_1*%
%TO.N,Net-(A104-STEP)*%
X80010000Y-43180000D03*
%TD*%
%TO.P,J118,1,Pin_1*%
%TO.N,Net-(A104-DIR)*%
X77470000Y-43180000D03*
%TD*%
%TO.P,J114,1,Pin_1*%
%TO.N,Net-(A103-DIR)*%
X57150000Y-43180000D03*
%TD*%
%TO.P,J125,1,Pin_1*%
%TO.N,GND*%
X12700000Y-10160000D03*
%TD*%
%TO.P,J131,1,Pin_1*%
%TO.N,3.3V*%
X10160000Y-7620000D03*
%TD*%
%TO.P,J104,1,Pin_1*%
%TO.N,Net-(A101-1B)*%
X21590000Y-63500000D03*
D16*
%TO.P,J104,2,Pin_2*%
%TO.N,Net-(A101-1A)*%
X24130000Y-63500000D03*
%TO.P,J104,3,Pin_3*%
%TO.N,Net-(A101-2A)*%
X26670000Y-63500000D03*
%TO.P,J104,4,Pin_4*%
%TO.N,Net-(A101-2B)*%
X29210000Y-63500000D03*
%TD*%
D12*
%TO.P,J135,1,Pin_1*%
%TO.N,GND*%
X12700000Y-27940000D03*
%TD*%
%TO.P,J140,1,Pin_1*%
%TO.N,5V*%
X7620000Y-33020000D03*
%TD*%
%TO.P,J122,1,Pin_1*%
%TO.N,5V*%
X7620000Y-12700000D03*
%TD*%
%TO.P,J138,1,Pin_1*%
%TO.N,5V*%
X7620000Y-22860000D03*
%TD*%
D15*
%TO.P,A104,1,GND*%
%TO.N,GND*%
X77470000Y-58420000D03*
D11*
%TO.P,A104,2,VDD*%
%TO.N,5V*%
X80010000Y-58420000D03*
%TO.P,A104,3,1B*%
%TO.N,Net-(A104-1B)*%
X82550000Y-58420000D03*
%TO.P,A104,4,1A*%
%TO.N,Net-(A104-1A)*%
X85090000Y-58420000D03*
%TO.P,A104,5,2A*%
%TO.N,Net-(A104-2A)*%
X87630000Y-58420000D03*
%TO.P,A104,6,2B*%
%TO.N,Net-(A104-2B)*%
X90170000Y-58420000D03*
%TO.P,A104,7,GND*%
%TO.N,unconnected-(A104-GND-Pad7)*%
X92710000Y-58420000D03*
%TO.P,A104,8,VMOT*%
%TO.N,12V*%
X95250000Y-58420000D03*
%TO.P,A104,9,~{ENABLE}*%
%TO.N,ENABLE*%
X95250000Y-45720000D03*
%TO.P,A104,10,MS1*%
%TO.N,unconnected-(A104-MS1-Pad10)*%
X92710000Y-45720000D03*
%TO.P,A104,11,MS2*%
%TO.N,unconnected-(A104-MS2-Pad11)*%
X90170000Y-45720000D03*
%TO.P,A104,12,MS3*%
%TO.N,unconnected-(A104-MS3-Pad12)*%
X87630000Y-45720000D03*
%TO.P,A104,13,~{RESET}*%
%TO.N,Net-(A104-~{RESET})*%
X85090000Y-45720000D03*
%TO.P,A104,14,~{SLEEP}*%
X82550000Y-45720000D03*
%TO.P,A104,15,STEP*%
%TO.N,Net-(A104-STEP)*%
X80010000Y-45720000D03*
%TO.P,A104,16,DIR*%
%TO.N,Net-(A104-DIR)*%
X77470000Y-45720000D03*
%TD*%
D12*
%TO.P,J106,1,Pin_1*%
%TO.N,Net-(A101-STEP)*%
X19050000Y-43180000D03*
%TD*%
%TO.P,J129,1,Pin_1*%
%TO.N,5V*%
X7620000Y-20320000D03*
%TD*%
%TO.P,J115,1,Pin_1*%
%TO.N,Net-(A103-1B)*%
X62230000Y-63500000D03*
D16*
%TO.P,J115,2,Pin_2*%
%TO.N,Net-(A103-1A)*%
X64770000Y-63500000D03*
%TO.P,J115,3,Pin_3*%
%TO.N,Net-(A103-2A)*%
X67310000Y-63500000D03*
%TO.P,J115,4,Pin_4*%
%TO.N,Net-(A103-2B)*%
X69850000Y-63500000D03*
%TD*%
D15*
%TO.P,A101,1,GND*%
%TO.N,GND*%
X16510000Y-58420000D03*
D11*
%TO.P,A101,2,VDD*%
%TO.N,5V*%
X19050000Y-58420000D03*
%TO.P,A101,3,1B*%
%TO.N,Net-(A101-1B)*%
X21590000Y-58420000D03*
%TO.P,A101,4,1A*%
%TO.N,Net-(A101-1A)*%
X24130000Y-58420000D03*
%TO.P,A101,5,2A*%
%TO.N,Net-(A101-2A)*%
X26670000Y-58420000D03*
%TO.P,A101,6,2B*%
%TO.N,Net-(A101-2B)*%
X29210000Y-58420000D03*
%TO.P,A101,7,GND*%
%TO.N,unconnected-(A101-GND-Pad7)*%
X31750000Y-58420000D03*
%TO.P,A101,8,VMOT*%
%TO.N,12V*%
X34290000Y-58420000D03*
%TO.P,A101,9,~{ENABLE}*%
%TO.N,ENABLE*%
X34290000Y-45720000D03*
%TO.P,A101,10,MS1*%
%TO.N,unconnected-(A101-MS1-Pad10)*%
X31750000Y-45720000D03*
%TO.P,A101,11,MS2*%
%TO.N,unconnected-(A101-MS2-Pad11)*%
X29210000Y-45720000D03*
%TO.P,A101,12,MS3*%
%TO.N,unconnected-(A101-MS3-Pad12)*%
X26670000Y-45720000D03*
%TO.P,A101,13,~{RESET}*%
%TO.N,Net-(A101-~{RESET})*%
X24130000Y-45720000D03*
%TO.P,A101,14,~{SLEEP}*%
X21590000Y-45720000D03*
%TO.P,A101,15,STEP*%
%TO.N,Net-(A101-STEP)*%
X19050000Y-45720000D03*
%TO.P,A101,16,DIR*%
%TO.N,Net-(A101-DIR)*%
X16510000Y-45720000D03*
%TD*%
D12*
%TO.P,J121,1,Pin_1*%
%TO.N,5V*%
X7620000Y-10160000D03*
%TD*%
%TO.P,J127,1,Pin_1*%
%TO.N,GND*%
X12700000Y-22860000D03*
%TD*%
%TO.P,J120,1,Pin_1*%
%TO.N,6V*%
X87630000Y-12700000D03*
%TD*%
%TO.P,J133,1,Pin_1*%
%TO.N,GND*%
X12700000Y-20320000D03*
%TD*%
%TO.P,J132,1,Pin_1*%
%TO.N,GND*%
X12700000Y-12700000D03*
%TD*%
%TO.P,J123,1,Pin_1*%
%TO.N,5V*%
X7620000Y-15240000D03*
%TD*%
%TO.P,J107,1,Pin_1*%
%TO.N,Net-(A101-DIR)*%
X16510000Y-43180000D03*
%TD*%
%TO.P,J119,1,Pin_1*%
%TO.N,Net-(A104-1B)*%
X82550000Y-63475000D03*
D16*
%TO.P,J119,2,Pin_2*%
%TO.N,Net-(A104-1A)*%
X85090000Y-63475000D03*
%TO.P,J119,3,Pin_3*%
%TO.N,Net-(A104-2A)*%
X87630000Y-63475000D03*
%TO.P,J119,4,Pin_4*%
%TO.N,Net-(A104-2B)*%
X90170000Y-63475000D03*
%TD*%
D12*
%TO.P,J105,1,Pin_1*%
%TO.N,ENABLE*%
X95250000Y-43180000D03*
%TD*%
D17*
%TO.P,U101,1,IN+*%
%TO.N,12V*%
X35560000Y-12700000D03*
%TO.P,U101,2,IN-*%
%TO.N,GND*%
X35560000Y-30480000D03*
%TO.P,U101,3,OUT+*%
%TO.N,6V*%
X76200000Y-12700000D03*
%TO.P,U101,4,OUT-*%
%TO.N,unconnected-(U101-OUT--Pad4)*%
X76200000Y-30480000D03*
%TD*%
D12*
%TO.P,J101,1,Pin_1*%
%TO.N,5V*%
X7620000Y-7620000D03*
%TD*%
%TO.P,J147,1,Pin_1*%
%TO.N,GND*%
X12700000Y-30480000D03*
%TD*%
%TO.P,J111,1,Pin_1*%
%TO.N,Net-(A102-1B)*%
X41910000Y-63500000D03*
D16*
%TO.P,J111,2,Pin_2*%
%TO.N,Net-(A102-1A)*%
X44450000Y-63500000D03*
%TO.P,J111,3,Pin_3*%
%TO.N,Net-(A102-2A)*%
X46990000Y-63500000D03*
%TO.P,J111,4,Pin_4*%
%TO.N,Net-(A102-2B)*%
X49530000Y-63500000D03*
%TD*%
D12*
%TO.P,J103,1,Pin_1*%
%TO.N,GND*%
X12700000Y-7620000D03*
%TD*%
%TO.P,J143,1,Pin_1*%
%TO.N,3.3V*%
X10160000Y-15240000D03*
%TD*%
%TO.P,J102,1,Pin_1*%
%TO.N,12V*%
X5080000Y-12700000D03*
%TD*%
%TO.P,J109,1,Pin_1*%
%TO.N,Net-(A102-STEP)*%
X39370000Y-43180000D03*
%TD*%
%TO.P,J148,1,Pin_1*%
%TO.N,GND*%
X12700000Y-33020000D03*
%TD*%
%TO.P,J145,1,Pin_1*%
%TO.N,5V*%
X7620000Y-25400000D03*
%TD*%
%TO.P,J110,1,Pin_1*%
%TO.N,Net-(A102-DIR)*%
X36830000Y-43180000D03*
%TD*%
%TO.P,J146,1,Pin_1*%
%TO.N,5V*%
X7620000Y-27940000D03*
%TD*%
%TO.P,J139,1,Pin_1*%
%TO.N,5V*%
X7620000Y-30480000D03*
%TD*%
%TO.P,J124,1,Pin_1*%
%TO.N,5V*%
X7620000Y-17780000D03*
%TD*%
%TO.P,J141,1,Pin_1*%
%TO.N,5V*%
X7620000Y-35560000D03*
%TD*%
D18*
%TO.N,Net-(J108-Pin_1)*%
X5080000Y-7620000D02*
X5080000Y-10160000D01*
%TO.N,12V*%
X17780000Y-66040000D02*
X33020000Y-66040000D01*
X5080000Y-53340000D02*
X17780000Y-66040000D01*
X5080000Y-12700000D02*
X5080000Y-53340000D01*
%TO.N,5V*%
X10160000Y-40640000D02*
X10160000Y-45720000D01*
X10160000Y-45720000D02*
X20320000Y-55880000D01*
X7620000Y-38100000D02*
X10160000Y-40640000D01*
%TO.N,Net-(D101-A)*%
X7620000Y-45720000D02*
X7620000Y-48260000D01*
%TO.N,5V*%
X7620000Y-38100000D02*
X7620000Y-35560000D01*
X7620000Y-7620000D02*
X7620000Y-35560000D01*
%TO.N,12V*%
X13970000Y-5080000D02*
X21590000Y-12700000D01*
X3810000Y-12700000D02*
X2540000Y-11430000D01*
X2540000Y-6350000D02*
X3810000Y-5080000D01*
X3810000Y-5080000D02*
X13970000Y-5080000D01*
X21590000Y-12700000D02*
X35560000Y-12700000D01*
X5080000Y-12700000D02*
X3810000Y-12700000D01*
X2540000Y-11430000D02*
X2540000Y-6350000D01*
%TO.N,3.3V*%
X10160000Y-7620000D02*
X10160000Y-10777500D01*
%TO.N,5V*%
X38100000Y-55880000D02*
X39370000Y-57150000D01*
X78740000Y-55880000D02*
X80010000Y-57150000D01*
X39370000Y-57150000D02*
X40640000Y-55880000D01*
X58420000Y-55880000D02*
X59690000Y-57150000D01*
X19050000Y-57150000D02*
X20320000Y-55880000D01*
X59690000Y-57150000D02*
X59690000Y-58420000D01*
X60960000Y-55880000D02*
X78740000Y-55880000D01*
X40640000Y-55880000D02*
X58420000Y-55880000D01*
X80010000Y-57150000D02*
X80010000Y-58420000D01*
X59690000Y-57150000D02*
X60960000Y-55880000D01*
X39370000Y-57150000D02*
X39370000Y-58420000D01*
X20320000Y-55880000D02*
X38100000Y-55880000D01*
X19050000Y-58420000D02*
X19050000Y-57150000D01*
%TO.N,Net-(A101-1B)*%
X21590000Y-58420000D02*
X21590000Y-63500000D01*
%TO.N,Net-(A101-1A)*%
X24130000Y-58420000D02*
X24130000Y-63500000D01*
%TO.N,Net-(A101-2A)*%
X26670000Y-58420000D02*
X26670000Y-63500000D01*
%TO.N,Net-(A101-2B)*%
X29210000Y-58420000D02*
X29210000Y-63500000D01*
%TO.N,12V*%
X53340000Y-66040000D02*
X54610000Y-64770000D01*
X76200000Y-66040000D02*
X93980000Y-66040000D01*
X34290000Y-64770000D02*
X34290000Y-58420000D01*
X35560000Y-66040000D02*
X53340000Y-66040000D01*
X74930000Y-64770000D02*
X76200000Y-66040000D01*
X33020000Y-66040000D02*
X34290000Y-64770000D01*
X55880000Y-66040000D02*
X73660000Y-66040000D01*
X34290000Y-64770000D02*
X35560000Y-66040000D01*
X95250000Y-64770000D02*
X95250000Y-58420000D01*
X74930000Y-64770000D02*
X74930000Y-58420000D01*
X54610000Y-64770000D02*
X54610000Y-58420000D01*
X93980000Y-66040000D02*
X95250000Y-64770000D01*
X73660000Y-66040000D02*
X74930000Y-64770000D01*
X54610000Y-64770000D02*
X55880000Y-66040000D01*
%TO.N,ENABLE*%
X53340000Y-48260000D02*
X54610000Y-46990000D01*
X95250000Y-43180000D02*
X95250000Y-45720000D01*
X76200000Y-48260000D02*
X93980000Y-48260000D01*
X93980000Y-48260000D02*
X95250000Y-46990000D01*
X54610000Y-46990000D02*
X54610000Y-45720000D01*
X54610000Y-46990000D02*
X55880000Y-48260000D01*
X55880000Y-48260000D02*
X73660000Y-48260000D01*
X34290000Y-46990000D02*
X35560000Y-48260000D01*
X35560000Y-48260000D02*
X53340000Y-48260000D01*
X34290000Y-45720000D02*
X34290000Y-46990000D01*
X74930000Y-46990000D02*
X76200000Y-48260000D01*
X74930000Y-46990000D02*
X74930000Y-45720000D01*
X73660000Y-48260000D02*
X74930000Y-46990000D01*
X95250000Y-46990000D02*
X95250000Y-45720000D01*
%TO.N,Net-(A101-~{RESET})*%
X21590000Y-45720000D02*
X24130000Y-45720000D01*
%TO.N,Net-(A101-STEP)*%
X19050000Y-43180000D02*
X19050000Y-45720000D01*
%TO.N,Net-(A101-DIR)*%
X16510000Y-43180000D02*
X16510000Y-45720000D01*
%TO.N,Net-(A102-1B)*%
X41910000Y-63500000D02*
X41910000Y-58420000D01*
%TO.N,Net-(A102-1A)*%
X44450000Y-58420000D02*
X44450000Y-63500000D01*
%TO.N,Net-(A102-2A)*%
X46990000Y-58420000D02*
X46990000Y-63500000D01*
%TO.N,Net-(A102-2B)*%
X49530000Y-58420000D02*
X49530000Y-63500000D01*
%TO.N,Net-(A102-~{RESET})*%
X41910000Y-45720000D02*
X44450000Y-45720000D01*
%TO.N,Net-(A102-STEP)*%
X39370000Y-43180000D02*
X39370000Y-45720000D01*
%TO.N,Net-(A102-DIR)*%
X36830000Y-43180000D02*
X36830000Y-45720000D01*
%TO.N,Net-(A103-1B)*%
X62230000Y-58420000D02*
X62230000Y-63500000D01*
%TO.N,Net-(A103-1A)*%
X64770000Y-58420000D02*
X64770000Y-63500000D01*
%TO.N,Net-(A103-2A)*%
X67310000Y-58420000D02*
X67310000Y-63500000D01*
%TO.N,Net-(A103-2B)*%
X69850000Y-58420000D02*
X69850000Y-63500000D01*
%TO.N,Net-(A103-~{RESET})*%
X62230000Y-45720000D02*
X64770000Y-45720000D01*
%TO.N,Net-(A103-STEP)*%
X59690000Y-43180000D02*
X59690000Y-45720000D01*
%TO.N,Net-(A103-DIR)*%
X57150000Y-43180000D02*
X57150000Y-45720000D01*
%TO.N,Net-(A104-1B)*%
X82550000Y-62215000D02*
X82550000Y-63475000D01*
X82560000Y-62205000D02*
X82550000Y-62215000D01*
X82550000Y-58420000D02*
X82550000Y-62195000D01*
X82550000Y-62195000D02*
X82560000Y-62205000D01*
%TO.N,Net-(A104-1A)*%
X85090000Y-62195000D02*
X85090000Y-63475000D01*
X85090000Y-58420000D02*
X85090000Y-62195000D01*
X85090000Y-62195000D02*
X85100000Y-62205000D01*
%TO.N,Net-(A104-2A)*%
X87630000Y-58420000D02*
X87630000Y-62195000D01*
X87630000Y-62195000D02*
X87640000Y-62205000D01*
X87640000Y-62205000D02*
X87630000Y-62215000D01*
X87630000Y-62215000D02*
X87630000Y-63475000D01*
%TO.N,Net-(A104-2B)*%
X90180000Y-62205000D02*
X90170000Y-62215000D01*
X90170000Y-58420000D02*
X90170000Y-62195000D01*
X90170000Y-62215000D02*
X90170000Y-63475000D01*
X90170000Y-62195000D02*
X90180000Y-62205000D01*
%TO.N,Net-(A104-~{RESET})*%
X82550000Y-45720000D02*
X85090000Y-45720000D01*
%TO.N,Net-(A104-STEP)*%
X80010000Y-43180000D02*
X80010000Y-45720000D01*
%TO.N,Net-(A104-DIR)*%
X77470000Y-43180000D02*
X77470000Y-45720000D01*
%TO.N,6V*%
X87630000Y-12700000D02*
X76200000Y-12700000D01*
%TO.N,3.3V*%
X10160000Y-13317500D02*
X10160000Y-15857500D01*
X10160000Y-10777500D02*
X10160000Y-13317500D01*
%TD*%
M02*
