M48
; DRILL file {KiCad 7.0.10} date Wed Apr 17 19:20:20 2024
; FORMAT={-:-/ absolute / inch / decimal}
; #@! TF.CreationDate,2024-04-17T19:20:20-04:00
; #@! TF.GenerationSoftware,Kicad,Pcbnew,7.0.10
; #@! TF.FileFunction,Plated,1,2,PTH
FMAT,2
INCH
; #@! TA.AperFunction,Plated,PTH,ViaDrill
T1C0.0313
; #@! TA.AperFunction,Plated,PTH,ComponentDrill
T2C0.0313
; #@! TA.AperFunction,Plated,PTH,ComponentDrill
T3C0.0315
; #@! TA.AperFunction,Plated,PTH,ComponentDrill
T4C0.0354
; #@! TA.AperFunction,Plated,PTH,ComponentDrill
T5C0.0394
%
G90
G05
T1
X0.1Y-2.35
X0.15Y-5.1
X0.25Y-4.4
X0.25Y-4.6
X0.3Y-2.35
X0.35Y-5.1
X0.4Y-2.55
X0.45Y-4.5
X0.5Y-1.45
X0.55Y-4.0
X0.55Y-5.2
X0.65Y-4.7
X1.15Y-3.4
X1.25Y-4.6
X1.35Y-5.2
X1.45Y-4.7
X1.75Y-4.5
X2.05Y-4.6
X2.15Y-5.2
X2.2Y-4.35
X2.25Y-4.7
X2.4Y-2.5
X2.5Y-1.45
X2.75Y-3.0
X2.75Y-4.4
X2.85Y-4.6
X2.95Y-5.2
X3.05Y-4.7
X3.15Y-4.15
X3.4Y-1.35
X3.55Y-4.4
X3.6Y-1.35
X3.6Y-1.45
X3.65Y-4.6
T2
X0.5Y-0.2
X0.5Y-2.7
X0.6Y-0.2
X0.6Y-2.7
X1.6Y-0.2
X1.6Y-0.3
X1.6Y-2.6
X1.6Y-2.7
X1.7Y-0.2
X1.7Y-0.3
X1.7Y-2.6
X1.7Y-2.7
X1.8Y-0.2
X1.8Y-0.3
X1.8Y-2.6
X1.8Y-2.7
X1.9Y-0.2
X1.9Y-0.3
X1.9Y-2.6
X1.9Y-2.7
X2.0Y-0.2
X2.0Y-0.3
X2.0Y-2.6
X2.0Y-2.7
X2.1Y-0.2
X2.1Y-0.3
X2.1Y-2.6
X2.1Y-2.7
X2.2Y-0.2
X2.2Y-0.3
X2.2Y-2.6
X2.2Y-2.7
X2.3Y-0.2
X2.3Y-0.3
X2.3Y-2.6
X2.3Y-2.7
X2.35Y-2.9
X2.35Y-4.5
X2.4Y-0.2
X2.4Y-0.3
X2.4Y-2.6
X2.4Y-2.7
X2.5Y-0.2
X2.5Y-0.3
X2.5Y-2.6
X2.5Y-2.7
X2.6Y-0.2
X2.6Y-0.3
X2.6Y-2.6
X2.6Y-2.7
X2.7Y-0.2
X2.7Y-0.3
X2.7Y-2.6
X2.7Y-2.7
X2.75Y-2.9
X2.75Y-4.5
X2.8Y-0.2
X2.8Y-0.3
X2.8Y-2.6
X2.8Y-2.7
X2.9Y-0.2
X2.9Y-0.3
X2.9Y-2.6
X2.9Y-2.7
X3.0Y-0.2
X3.0Y-0.3
X3.0Y-2.6
X3.0Y-2.7
X3.1Y-0.2
X3.1Y-0.3
X3.1Y-2.6
X3.1Y-2.7
X3.15Y-2.9
X3.15Y-4.5
X3.2Y-0.2
X3.2Y-0.3
X3.2Y-2.6
X3.2Y-2.7
X3.3Y-0.2
X3.3Y-0.3
X3.3Y-2.6
X3.3Y-2.7
X3.4Y-0.2
X3.4Y-0.3
X3.4Y-2.6
X3.4Y-2.7
X3.55Y-2.9
X3.55Y-4.5
X3.8Y-1.35
X3.8Y-1.45
X3.8Y-1.55
X3.8Y-1.65
X3.8Y-1.75
T3
X0.1Y-0.65
X0.1Y-0.95
X0.1713Y-2.7213
X0.2697Y-2.7213
X0.55Y-4.8
X0.55Y-5.3
X0.65Y-4.8
X0.65Y-5.3
X0.75Y-4.8
X0.75Y-5.3
X0.85Y-4.8
X0.85Y-5.3
X0.95Y-4.8
X0.95Y-5.3
X1.05Y-4.8
X1.05Y-5.3
X1.15Y-4.8
X1.15Y-5.3
X1.25Y-4.8
X1.25Y-5.3
X1.35Y-4.8
X1.35Y-5.3
X1.45Y-4.8
X1.45Y-5.3
X1.55Y-4.8
X1.55Y-5.3
X1.65Y-4.8
X1.65Y-5.3
X1.75Y-4.8
X1.75Y-5.3
X1.85Y-4.8
X1.85Y-5.3
X1.95Y-4.8
X1.95Y-5.3
X2.05Y-4.8
X2.05Y-5.3
X2.15Y-4.8
X2.15Y-5.3
X2.25Y-4.8
X2.25Y-5.3
X2.35Y-4.8
X2.35Y-5.3
X2.45Y-4.8
X2.45Y-5.3
X2.55Y-4.8
X2.55Y-5.3
X2.65Y-4.8
X2.65Y-5.3
X2.75Y-4.8
X2.75Y-5.3
X2.85Y-4.8
X2.85Y-5.3
X2.95Y-4.8
X2.95Y-5.3
X3.05Y-4.8
X3.05Y-5.3
X3.15Y-4.8
X3.15Y-5.3
X3.25Y-4.8
X3.25Y-5.3
X3.35Y-4.8
X3.35Y-5.3
X3.45Y-4.8
X3.45Y-5.3
X3.55Y-4.8
X3.55Y-5.3
X3.65Y-4.8
X3.65Y-5.3
T4
X0.1Y-0.5
X0.2Y-0.5
T5
X0.1Y-1.05
X0.1Y-1.15
X0.1Y-1.25
X0.1Y-1.35
X0.1Y-1.45
X0.1Y-1.55
X0.1Y-1.65
X0.1Y-1.75
X0.1Y-1.85
X0.1Y-1.95
X0.1Y-2.05
X0.1Y-2.15
X0.15Y-2.95
X0.15Y-3.65
X0.15Y-4.5
X0.2Y-1.05
X0.2Y-1.15
X0.2Y-1.25
X0.2Y-1.35
X0.2Y-1.45
X0.2Y-1.55
X0.2Y-1.65
X0.2Y-1.75
X0.2Y-1.85
X0.2Y-1.95
X0.2Y-2.05
X0.2Y-2.15
X0.3Y-2.45
X0.3Y-2.55
X0.35Y-2.95
X0.35Y-3.65
X0.35Y-3.8
X0.35Y-4.5
X0.7504Y-5.3994
X0.8504Y-5.3994
X0.9504Y-5.3994
X1.0504Y-5.3994
X1.55Y-5.4004
X1.65Y-5.4004
X1.75Y-5.4004
X1.85Y-5.4004
X1.95Y-2.95
X1.95Y-3.65
X1.95Y-3.8
X1.95Y-4.5
X2.1Y-2.95
X2.35Y-5.4004
X2.45Y-5.4004
X2.55Y-5.4004
X2.65Y-5.4004
X3.15Y-5.4004
X3.25Y-5.4004
X3.35Y-5.4004
X3.45Y-5.4004
X3.6531Y-2.45
X3.85Y-2.45
M30
