%TF.GenerationSoftware,KiCad,Pcbnew,7.0.10*%
%TF.CreationDate,2024-04-10T19:25:23-04:00*%
%TF.ProjectId,ping_pong,70696e67-5f70-46f6-9e67-2e6b69636164,rev?*%
%TF.SameCoordinates,Original*%
%TF.FileFunction,Soldermask,Top*%
%TF.FilePolarity,Negative*%
%FSLAX46Y46*%
G04 Gerber Fmt 4.6, Leading zero omitted, Abs format (unit mm)*
G04 Created by KiCad (PCBNEW 7.0.10) date 2024-04-10 19:25:23*
%MOMM*%
%LPD*%
G01*
G04 APERTURE LIST*
%ADD10C,1.600000*%
%ADD11O,1.600000X1.600000*%
%ADD12R,1.700000X1.700000*%
%ADD13R,1.800000X1.800000*%
%ADD14C,1.800000*%
%ADD15R,1.600000X1.600000*%
%ADD16O,1.700000X1.700000*%
%ADD17C,1.700000*%
G04 APERTURE END LIST*
D10*
%TO.C,R101*%
X7620000Y-38100000D03*
D11*
X7620000Y-45720000D03*
%TD*%
D12*
%TO.C,J112*%
X5080000Y-7620000D03*
%TD*%
%TO.C,J108*%
X5080000Y-10160000D03*
%TD*%
D13*
%TO.C,D101*%
X7620000Y-50800000D03*
D14*
X7620000Y-48260000D03*
%TD*%
D12*
%TO.C,J142*%
X10160000Y-10160000D03*
%TD*%
%TO.C,J128*%
X12700000Y-35560000D03*
%TD*%
%TO.C,J113*%
X59690000Y-43180000D03*
%TD*%
D15*
%TO.C,A102*%
X36830000Y-58420000D03*
D11*
X39370000Y-58420000D03*
X41910000Y-58420000D03*
X44450000Y-58420000D03*
X46990000Y-58420000D03*
X49530000Y-58420000D03*
X52070000Y-58420000D03*
X54610000Y-58420000D03*
X54610000Y-45720000D03*
X52070000Y-45720000D03*
X49530000Y-45720000D03*
X46990000Y-45720000D03*
X44450000Y-45720000D03*
X41910000Y-45720000D03*
X39370000Y-45720000D03*
X36830000Y-45720000D03*
%TD*%
D12*
%TO.C,J130*%
X12700000Y-15240000D03*
%TD*%
D15*
%TO.C,A103*%
X57150000Y-58420000D03*
D11*
X59690000Y-58420000D03*
X62230000Y-58420000D03*
X64770000Y-58420000D03*
X67310000Y-58420000D03*
X69850000Y-58420000D03*
X72390000Y-58420000D03*
X74930000Y-58420000D03*
X74930000Y-45720000D03*
X72390000Y-45720000D03*
X69850000Y-45720000D03*
X67310000Y-45720000D03*
X64770000Y-45720000D03*
X62230000Y-45720000D03*
X59690000Y-45720000D03*
X57150000Y-45720000D03*
%TD*%
D12*
%TO.C,J126*%
X12700000Y-17780000D03*
%TD*%
%TO.C,J134*%
X12700000Y-25400000D03*
%TD*%
%TO.C,J144*%
X10160000Y-12700000D03*
%TD*%
%TO.C,J117*%
X80010000Y-43180000D03*
%TD*%
%TO.C,J118*%
X77470000Y-43180000D03*
%TD*%
%TO.C,J114*%
X57150000Y-43180000D03*
%TD*%
%TO.C,J125*%
X12700000Y-10160000D03*
%TD*%
%TO.C,J131*%
X10160000Y-7620000D03*
%TD*%
%TO.C,J104*%
X21590000Y-63500000D03*
D16*
X24130000Y-63500000D03*
X26670000Y-63500000D03*
X29210000Y-63500000D03*
%TD*%
D12*
%TO.C,J135*%
X12700000Y-27940000D03*
%TD*%
%TO.C,J140*%
X7620000Y-33020000D03*
%TD*%
%TO.C,J122*%
X7620000Y-12700000D03*
%TD*%
%TO.C,J138*%
X7620000Y-22860000D03*
%TD*%
D15*
%TO.C,A104*%
X77470000Y-58420000D03*
D11*
X80010000Y-58420000D03*
X82550000Y-58420000D03*
X85090000Y-58420000D03*
X87630000Y-58420000D03*
X90170000Y-58420000D03*
X92710000Y-58420000D03*
X95250000Y-58420000D03*
X95250000Y-45720000D03*
X92710000Y-45720000D03*
X90170000Y-45720000D03*
X87630000Y-45720000D03*
X85090000Y-45720000D03*
X82550000Y-45720000D03*
X80010000Y-45720000D03*
X77470000Y-45720000D03*
%TD*%
D12*
%TO.C,J106*%
X19050000Y-43180000D03*
%TD*%
%TO.C,J129*%
X7620000Y-20320000D03*
%TD*%
%TO.C,J115*%
X62230000Y-63500000D03*
D16*
X64770000Y-63500000D03*
X67310000Y-63500000D03*
X69850000Y-63500000D03*
%TD*%
D15*
%TO.C,A101*%
X16510000Y-58420000D03*
D11*
X19050000Y-58420000D03*
X21590000Y-58420000D03*
X24130000Y-58420000D03*
X26670000Y-58420000D03*
X29210000Y-58420000D03*
X31750000Y-58420000D03*
X34290000Y-58420000D03*
X34290000Y-45720000D03*
X31750000Y-45720000D03*
X29210000Y-45720000D03*
X26670000Y-45720000D03*
X24130000Y-45720000D03*
X21590000Y-45720000D03*
X19050000Y-45720000D03*
X16510000Y-45720000D03*
%TD*%
D12*
%TO.C,J121*%
X7620000Y-10160000D03*
%TD*%
%TO.C,J127*%
X12700000Y-22860000D03*
%TD*%
%TO.C,J120*%
X87630000Y-12700000D03*
%TD*%
%TO.C,J133*%
X12700000Y-20320000D03*
%TD*%
%TO.C,J132*%
X12700000Y-12700000D03*
%TD*%
%TO.C,J123*%
X7620000Y-15240000D03*
%TD*%
%TO.C,J107*%
X16510000Y-43180000D03*
%TD*%
%TO.C,J119*%
X82550000Y-63475000D03*
D16*
X85090000Y-63475000D03*
X87630000Y-63475000D03*
X90170000Y-63475000D03*
%TD*%
D12*
%TO.C,J105*%
X95250000Y-43180000D03*
%TD*%
D17*
%TO.C,U101*%
X35560000Y-12700000D03*
X35560000Y-30480000D03*
X76200000Y-12700000D03*
X76200000Y-30480000D03*
%TD*%
D12*
%TO.C,J101*%
X7620000Y-7620000D03*
%TD*%
%TO.C,J147*%
X12700000Y-30480000D03*
%TD*%
%TO.C,J111*%
X41910000Y-63500000D03*
D16*
X44450000Y-63500000D03*
X46990000Y-63500000D03*
X49530000Y-63500000D03*
%TD*%
D12*
%TO.C,J103*%
X12700000Y-7620000D03*
%TD*%
%TO.C,J143*%
X10160000Y-15240000D03*
%TD*%
%TO.C,J102*%
X5080000Y-12700000D03*
%TD*%
%TO.C,J109*%
X39370000Y-43180000D03*
%TD*%
%TO.C,J148*%
X12700000Y-33020000D03*
%TD*%
%TO.C,J145*%
X7620000Y-25400000D03*
%TD*%
%TO.C,J110*%
X36830000Y-43180000D03*
%TD*%
%TO.C,J146*%
X7620000Y-27940000D03*
%TD*%
%TO.C,J139*%
X7620000Y-30480000D03*
%TD*%
%TO.C,J124*%
X7620000Y-17780000D03*
%TD*%
%TO.C,J141*%
X7620000Y-35560000D03*
%TD*%
M02*
