%TF.GenerationSoftware,KiCad,Pcbnew,7.0.10*%
%TF.CreationDate,2024-04-17T19:16:43-04:00*%
%TF.ProjectId,ping_pong,70696e67-5f70-46f6-9e67-2e6b69636164,rev?*%
%TF.SameCoordinates,Original*%
%TF.FileFunction,Soldermask,Bot*%
%TF.FilePolarity,Negative*%
%FSLAX46Y46*%
G04 Gerber Fmt 4.6, Leading zero omitted, Abs format (unit mm)*
G04 Created by KiCad (PCBNEW 7.0.10) date 2024-04-17 19:16:43*
%MOMM*%
%LPD*%
G01*
G04 APERTURE LIST*
%ADD10C,1.700000*%
%ADD11R,1.600000X1.600000*%
%ADD12O,1.600000X1.600000*%
%ADD13R,1.700000X1.700000*%
%ADD14R,1.800000X1.800000*%
%ADD15C,1.800000*%
%ADD16C,3.200000*%
%ADD17C,2.200000*%
%ADD18O,1.700000X1.700000*%
%ADD19C,1.600000*%
%ADD20R,2.000000X2.000000*%
%ADD21C,2.000000*%
G04 APERTURE END LIST*
D10*
%TO.C,U101*%
X8890000Y-74930000D03*
X8890000Y-92710000D03*
X49530000Y-74930000D03*
X49530000Y-92710000D03*
%TD*%
D11*
%TO.C,A102*%
X34290000Y-134620000D03*
D12*
X36830000Y-134620000D03*
X39370000Y-134620000D03*
X41910000Y-134620000D03*
X44450000Y-134620000D03*
X46990000Y-134620000D03*
X49530000Y-134620000D03*
X52070000Y-134620000D03*
X52070000Y-121920000D03*
X49530000Y-121920000D03*
X46990000Y-121920000D03*
X44450000Y-121920000D03*
X41910000Y-121920000D03*
X39370000Y-121920000D03*
X36830000Y-121920000D03*
X34290000Y-121920000D03*
%TD*%
D11*
%TO.C,A103*%
X54610000Y-134620000D03*
D12*
X57150000Y-134620000D03*
X59690000Y-134620000D03*
X62230000Y-134620000D03*
X64770000Y-134620000D03*
X67310000Y-134620000D03*
X69850000Y-134620000D03*
X72390000Y-134620000D03*
X72390000Y-121920000D03*
X69850000Y-121920000D03*
X67310000Y-121920000D03*
X64770000Y-121920000D03*
X62230000Y-121920000D03*
X59690000Y-121920000D03*
X57150000Y-121920000D03*
X54610000Y-121920000D03*
%TD*%
D13*
%TO.C,J106*%
X7620000Y-62230000D03*
%TD*%
D14*
%TO.C,D101*%
X5080000Y-12700000D03*
D15*
X2540000Y-12700000D03*
%TD*%
D16*
%TO.C,H103*%
X5000000Y-140000000D03*
%TD*%
D17*
%TO.C,U102*%
X64770000Y-107950000D03*
X64770000Y-81280000D03*
D10*
X69850000Y-114300000D03*
X59690000Y-114300000D03*
X69850000Y-73660000D03*
X59690000Y-73660000D03*
%TD*%
D13*
%TO.C,J115*%
X59690000Y-137170000D03*
D18*
X62230000Y-137170000D03*
X64770000Y-137170000D03*
X67310000Y-137170000D03*
%TD*%
D19*
%TO.C,R101*%
X2540000Y-24130000D03*
D12*
X2540000Y-16510000D03*
%TD*%
D11*
%TO.C,A101*%
X13970000Y-134620000D03*
D12*
X16510000Y-134620000D03*
X19050000Y-134620000D03*
X21590000Y-134620000D03*
X24130000Y-134620000D03*
X26670000Y-134620000D03*
X29210000Y-134620000D03*
X31750000Y-134620000D03*
X31750000Y-121920000D03*
X29210000Y-121920000D03*
X26670000Y-121920000D03*
X24130000Y-121920000D03*
X21590000Y-121920000D03*
X19050000Y-121920000D03*
X16510000Y-121920000D03*
X13970000Y-121920000D03*
%TD*%
D10*
%TO.C,U106*%
X8890000Y-96520000D03*
X8890000Y-114300000D03*
X49530000Y-96520000D03*
X49530000Y-114300000D03*
%TD*%
D13*
%TO.C,J119*%
X80010000Y-137170000D03*
D18*
X82550000Y-137170000D03*
X85090000Y-137170000D03*
X87630000Y-137170000D03*
%TD*%
D13*
%TO.C,J101*%
X7620000Y-64770000D03*
%TD*%
D10*
%TO.C,U107*%
X40640000Y-68580000D03*
X43180000Y-68580000D03*
X45720000Y-68580000D03*
X48260000Y-68580000D03*
X50800000Y-68580000D03*
X53340000Y-68580000D03*
X55880000Y-68580000D03*
X58420000Y-68580000D03*
X60960000Y-68580000D03*
X63500000Y-68580000D03*
X66040000Y-68580000D03*
X68580000Y-68580000D03*
X71120000Y-68580000D03*
X73660000Y-68580000D03*
X76200000Y-68580000D03*
X78740000Y-68580000D03*
X81280000Y-68580000D03*
X83820000Y-68580000D03*
X86360000Y-68580000D03*
X40640000Y-66040000D03*
X43180000Y-66040000D03*
X45720000Y-66040000D03*
X48260000Y-66040000D03*
X50800000Y-66040000D03*
X53340000Y-66040000D03*
X55880000Y-66040000D03*
X58420000Y-66040000D03*
X60960000Y-66040000D03*
X63500000Y-66040000D03*
X66040000Y-66040000D03*
X68580000Y-66040000D03*
X71120000Y-66040000D03*
X73660000Y-66040000D03*
X76200000Y-66040000D03*
X78740000Y-66040000D03*
X81280000Y-66040000D03*
X83820000Y-66040000D03*
X86360000Y-66040000D03*
X40640000Y-5080000D03*
X43180000Y-5080000D03*
X45720000Y-5080000D03*
X48260000Y-5080000D03*
X50800000Y-5080000D03*
X53340000Y-5080000D03*
X55880000Y-5080000D03*
X58420000Y-5080000D03*
X60960000Y-5080000D03*
X63500000Y-5080000D03*
X66040000Y-5080000D03*
X68580000Y-5080000D03*
X71120000Y-5080000D03*
X73660000Y-5080000D03*
X76200000Y-5080000D03*
X78740000Y-5080000D03*
X81280000Y-5080000D03*
X83820000Y-5080000D03*
X86360000Y-5080000D03*
X40640000Y-7620000D03*
X43180000Y-7620000D03*
X45720000Y-7620000D03*
X48260000Y-7620000D03*
X50800000Y-7620000D03*
X53340000Y-7620000D03*
X55880000Y-7620000D03*
X58420000Y-7620000D03*
X60960000Y-7620000D03*
X63500000Y-7620000D03*
X66040000Y-7620000D03*
X68580000Y-7620000D03*
X71120000Y-7620000D03*
X73660000Y-7620000D03*
X76200000Y-7620000D03*
X78740000Y-7620000D03*
X81280000Y-7620000D03*
X83820000Y-7620000D03*
X86360000Y-7620000D03*
X15240000Y-68580000D03*
X12700000Y-68580000D03*
X15240000Y-5080000D03*
X12700000Y-5080000D03*
%TD*%
D16*
%TO.C,H104*%
X95000000Y-140000000D03*
%TD*%
D17*
%TO.C,U103*%
X85090000Y-107950000D03*
X85090000Y-81280000D03*
D10*
X90170000Y-114300000D03*
X80010000Y-114300000D03*
X90170000Y-73660000D03*
X80010000Y-73660000D03*
%TD*%
D11*
%TO.C,C102*%
X4350000Y-69120000D03*
D19*
X6850000Y-69120000D03*
%TD*%
D13*
%TO.C,J104*%
X19060000Y-137145000D03*
D18*
X21600000Y-137145000D03*
X24140000Y-137145000D03*
X26680000Y-137145000D03*
%TD*%
D13*
%TO.C,J130*%
X3810000Y-114300000D03*
%TD*%
%TO.C,J107*%
X5080000Y-26670000D03*
D18*
X5080000Y-29210000D03*
X5080000Y-31750000D03*
X5080000Y-34290000D03*
X5080000Y-36830000D03*
X5080000Y-39370000D03*
X5080000Y-41910000D03*
X5080000Y-44450000D03*
X5080000Y-46990000D03*
X5080000Y-49530000D03*
X5080000Y-52070000D03*
X5080000Y-54610000D03*
%TD*%
D16*
%TO.C,H101*%
X5000000Y-5000000D03*
%TD*%
D10*
%TO.C,U108*%
X96520000Y-44450000D03*
X96520000Y-41910000D03*
X96520000Y-39370000D03*
X96520000Y-36830000D03*
X96520000Y-34290000D03*
%TD*%
D13*
%TO.C,J111*%
X39370000Y-137170000D03*
D18*
X41910000Y-137170000D03*
X44450000Y-137170000D03*
X46990000Y-137170000D03*
%TD*%
D11*
%TO.C,A104*%
X74930000Y-134620000D03*
D12*
X77470000Y-134620000D03*
X80010000Y-134620000D03*
X82550000Y-134620000D03*
X85090000Y-134620000D03*
X87630000Y-134620000D03*
X90170000Y-134620000D03*
X92710000Y-134620000D03*
X92710000Y-121920000D03*
X90170000Y-121920000D03*
X87630000Y-121920000D03*
X85090000Y-121920000D03*
X82550000Y-121920000D03*
X80010000Y-121920000D03*
X77470000Y-121920000D03*
X74930000Y-121920000D03*
%TD*%
D13*
%TO.C,J103*%
X3810000Y-92710000D03*
%TD*%
%TO.C,J105*%
X2540000Y-26670000D03*
D18*
X2540000Y-29210000D03*
X2540000Y-31750000D03*
X2540000Y-34290000D03*
X2540000Y-36830000D03*
X2540000Y-39370000D03*
X2540000Y-41910000D03*
X2540000Y-44450000D03*
X2540000Y-46990000D03*
X2540000Y-49530000D03*
X2540000Y-52070000D03*
X2540000Y-54610000D03*
%TD*%
D20*
%TO.C,C101*%
X97790000Y-62230000D03*
D21*
X92790000Y-62230000D03*
%TD*%
D13*
%TO.C,J120*%
X53340000Y-74930000D03*
%TD*%
%TO.C,J102*%
X3810000Y-74930000D03*
%TD*%
D16*
%TO.C,H102*%
X95000000Y-5000000D03*
%TD*%
M02*
