%TF.GenerationSoftware,KiCad,Pcbnew,7.0.10*%
%TF.CreationDate,2024-04-12T16:17:09-04:00*%
%TF.ProjectId,ping_pong,70696e67-5f70-46f6-9e67-2e6b69636164,rev?*%
%TF.SameCoordinates,Original*%
%TF.FileFunction,Legend,Top*%
%TF.FilePolarity,Positive*%
%FSLAX46Y46*%
G04 Gerber Fmt 4.6, Leading zero omitted, Abs format (unit mm)*
G04 Created by KiCad (PCBNEW 7.0.10) date 2024-04-12 16:17:09*
%MOMM*%
%LPD*%
G01*
G04 APERTURE LIST*
%ADD10C,0.150000*%
%ADD11C,0.100000*%
%ADD12C,0.120000*%
G04 APERTURE END LIST*
D10*
X13954285Y-10654819D02*
X13954285Y-11369104D01*
X13954285Y-11369104D02*
X13906666Y-11511961D01*
X13906666Y-11511961D02*
X13811428Y-11607200D01*
X13811428Y-11607200D02*
X13668571Y-11654819D01*
X13668571Y-11654819D02*
X13573333Y-11654819D01*
X14954285Y-11654819D02*
X14382857Y-11654819D01*
X14668571Y-11654819D02*
X14668571Y-10654819D01*
X14668571Y-10654819D02*
X14573333Y-10797676D01*
X14573333Y-10797676D02*
X14478095Y-10892914D01*
X14478095Y-10892914D02*
X14382857Y-10940533D01*
X15811428Y-10988152D02*
X15811428Y-11654819D01*
X15573333Y-10607200D02*
X15335238Y-11321485D01*
X15335238Y-11321485D02*
X15954285Y-11321485D01*
X16287619Y-10750057D02*
X16335238Y-10702438D01*
X16335238Y-10702438D02*
X16430476Y-10654819D01*
X16430476Y-10654819D02*
X16668571Y-10654819D01*
X16668571Y-10654819D02*
X16763809Y-10702438D01*
X16763809Y-10702438D02*
X16811428Y-10750057D01*
X16811428Y-10750057D02*
X16859047Y-10845295D01*
X16859047Y-10845295D02*
X16859047Y-10940533D01*
X16859047Y-10940533D02*
X16811428Y-11083390D01*
X16811428Y-11083390D02*
X16240000Y-11654819D01*
X16240000Y-11654819D02*
X16859047Y-11654819D01*
X16494285Y-36054819D02*
X16494285Y-36769104D01*
X16494285Y-36769104D02*
X16446666Y-36911961D01*
X16446666Y-36911961D02*
X16351428Y-37007200D01*
X16351428Y-37007200D02*
X16208571Y-37054819D01*
X16208571Y-37054819D02*
X16113333Y-37054819D01*
X17494285Y-37054819D02*
X16922857Y-37054819D01*
X17208571Y-37054819D02*
X17208571Y-36054819D01*
X17208571Y-36054819D02*
X17113333Y-36197676D01*
X17113333Y-36197676D02*
X17018095Y-36292914D01*
X17018095Y-36292914D02*
X16922857Y-36340533D01*
X17875238Y-36150057D02*
X17922857Y-36102438D01*
X17922857Y-36102438D02*
X18018095Y-36054819D01*
X18018095Y-36054819D02*
X18256190Y-36054819D01*
X18256190Y-36054819D02*
X18351428Y-36102438D01*
X18351428Y-36102438D02*
X18399047Y-36150057D01*
X18399047Y-36150057D02*
X18446666Y-36245295D01*
X18446666Y-36245295D02*
X18446666Y-36340533D01*
X18446666Y-36340533D02*
X18399047Y-36483390D01*
X18399047Y-36483390D02*
X17827619Y-37054819D01*
X17827619Y-37054819D02*
X18446666Y-37054819D01*
X19018095Y-36483390D02*
X18922857Y-36435771D01*
X18922857Y-36435771D02*
X18875238Y-36388152D01*
X18875238Y-36388152D02*
X18827619Y-36292914D01*
X18827619Y-36292914D02*
X18827619Y-36245295D01*
X18827619Y-36245295D02*
X18875238Y-36150057D01*
X18875238Y-36150057D02*
X18922857Y-36102438D01*
X18922857Y-36102438D02*
X19018095Y-36054819D01*
X19018095Y-36054819D02*
X19208571Y-36054819D01*
X19208571Y-36054819D02*
X19303809Y-36102438D01*
X19303809Y-36102438D02*
X19351428Y-36150057D01*
X19351428Y-36150057D02*
X19399047Y-36245295D01*
X19399047Y-36245295D02*
X19399047Y-36292914D01*
X19399047Y-36292914D02*
X19351428Y-36388152D01*
X19351428Y-36388152D02*
X19303809Y-36435771D01*
X19303809Y-36435771D02*
X19208571Y-36483390D01*
X19208571Y-36483390D02*
X19018095Y-36483390D01*
X19018095Y-36483390D02*
X18922857Y-36531009D01*
X18922857Y-36531009D02*
X18875238Y-36578628D01*
X18875238Y-36578628D02*
X18827619Y-36673866D01*
X18827619Y-36673866D02*
X18827619Y-36864342D01*
X18827619Y-36864342D02*
X18875238Y-36959580D01*
X18875238Y-36959580D02*
X18922857Y-37007200D01*
X18922857Y-37007200D02*
X19018095Y-37054819D01*
X19018095Y-37054819D02*
X19208571Y-37054819D01*
X19208571Y-37054819D02*
X19303809Y-37007200D01*
X19303809Y-37007200D02*
X19351428Y-36959580D01*
X19351428Y-36959580D02*
X19399047Y-36864342D01*
X19399047Y-36864342D02*
X19399047Y-36673866D01*
X19399047Y-36673866D02*
X19351428Y-36578628D01*
X19351428Y-36578628D02*
X19303809Y-36531009D01*
X19303809Y-36531009D02*
X19208571Y-36483390D01*
X63484285Y-43674819D02*
X63484285Y-44389104D01*
X63484285Y-44389104D02*
X63436666Y-44531961D01*
X63436666Y-44531961D02*
X63341428Y-44627200D01*
X63341428Y-44627200D02*
X63198571Y-44674819D01*
X63198571Y-44674819D02*
X63103333Y-44674819D01*
X64484285Y-44674819D02*
X63912857Y-44674819D01*
X64198571Y-44674819D02*
X64198571Y-43674819D01*
X64198571Y-43674819D02*
X64103333Y-43817676D01*
X64103333Y-43817676D02*
X64008095Y-43912914D01*
X64008095Y-43912914D02*
X63912857Y-43960533D01*
X65436666Y-44674819D02*
X64865238Y-44674819D01*
X65150952Y-44674819D02*
X65150952Y-43674819D01*
X65150952Y-43674819D02*
X65055714Y-43817676D01*
X65055714Y-43817676D02*
X64960476Y-43912914D01*
X64960476Y-43912914D02*
X64865238Y-43960533D01*
X65770000Y-43674819D02*
X66389047Y-43674819D01*
X66389047Y-43674819D02*
X66055714Y-44055771D01*
X66055714Y-44055771D02*
X66198571Y-44055771D01*
X66198571Y-44055771D02*
X66293809Y-44103390D01*
X66293809Y-44103390D02*
X66341428Y-44151009D01*
X66341428Y-44151009D02*
X66389047Y-44246247D01*
X66389047Y-44246247D02*
X66389047Y-44484342D01*
X66389047Y-44484342D02*
X66341428Y-44579580D01*
X66341428Y-44579580D02*
X66293809Y-44627200D01*
X66293809Y-44627200D02*
X66198571Y-44674819D01*
X66198571Y-44674819D02*
X65912857Y-44674819D01*
X65912857Y-44674819D02*
X65817619Y-44627200D01*
X65817619Y-44627200D02*
X65770000Y-44579580D01*
X39539104Y-57546666D02*
X39539104Y-57070476D01*
X39824819Y-57641904D02*
X38824819Y-57308571D01*
X38824819Y-57308571D02*
X39824819Y-56975238D01*
X39824819Y-56118095D02*
X39824819Y-56689523D01*
X39824819Y-56403809D02*
X38824819Y-56403809D01*
X38824819Y-56403809D02*
X38967676Y-56499047D01*
X38967676Y-56499047D02*
X39062914Y-56594285D01*
X39062914Y-56594285D02*
X39110533Y-56689523D01*
X38824819Y-55499047D02*
X38824819Y-55403809D01*
X38824819Y-55403809D02*
X38872438Y-55308571D01*
X38872438Y-55308571D02*
X38920057Y-55260952D01*
X38920057Y-55260952D02*
X39015295Y-55213333D01*
X39015295Y-55213333D02*
X39205771Y-55165714D01*
X39205771Y-55165714D02*
X39443866Y-55165714D01*
X39443866Y-55165714D02*
X39634342Y-55213333D01*
X39634342Y-55213333D02*
X39729580Y-55260952D01*
X39729580Y-55260952D02*
X39777200Y-55308571D01*
X39777200Y-55308571D02*
X39824819Y-55403809D01*
X39824819Y-55403809D02*
X39824819Y-55499047D01*
X39824819Y-55499047D02*
X39777200Y-55594285D01*
X39777200Y-55594285D02*
X39729580Y-55641904D01*
X39729580Y-55641904D02*
X39634342Y-55689523D01*
X39634342Y-55689523D02*
X39443866Y-55737142D01*
X39443866Y-55737142D02*
X39205771Y-55737142D01*
X39205771Y-55737142D02*
X39015295Y-55689523D01*
X39015295Y-55689523D02*
X38920057Y-55641904D01*
X38920057Y-55641904D02*
X38872438Y-55594285D01*
X38872438Y-55594285D02*
X38824819Y-55499047D01*
X38920057Y-54784761D02*
X38872438Y-54737142D01*
X38872438Y-54737142D02*
X38824819Y-54641904D01*
X38824819Y-54641904D02*
X38824819Y-54403809D01*
X38824819Y-54403809D02*
X38872438Y-54308571D01*
X38872438Y-54308571D02*
X38920057Y-54260952D01*
X38920057Y-54260952D02*
X39015295Y-54213333D01*
X39015295Y-54213333D02*
X39110533Y-54213333D01*
X39110533Y-54213333D02*
X39253390Y-54260952D01*
X39253390Y-54260952D02*
X39824819Y-54832380D01*
X39824819Y-54832380D02*
X39824819Y-54213333D01*
X16494285Y-15734819D02*
X16494285Y-16449104D01*
X16494285Y-16449104D02*
X16446666Y-16591961D01*
X16446666Y-16591961D02*
X16351428Y-16687200D01*
X16351428Y-16687200D02*
X16208571Y-16734819D01*
X16208571Y-16734819D02*
X16113333Y-16734819D01*
X17494285Y-16734819D02*
X16922857Y-16734819D01*
X17208571Y-16734819D02*
X17208571Y-15734819D01*
X17208571Y-15734819D02*
X17113333Y-15877676D01*
X17113333Y-15877676D02*
X17018095Y-15972914D01*
X17018095Y-15972914D02*
X16922857Y-16020533D01*
X17827619Y-15734819D02*
X18446666Y-15734819D01*
X18446666Y-15734819D02*
X18113333Y-16115771D01*
X18113333Y-16115771D02*
X18256190Y-16115771D01*
X18256190Y-16115771D02*
X18351428Y-16163390D01*
X18351428Y-16163390D02*
X18399047Y-16211009D01*
X18399047Y-16211009D02*
X18446666Y-16306247D01*
X18446666Y-16306247D02*
X18446666Y-16544342D01*
X18446666Y-16544342D02*
X18399047Y-16639580D01*
X18399047Y-16639580D02*
X18351428Y-16687200D01*
X18351428Y-16687200D02*
X18256190Y-16734819D01*
X18256190Y-16734819D02*
X17970476Y-16734819D01*
X17970476Y-16734819D02*
X17875238Y-16687200D01*
X17875238Y-16687200D02*
X17827619Y-16639580D01*
X19065714Y-15734819D02*
X19160952Y-15734819D01*
X19160952Y-15734819D02*
X19256190Y-15782438D01*
X19256190Y-15782438D02*
X19303809Y-15830057D01*
X19303809Y-15830057D02*
X19351428Y-15925295D01*
X19351428Y-15925295D02*
X19399047Y-16115771D01*
X19399047Y-16115771D02*
X19399047Y-16353866D01*
X19399047Y-16353866D02*
X19351428Y-16544342D01*
X19351428Y-16544342D02*
X19303809Y-16639580D01*
X19303809Y-16639580D02*
X19256190Y-16687200D01*
X19256190Y-16687200D02*
X19160952Y-16734819D01*
X19160952Y-16734819D02*
X19065714Y-16734819D01*
X19065714Y-16734819D02*
X18970476Y-16687200D01*
X18970476Y-16687200D02*
X18922857Y-16639580D01*
X18922857Y-16639580D02*
X18875238Y-16544342D01*
X18875238Y-16544342D02*
X18827619Y-16353866D01*
X18827619Y-16353866D02*
X18827619Y-16115771D01*
X18827619Y-16115771D02*
X18875238Y-15925295D01*
X18875238Y-15925295D02*
X18922857Y-15830057D01*
X18922857Y-15830057D02*
X18970476Y-15782438D01*
X18970476Y-15782438D02*
X19065714Y-15734819D01*
X59859104Y-57546666D02*
X59859104Y-57070476D01*
X60144819Y-57641904D02*
X59144819Y-57308571D01*
X59144819Y-57308571D02*
X60144819Y-56975238D01*
X60144819Y-56118095D02*
X60144819Y-56689523D01*
X60144819Y-56403809D02*
X59144819Y-56403809D01*
X59144819Y-56403809D02*
X59287676Y-56499047D01*
X59287676Y-56499047D02*
X59382914Y-56594285D01*
X59382914Y-56594285D02*
X59430533Y-56689523D01*
X59144819Y-55499047D02*
X59144819Y-55403809D01*
X59144819Y-55403809D02*
X59192438Y-55308571D01*
X59192438Y-55308571D02*
X59240057Y-55260952D01*
X59240057Y-55260952D02*
X59335295Y-55213333D01*
X59335295Y-55213333D02*
X59525771Y-55165714D01*
X59525771Y-55165714D02*
X59763866Y-55165714D01*
X59763866Y-55165714D02*
X59954342Y-55213333D01*
X59954342Y-55213333D02*
X60049580Y-55260952D01*
X60049580Y-55260952D02*
X60097200Y-55308571D01*
X60097200Y-55308571D02*
X60144819Y-55403809D01*
X60144819Y-55403809D02*
X60144819Y-55499047D01*
X60144819Y-55499047D02*
X60097200Y-55594285D01*
X60097200Y-55594285D02*
X60049580Y-55641904D01*
X60049580Y-55641904D02*
X59954342Y-55689523D01*
X59954342Y-55689523D02*
X59763866Y-55737142D01*
X59763866Y-55737142D02*
X59525771Y-55737142D01*
X59525771Y-55737142D02*
X59335295Y-55689523D01*
X59335295Y-55689523D02*
X59240057Y-55641904D01*
X59240057Y-55641904D02*
X59192438Y-55594285D01*
X59192438Y-55594285D02*
X59144819Y-55499047D01*
X59144819Y-54832380D02*
X59144819Y-54213333D01*
X59144819Y-54213333D02*
X59525771Y-54546666D01*
X59525771Y-54546666D02*
X59525771Y-54403809D01*
X59525771Y-54403809D02*
X59573390Y-54308571D01*
X59573390Y-54308571D02*
X59621009Y-54260952D01*
X59621009Y-54260952D02*
X59716247Y-54213333D01*
X59716247Y-54213333D02*
X59954342Y-54213333D01*
X59954342Y-54213333D02*
X60049580Y-54260952D01*
X60049580Y-54260952D02*
X60097200Y-54308571D01*
X60097200Y-54308571D02*
X60144819Y-54403809D01*
X60144819Y-54403809D02*
X60144819Y-54689523D01*
X60144819Y-54689523D02*
X60097200Y-54784761D01*
X60097200Y-54784761D02*
X60049580Y-54832380D01*
X16494285Y-18274819D02*
X16494285Y-18989104D01*
X16494285Y-18989104D02*
X16446666Y-19131961D01*
X16446666Y-19131961D02*
X16351428Y-19227200D01*
X16351428Y-19227200D02*
X16208571Y-19274819D01*
X16208571Y-19274819D02*
X16113333Y-19274819D01*
X17494285Y-19274819D02*
X16922857Y-19274819D01*
X17208571Y-19274819D02*
X17208571Y-18274819D01*
X17208571Y-18274819D02*
X17113333Y-18417676D01*
X17113333Y-18417676D02*
X17018095Y-18512914D01*
X17018095Y-18512914D02*
X16922857Y-18560533D01*
X17875238Y-18370057D02*
X17922857Y-18322438D01*
X17922857Y-18322438D02*
X18018095Y-18274819D01*
X18018095Y-18274819D02*
X18256190Y-18274819D01*
X18256190Y-18274819D02*
X18351428Y-18322438D01*
X18351428Y-18322438D02*
X18399047Y-18370057D01*
X18399047Y-18370057D02*
X18446666Y-18465295D01*
X18446666Y-18465295D02*
X18446666Y-18560533D01*
X18446666Y-18560533D02*
X18399047Y-18703390D01*
X18399047Y-18703390D02*
X17827619Y-19274819D01*
X17827619Y-19274819D02*
X18446666Y-19274819D01*
X19303809Y-18274819D02*
X19113333Y-18274819D01*
X19113333Y-18274819D02*
X19018095Y-18322438D01*
X19018095Y-18322438D02*
X18970476Y-18370057D01*
X18970476Y-18370057D02*
X18875238Y-18512914D01*
X18875238Y-18512914D02*
X18827619Y-18703390D01*
X18827619Y-18703390D02*
X18827619Y-19084342D01*
X18827619Y-19084342D02*
X18875238Y-19179580D01*
X18875238Y-19179580D02*
X18922857Y-19227200D01*
X18922857Y-19227200D02*
X19018095Y-19274819D01*
X19018095Y-19274819D02*
X19208571Y-19274819D01*
X19208571Y-19274819D02*
X19303809Y-19227200D01*
X19303809Y-19227200D02*
X19351428Y-19179580D01*
X19351428Y-19179580D02*
X19399047Y-19084342D01*
X19399047Y-19084342D02*
X19399047Y-18846247D01*
X19399047Y-18846247D02*
X19351428Y-18751009D01*
X19351428Y-18751009D02*
X19303809Y-18703390D01*
X19303809Y-18703390D02*
X19208571Y-18655771D01*
X19208571Y-18655771D02*
X19018095Y-18655771D01*
X19018095Y-18655771D02*
X18922857Y-18703390D01*
X18922857Y-18703390D02*
X18875238Y-18751009D01*
X18875238Y-18751009D02*
X18827619Y-18846247D01*
X16494285Y-25894819D02*
X16494285Y-26609104D01*
X16494285Y-26609104D02*
X16446666Y-26751961D01*
X16446666Y-26751961D02*
X16351428Y-26847200D01*
X16351428Y-26847200D02*
X16208571Y-26894819D01*
X16208571Y-26894819D02*
X16113333Y-26894819D01*
X17494285Y-26894819D02*
X16922857Y-26894819D01*
X17208571Y-26894819D02*
X17208571Y-25894819D01*
X17208571Y-25894819D02*
X17113333Y-26037676D01*
X17113333Y-26037676D02*
X17018095Y-26132914D01*
X17018095Y-26132914D02*
X16922857Y-26180533D01*
X17827619Y-25894819D02*
X18446666Y-25894819D01*
X18446666Y-25894819D02*
X18113333Y-26275771D01*
X18113333Y-26275771D02*
X18256190Y-26275771D01*
X18256190Y-26275771D02*
X18351428Y-26323390D01*
X18351428Y-26323390D02*
X18399047Y-26371009D01*
X18399047Y-26371009D02*
X18446666Y-26466247D01*
X18446666Y-26466247D02*
X18446666Y-26704342D01*
X18446666Y-26704342D02*
X18399047Y-26799580D01*
X18399047Y-26799580D02*
X18351428Y-26847200D01*
X18351428Y-26847200D02*
X18256190Y-26894819D01*
X18256190Y-26894819D02*
X17970476Y-26894819D01*
X17970476Y-26894819D02*
X17875238Y-26847200D01*
X17875238Y-26847200D02*
X17827619Y-26799580D01*
X19303809Y-26228152D02*
X19303809Y-26894819D01*
X19065714Y-25847200D02*
X18827619Y-26561485D01*
X18827619Y-26561485D02*
X19446666Y-26561485D01*
X13954285Y-13194819D02*
X13954285Y-13909104D01*
X13954285Y-13909104D02*
X13906666Y-14051961D01*
X13906666Y-14051961D02*
X13811428Y-14147200D01*
X13811428Y-14147200D02*
X13668571Y-14194819D01*
X13668571Y-14194819D02*
X13573333Y-14194819D01*
X14954285Y-14194819D02*
X14382857Y-14194819D01*
X14668571Y-14194819D02*
X14668571Y-13194819D01*
X14668571Y-13194819D02*
X14573333Y-13337676D01*
X14573333Y-13337676D02*
X14478095Y-13432914D01*
X14478095Y-13432914D02*
X14382857Y-13480533D01*
X15811428Y-13528152D02*
X15811428Y-14194819D01*
X15573333Y-13147200D02*
X15335238Y-13861485D01*
X15335238Y-13861485D02*
X15954285Y-13861485D01*
X16763809Y-13528152D02*
X16763809Y-14194819D01*
X16525714Y-13147200D02*
X16287619Y-13861485D01*
X16287619Y-13861485D02*
X16906666Y-13861485D01*
X83804285Y-43674819D02*
X83804285Y-44389104D01*
X83804285Y-44389104D02*
X83756666Y-44531961D01*
X83756666Y-44531961D02*
X83661428Y-44627200D01*
X83661428Y-44627200D02*
X83518571Y-44674819D01*
X83518571Y-44674819D02*
X83423333Y-44674819D01*
X84804285Y-44674819D02*
X84232857Y-44674819D01*
X84518571Y-44674819D02*
X84518571Y-43674819D01*
X84518571Y-43674819D02*
X84423333Y-43817676D01*
X84423333Y-43817676D02*
X84328095Y-43912914D01*
X84328095Y-43912914D02*
X84232857Y-43960533D01*
X85756666Y-44674819D02*
X85185238Y-44674819D01*
X85470952Y-44674819D02*
X85470952Y-43674819D01*
X85470952Y-43674819D02*
X85375714Y-43817676D01*
X85375714Y-43817676D02*
X85280476Y-43912914D01*
X85280476Y-43912914D02*
X85185238Y-43960533D01*
X86090000Y-43674819D02*
X86756666Y-43674819D01*
X86756666Y-43674819D02*
X86328095Y-44674819D01*
X81264285Y-43674819D02*
X81264285Y-44389104D01*
X81264285Y-44389104D02*
X81216666Y-44531961D01*
X81216666Y-44531961D02*
X81121428Y-44627200D01*
X81121428Y-44627200D02*
X80978571Y-44674819D01*
X80978571Y-44674819D02*
X80883333Y-44674819D01*
X82264285Y-44674819D02*
X81692857Y-44674819D01*
X81978571Y-44674819D02*
X81978571Y-43674819D01*
X81978571Y-43674819D02*
X81883333Y-43817676D01*
X81883333Y-43817676D02*
X81788095Y-43912914D01*
X81788095Y-43912914D02*
X81692857Y-43960533D01*
X83216666Y-44674819D02*
X82645238Y-44674819D01*
X82930952Y-44674819D02*
X82930952Y-43674819D01*
X82930952Y-43674819D02*
X82835714Y-43817676D01*
X82835714Y-43817676D02*
X82740476Y-43912914D01*
X82740476Y-43912914D02*
X82645238Y-43960533D01*
X83788095Y-44103390D02*
X83692857Y-44055771D01*
X83692857Y-44055771D02*
X83645238Y-44008152D01*
X83645238Y-44008152D02*
X83597619Y-43912914D01*
X83597619Y-43912914D02*
X83597619Y-43865295D01*
X83597619Y-43865295D02*
X83645238Y-43770057D01*
X83645238Y-43770057D02*
X83692857Y-43722438D01*
X83692857Y-43722438D02*
X83788095Y-43674819D01*
X83788095Y-43674819D02*
X83978571Y-43674819D01*
X83978571Y-43674819D02*
X84073809Y-43722438D01*
X84073809Y-43722438D02*
X84121428Y-43770057D01*
X84121428Y-43770057D02*
X84169047Y-43865295D01*
X84169047Y-43865295D02*
X84169047Y-43912914D01*
X84169047Y-43912914D02*
X84121428Y-44008152D01*
X84121428Y-44008152D02*
X84073809Y-44055771D01*
X84073809Y-44055771D02*
X83978571Y-44103390D01*
X83978571Y-44103390D02*
X83788095Y-44103390D01*
X83788095Y-44103390D02*
X83692857Y-44151009D01*
X83692857Y-44151009D02*
X83645238Y-44198628D01*
X83645238Y-44198628D02*
X83597619Y-44293866D01*
X83597619Y-44293866D02*
X83597619Y-44484342D01*
X83597619Y-44484342D02*
X83645238Y-44579580D01*
X83645238Y-44579580D02*
X83692857Y-44627200D01*
X83692857Y-44627200D02*
X83788095Y-44674819D01*
X83788095Y-44674819D02*
X83978571Y-44674819D01*
X83978571Y-44674819D02*
X84073809Y-44627200D01*
X84073809Y-44627200D02*
X84121428Y-44579580D01*
X84121428Y-44579580D02*
X84169047Y-44484342D01*
X84169047Y-44484342D02*
X84169047Y-44293866D01*
X84169047Y-44293866D02*
X84121428Y-44198628D01*
X84121428Y-44198628D02*
X84073809Y-44151009D01*
X84073809Y-44151009D02*
X83978571Y-44103390D01*
X60944285Y-43674819D02*
X60944285Y-44389104D01*
X60944285Y-44389104D02*
X60896666Y-44531961D01*
X60896666Y-44531961D02*
X60801428Y-44627200D01*
X60801428Y-44627200D02*
X60658571Y-44674819D01*
X60658571Y-44674819D02*
X60563333Y-44674819D01*
X61944285Y-44674819D02*
X61372857Y-44674819D01*
X61658571Y-44674819D02*
X61658571Y-43674819D01*
X61658571Y-43674819D02*
X61563333Y-43817676D01*
X61563333Y-43817676D02*
X61468095Y-43912914D01*
X61468095Y-43912914D02*
X61372857Y-43960533D01*
X62896666Y-44674819D02*
X62325238Y-44674819D01*
X62610952Y-44674819D02*
X62610952Y-43674819D01*
X62610952Y-43674819D02*
X62515714Y-43817676D01*
X62515714Y-43817676D02*
X62420476Y-43912914D01*
X62420476Y-43912914D02*
X62325238Y-43960533D01*
X63753809Y-44008152D02*
X63753809Y-44674819D01*
X63515714Y-43627200D02*
X63277619Y-44341485D01*
X63277619Y-44341485D02*
X63896666Y-44341485D01*
X16494285Y-10654819D02*
X16494285Y-11369104D01*
X16494285Y-11369104D02*
X16446666Y-11511961D01*
X16446666Y-11511961D02*
X16351428Y-11607200D01*
X16351428Y-11607200D02*
X16208571Y-11654819D01*
X16208571Y-11654819D02*
X16113333Y-11654819D01*
X17494285Y-11654819D02*
X16922857Y-11654819D01*
X17208571Y-11654819D02*
X17208571Y-10654819D01*
X17208571Y-10654819D02*
X17113333Y-10797676D01*
X17113333Y-10797676D02*
X17018095Y-10892914D01*
X17018095Y-10892914D02*
X16922857Y-10940533D01*
X17875238Y-10750057D02*
X17922857Y-10702438D01*
X17922857Y-10702438D02*
X18018095Y-10654819D01*
X18018095Y-10654819D02*
X18256190Y-10654819D01*
X18256190Y-10654819D02*
X18351428Y-10702438D01*
X18351428Y-10702438D02*
X18399047Y-10750057D01*
X18399047Y-10750057D02*
X18446666Y-10845295D01*
X18446666Y-10845295D02*
X18446666Y-10940533D01*
X18446666Y-10940533D02*
X18399047Y-11083390D01*
X18399047Y-11083390D02*
X17827619Y-11654819D01*
X17827619Y-11654819D02*
X18446666Y-11654819D01*
X19351428Y-10654819D02*
X18875238Y-10654819D01*
X18875238Y-10654819D02*
X18827619Y-11131009D01*
X18827619Y-11131009D02*
X18875238Y-11083390D01*
X18875238Y-11083390D02*
X18970476Y-11035771D01*
X18970476Y-11035771D02*
X19208571Y-11035771D01*
X19208571Y-11035771D02*
X19303809Y-11083390D01*
X19303809Y-11083390D02*
X19351428Y-11131009D01*
X19351428Y-11131009D02*
X19399047Y-11226247D01*
X19399047Y-11226247D02*
X19399047Y-11464342D01*
X19399047Y-11464342D02*
X19351428Y-11559580D01*
X19351428Y-11559580D02*
X19303809Y-11607200D01*
X19303809Y-11607200D02*
X19208571Y-11654819D01*
X19208571Y-11654819D02*
X18970476Y-11654819D01*
X18970476Y-11654819D02*
X18875238Y-11607200D01*
X18875238Y-11607200D02*
X18827619Y-11559580D01*
X8874285Y-10654819D02*
X8874285Y-11369104D01*
X8874285Y-11369104D02*
X8826666Y-11511961D01*
X8826666Y-11511961D02*
X8731428Y-11607200D01*
X8731428Y-11607200D02*
X8588571Y-11654819D01*
X8588571Y-11654819D02*
X8493333Y-11654819D01*
X9874285Y-11654819D02*
X9302857Y-11654819D01*
X9588571Y-11654819D02*
X9588571Y-10654819D01*
X9588571Y-10654819D02*
X9493333Y-10797676D01*
X9493333Y-10797676D02*
X9398095Y-10892914D01*
X9398095Y-10892914D02*
X9302857Y-10940533D01*
X10493333Y-10654819D02*
X10588571Y-10654819D01*
X10588571Y-10654819D02*
X10683809Y-10702438D01*
X10683809Y-10702438D02*
X10731428Y-10750057D01*
X10731428Y-10750057D02*
X10779047Y-10845295D01*
X10779047Y-10845295D02*
X10826666Y-11035771D01*
X10826666Y-11035771D02*
X10826666Y-11273866D01*
X10826666Y-11273866D02*
X10779047Y-11464342D01*
X10779047Y-11464342D02*
X10731428Y-11559580D01*
X10731428Y-11559580D02*
X10683809Y-11607200D01*
X10683809Y-11607200D02*
X10588571Y-11654819D01*
X10588571Y-11654819D02*
X10493333Y-11654819D01*
X10493333Y-11654819D02*
X10398095Y-11607200D01*
X10398095Y-11607200D02*
X10350476Y-11559580D01*
X10350476Y-11559580D02*
X10302857Y-11464342D01*
X10302857Y-11464342D02*
X10255238Y-11273866D01*
X10255238Y-11273866D02*
X10255238Y-11035771D01*
X10255238Y-11035771D02*
X10302857Y-10845295D01*
X10302857Y-10845295D02*
X10350476Y-10750057D01*
X10350476Y-10750057D02*
X10398095Y-10702438D01*
X10398095Y-10702438D02*
X10493333Y-10654819D01*
X11398095Y-11083390D02*
X11302857Y-11035771D01*
X11302857Y-11035771D02*
X11255238Y-10988152D01*
X11255238Y-10988152D02*
X11207619Y-10892914D01*
X11207619Y-10892914D02*
X11207619Y-10845295D01*
X11207619Y-10845295D02*
X11255238Y-10750057D01*
X11255238Y-10750057D02*
X11302857Y-10702438D01*
X11302857Y-10702438D02*
X11398095Y-10654819D01*
X11398095Y-10654819D02*
X11588571Y-10654819D01*
X11588571Y-10654819D02*
X11683809Y-10702438D01*
X11683809Y-10702438D02*
X11731428Y-10750057D01*
X11731428Y-10750057D02*
X11779047Y-10845295D01*
X11779047Y-10845295D02*
X11779047Y-10892914D01*
X11779047Y-10892914D02*
X11731428Y-10988152D01*
X11731428Y-10988152D02*
X11683809Y-11035771D01*
X11683809Y-11035771D02*
X11588571Y-11083390D01*
X11588571Y-11083390D02*
X11398095Y-11083390D01*
X11398095Y-11083390D02*
X11302857Y-11131009D01*
X11302857Y-11131009D02*
X11255238Y-11178628D01*
X11255238Y-11178628D02*
X11207619Y-11273866D01*
X11207619Y-11273866D02*
X11207619Y-11464342D01*
X11207619Y-11464342D02*
X11255238Y-11559580D01*
X11255238Y-11559580D02*
X11302857Y-11607200D01*
X11302857Y-11607200D02*
X11398095Y-11654819D01*
X11398095Y-11654819D02*
X11588571Y-11654819D01*
X11588571Y-11654819D02*
X11683809Y-11607200D01*
X11683809Y-11607200D02*
X11731428Y-11559580D01*
X11731428Y-11559580D02*
X11779047Y-11464342D01*
X11779047Y-11464342D02*
X11779047Y-11273866D01*
X11779047Y-11273866D02*
X11731428Y-11178628D01*
X11731428Y-11178628D02*
X11683809Y-11131009D01*
X11683809Y-11131009D02*
X11588571Y-11083390D01*
X13954285Y-8114819D02*
X13954285Y-8829104D01*
X13954285Y-8829104D02*
X13906666Y-8971961D01*
X13906666Y-8971961D02*
X13811428Y-9067200D01*
X13811428Y-9067200D02*
X13668571Y-9114819D01*
X13668571Y-9114819D02*
X13573333Y-9114819D01*
X14954285Y-9114819D02*
X14382857Y-9114819D01*
X14668571Y-9114819D02*
X14668571Y-8114819D01*
X14668571Y-8114819D02*
X14573333Y-8257676D01*
X14573333Y-8257676D02*
X14478095Y-8352914D01*
X14478095Y-8352914D02*
X14382857Y-8400533D01*
X15287619Y-8114819D02*
X15906666Y-8114819D01*
X15906666Y-8114819D02*
X15573333Y-8495771D01*
X15573333Y-8495771D02*
X15716190Y-8495771D01*
X15716190Y-8495771D02*
X15811428Y-8543390D01*
X15811428Y-8543390D02*
X15859047Y-8591009D01*
X15859047Y-8591009D02*
X15906666Y-8686247D01*
X15906666Y-8686247D02*
X15906666Y-8924342D01*
X15906666Y-8924342D02*
X15859047Y-9019580D01*
X15859047Y-9019580D02*
X15811428Y-9067200D01*
X15811428Y-9067200D02*
X15716190Y-9114819D01*
X15716190Y-9114819D02*
X15430476Y-9114819D01*
X15430476Y-9114819D02*
X15335238Y-9067200D01*
X15335238Y-9067200D02*
X15287619Y-9019580D01*
X16859047Y-9114819D02*
X16287619Y-9114819D01*
X16573333Y-9114819D02*
X16573333Y-8114819D01*
X16573333Y-8114819D02*
X16478095Y-8257676D01*
X16478095Y-8257676D02*
X16382857Y-8352914D01*
X16382857Y-8352914D02*
X16287619Y-8400533D01*
X23354819Y-68595714D02*
X24069104Y-68595714D01*
X24069104Y-68595714D02*
X24211961Y-68643333D01*
X24211961Y-68643333D02*
X24307200Y-68738571D01*
X24307200Y-68738571D02*
X24354819Y-68881428D01*
X24354819Y-68881428D02*
X24354819Y-68976666D01*
X24354819Y-67595714D02*
X24354819Y-68167142D01*
X24354819Y-67881428D02*
X23354819Y-67881428D01*
X23354819Y-67881428D02*
X23497676Y-67976666D01*
X23497676Y-67976666D02*
X23592914Y-68071904D01*
X23592914Y-68071904D02*
X23640533Y-68167142D01*
X23354819Y-66976666D02*
X23354819Y-66881428D01*
X23354819Y-66881428D02*
X23402438Y-66786190D01*
X23402438Y-66786190D02*
X23450057Y-66738571D01*
X23450057Y-66738571D02*
X23545295Y-66690952D01*
X23545295Y-66690952D02*
X23735771Y-66643333D01*
X23735771Y-66643333D02*
X23973866Y-66643333D01*
X23973866Y-66643333D02*
X24164342Y-66690952D01*
X24164342Y-66690952D02*
X24259580Y-66738571D01*
X24259580Y-66738571D02*
X24307200Y-66786190D01*
X24307200Y-66786190D02*
X24354819Y-66881428D01*
X24354819Y-66881428D02*
X24354819Y-66976666D01*
X24354819Y-66976666D02*
X24307200Y-67071904D01*
X24307200Y-67071904D02*
X24259580Y-67119523D01*
X24259580Y-67119523D02*
X24164342Y-67167142D01*
X24164342Y-67167142D02*
X23973866Y-67214761D01*
X23973866Y-67214761D02*
X23735771Y-67214761D01*
X23735771Y-67214761D02*
X23545295Y-67167142D01*
X23545295Y-67167142D02*
X23450057Y-67119523D01*
X23450057Y-67119523D02*
X23402438Y-67071904D01*
X23402438Y-67071904D02*
X23354819Y-66976666D01*
X23688152Y-65786190D02*
X24354819Y-65786190D01*
X23307200Y-66024285D02*
X24021485Y-66262380D01*
X24021485Y-66262380D02*
X24021485Y-65643333D01*
X16494285Y-28434819D02*
X16494285Y-29149104D01*
X16494285Y-29149104D02*
X16446666Y-29291961D01*
X16446666Y-29291961D02*
X16351428Y-29387200D01*
X16351428Y-29387200D02*
X16208571Y-29434819D01*
X16208571Y-29434819D02*
X16113333Y-29434819D01*
X17494285Y-29434819D02*
X16922857Y-29434819D01*
X17208571Y-29434819D02*
X17208571Y-28434819D01*
X17208571Y-28434819D02*
X17113333Y-28577676D01*
X17113333Y-28577676D02*
X17018095Y-28672914D01*
X17018095Y-28672914D02*
X16922857Y-28720533D01*
X17827619Y-28434819D02*
X18446666Y-28434819D01*
X18446666Y-28434819D02*
X18113333Y-28815771D01*
X18113333Y-28815771D02*
X18256190Y-28815771D01*
X18256190Y-28815771D02*
X18351428Y-28863390D01*
X18351428Y-28863390D02*
X18399047Y-28911009D01*
X18399047Y-28911009D02*
X18446666Y-29006247D01*
X18446666Y-29006247D02*
X18446666Y-29244342D01*
X18446666Y-29244342D02*
X18399047Y-29339580D01*
X18399047Y-29339580D02*
X18351428Y-29387200D01*
X18351428Y-29387200D02*
X18256190Y-29434819D01*
X18256190Y-29434819D02*
X17970476Y-29434819D01*
X17970476Y-29434819D02*
X17875238Y-29387200D01*
X17875238Y-29387200D02*
X17827619Y-29339580D01*
X19351428Y-28434819D02*
X18875238Y-28434819D01*
X18875238Y-28434819D02*
X18827619Y-28911009D01*
X18827619Y-28911009D02*
X18875238Y-28863390D01*
X18875238Y-28863390D02*
X18970476Y-28815771D01*
X18970476Y-28815771D02*
X19208571Y-28815771D01*
X19208571Y-28815771D02*
X19303809Y-28863390D01*
X19303809Y-28863390D02*
X19351428Y-28911009D01*
X19351428Y-28911009D02*
X19399047Y-29006247D01*
X19399047Y-29006247D02*
X19399047Y-29244342D01*
X19399047Y-29244342D02*
X19351428Y-29339580D01*
X19351428Y-29339580D02*
X19303809Y-29387200D01*
X19303809Y-29387200D02*
X19208571Y-29434819D01*
X19208571Y-29434819D02*
X18970476Y-29434819D01*
X18970476Y-29434819D02*
X18875238Y-29387200D01*
X18875238Y-29387200D02*
X18827619Y-29339580D01*
X11414285Y-33514819D02*
X11414285Y-34229104D01*
X11414285Y-34229104D02*
X11366666Y-34371961D01*
X11366666Y-34371961D02*
X11271428Y-34467200D01*
X11271428Y-34467200D02*
X11128571Y-34514819D01*
X11128571Y-34514819D02*
X11033333Y-34514819D01*
X12414285Y-34514819D02*
X11842857Y-34514819D01*
X12128571Y-34514819D02*
X12128571Y-33514819D01*
X12128571Y-33514819D02*
X12033333Y-33657676D01*
X12033333Y-33657676D02*
X11938095Y-33752914D01*
X11938095Y-33752914D02*
X11842857Y-33800533D01*
X13271428Y-33848152D02*
X13271428Y-34514819D01*
X13033333Y-33467200D02*
X12795238Y-34181485D01*
X12795238Y-34181485D02*
X13414285Y-34181485D01*
X13985714Y-33514819D02*
X14080952Y-33514819D01*
X14080952Y-33514819D02*
X14176190Y-33562438D01*
X14176190Y-33562438D02*
X14223809Y-33610057D01*
X14223809Y-33610057D02*
X14271428Y-33705295D01*
X14271428Y-33705295D02*
X14319047Y-33895771D01*
X14319047Y-33895771D02*
X14319047Y-34133866D01*
X14319047Y-34133866D02*
X14271428Y-34324342D01*
X14271428Y-34324342D02*
X14223809Y-34419580D01*
X14223809Y-34419580D02*
X14176190Y-34467200D01*
X14176190Y-34467200D02*
X14080952Y-34514819D01*
X14080952Y-34514819D02*
X13985714Y-34514819D01*
X13985714Y-34514819D02*
X13890476Y-34467200D01*
X13890476Y-34467200D02*
X13842857Y-34419580D01*
X13842857Y-34419580D02*
X13795238Y-34324342D01*
X13795238Y-34324342D02*
X13747619Y-34133866D01*
X13747619Y-34133866D02*
X13747619Y-33895771D01*
X13747619Y-33895771D02*
X13795238Y-33705295D01*
X13795238Y-33705295D02*
X13842857Y-33610057D01*
X13842857Y-33610057D02*
X13890476Y-33562438D01*
X13890476Y-33562438D02*
X13985714Y-33514819D01*
X11414285Y-13194819D02*
X11414285Y-13909104D01*
X11414285Y-13909104D02*
X11366666Y-14051961D01*
X11366666Y-14051961D02*
X11271428Y-14147200D01*
X11271428Y-14147200D02*
X11128571Y-14194819D01*
X11128571Y-14194819D02*
X11033333Y-14194819D01*
X12414285Y-14194819D02*
X11842857Y-14194819D01*
X12128571Y-14194819D02*
X12128571Y-13194819D01*
X12128571Y-13194819D02*
X12033333Y-13337676D01*
X12033333Y-13337676D02*
X11938095Y-13432914D01*
X11938095Y-13432914D02*
X11842857Y-13480533D01*
X12795238Y-13290057D02*
X12842857Y-13242438D01*
X12842857Y-13242438D02*
X12938095Y-13194819D01*
X12938095Y-13194819D02*
X13176190Y-13194819D01*
X13176190Y-13194819D02*
X13271428Y-13242438D01*
X13271428Y-13242438D02*
X13319047Y-13290057D01*
X13319047Y-13290057D02*
X13366666Y-13385295D01*
X13366666Y-13385295D02*
X13366666Y-13480533D01*
X13366666Y-13480533D02*
X13319047Y-13623390D01*
X13319047Y-13623390D02*
X12747619Y-14194819D01*
X12747619Y-14194819D02*
X13366666Y-14194819D01*
X13747619Y-13290057D02*
X13795238Y-13242438D01*
X13795238Y-13242438D02*
X13890476Y-13194819D01*
X13890476Y-13194819D02*
X14128571Y-13194819D01*
X14128571Y-13194819D02*
X14223809Y-13242438D01*
X14223809Y-13242438D02*
X14271428Y-13290057D01*
X14271428Y-13290057D02*
X14319047Y-13385295D01*
X14319047Y-13385295D02*
X14319047Y-13480533D01*
X14319047Y-13480533D02*
X14271428Y-13623390D01*
X14271428Y-13623390D02*
X13700000Y-14194819D01*
X13700000Y-14194819D02*
X14319047Y-14194819D01*
X11414285Y-23354819D02*
X11414285Y-24069104D01*
X11414285Y-24069104D02*
X11366666Y-24211961D01*
X11366666Y-24211961D02*
X11271428Y-24307200D01*
X11271428Y-24307200D02*
X11128571Y-24354819D01*
X11128571Y-24354819D02*
X11033333Y-24354819D01*
X12414285Y-24354819D02*
X11842857Y-24354819D01*
X12128571Y-24354819D02*
X12128571Y-23354819D01*
X12128571Y-23354819D02*
X12033333Y-23497676D01*
X12033333Y-23497676D02*
X11938095Y-23592914D01*
X11938095Y-23592914D02*
X11842857Y-23640533D01*
X12747619Y-23354819D02*
X13366666Y-23354819D01*
X13366666Y-23354819D02*
X13033333Y-23735771D01*
X13033333Y-23735771D02*
X13176190Y-23735771D01*
X13176190Y-23735771D02*
X13271428Y-23783390D01*
X13271428Y-23783390D02*
X13319047Y-23831009D01*
X13319047Y-23831009D02*
X13366666Y-23926247D01*
X13366666Y-23926247D02*
X13366666Y-24164342D01*
X13366666Y-24164342D02*
X13319047Y-24259580D01*
X13319047Y-24259580D02*
X13271428Y-24307200D01*
X13271428Y-24307200D02*
X13176190Y-24354819D01*
X13176190Y-24354819D02*
X12890476Y-24354819D01*
X12890476Y-24354819D02*
X12795238Y-24307200D01*
X12795238Y-24307200D02*
X12747619Y-24259580D01*
X13938095Y-23783390D02*
X13842857Y-23735771D01*
X13842857Y-23735771D02*
X13795238Y-23688152D01*
X13795238Y-23688152D02*
X13747619Y-23592914D01*
X13747619Y-23592914D02*
X13747619Y-23545295D01*
X13747619Y-23545295D02*
X13795238Y-23450057D01*
X13795238Y-23450057D02*
X13842857Y-23402438D01*
X13842857Y-23402438D02*
X13938095Y-23354819D01*
X13938095Y-23354819D02*
X14128571Y-23354819D01*
X14128571Y-23354819D02*
X14223809Y-23402438D01*
X14223809Y-23402438D02*
X14271428Y-23450057D01*
X14271428Y-23450057D02*
X14319047Y-23545295D01*
X14319047Y-23545295D02*
X14319047Y-23592914D01*
X14319047Y-23592914D02*
X14271428Y-23688152D01*
X14271428Y-23688152D02*
X14223809Y-23735771D01*
X14223809Y-23735771D02*
X14128571Y-23783390D01*
X14128571Y-23783390D02*
X13938095Y-23783390D01*
X13938095Y-23783390D02*
X13842857Y-23831009D01*
X13842857Y-23831009D02*
X13795238Y-23878628D01*
X13795238Y-23878628D02*
X13747619Y-23973866D01*
X13747619Y-23973866D02*
X13747619Y-24164342D01*
X13747619Y-24164342D02*
X13795238Y-24259580D01*
X13795238Y-24259580D02*
X13842857Y-24307200D01*
X13842857Y-24307200D02*
X13938095Y-24354819D01*
X13938095Y-24354819D02*
X14128571Y-24354819D01*
X14128571Y-24354819D02*
X14223809Y-24307200D01*
X14223809Y-24307200D02*
X14271428Y-24259580D01*
X14271428Y-24259580D02*
X14319047Y-24164342D01*
X14319047Y-24164342D02*
X14319047Y-23973866D01*
X14319047Y-23973866D02*
X14271428Y-23878628D01*
X14271428Y-23878628D02*
X14223809Y-23831009D01*
X14223809Y-23831009D02*
X14128571Y-23783390D01*
X79544104Y-57536666D02*
X79544104Y-57060476D01*
X79829819Y-57631904D02*
X78829819Y-57298571D01*
X78829819Y-57298571D02*
X79829819Y-56965238D01*
X79829819Y-56108095D02*
X79829819Y-56679523D01*
X79829819Y-56393809D02*
X78829819Y-56393809D01*
X78829819Y-56393809D02*
X78972676Y-56489047D01*
X78972676Y-56489047D02*
X79067914Y-56584285D01*
X79067914Y-56584285D02*
X79115533Y-56679523D01*
X78829819Y-55489047D02*
X78829819Y-55393809D01*
X78829819Y-55393809D02*
X78877438Y-55298571D01*
X78877438Y-55298571D02*
X78925057Y-55250952D01*
X78925057Y-55250952D02*
X79020295Y-55203333D01*
X79020295Y-55203333D02*
X79210771Y-55155714D01*
X79210771Y-55155714D02*
X79448866Y-55155714D01*
X79448866Y-55155714D02*
X79639342Y-55203333D01*
X79639342Y-55203333D02*
X79734580Y-55250952D01*
X79734580Y-55250952D02*
X79782200Y-55298571D01*
X79782200Y-55298571D02*
X79829819Y-55393809D01*
X79829819Y-55393809D02*
X79829819Y-55489047D01*
X79829819Y-55489047D02*
X79782200Y-55584285D01*
X79782200Y-55584285D02*
X79734580Y-55631904D01*
X79734580Y-55631904D02*
X79639342Y-55679523D01*
X79639342Y-55679523D02*
X79448866Y-55727142D01*
X79448866Y-55727142D02*
X79210771Y-55727142D01*
X79210771Y-55727142D02*
X79020295Y-55679523D01*
X79020295Y-55679523D02*
X78925057Y-55631904D01*
X78925057Y-55631904D02*
X78877438Y-55584285D01*
X78877438Y-55584285D02*
X78829819Y-55489047D01*
X79163152Y-54298571D02*
X79829819Y-54298571D01*
X78782200Y-54536666D02*
X79496485Y-54774761D01*
X79496485Y-54774761D02*
X79496485Y-54155714D01*
X22844285Y-43674819D02*
X22844285Y-44389104D01*
X22844285Y-44389104D02*
X22796666Y-44531961D01*
X22796666Y-44531961D02*
X22701428Y-44627200D01*
X22701428Y-44627200D02*
X22558571Y-44674819D01*
X22558571Y-44674819D02*
X22463333Y-44674819D01*
X23844285Y-44674819D02*
X23272857Y-44674819D01*
X23558571Y-44674819D02*
X23558571Y-43674819D01*
X23558571Y-43674819D02*
X23463333Y-43817676D01*
X23463333Y-43817676D02*
X23368095Y-43912914D01*
X23368095Y-43912914D02*
X23272857Y-43960533D01*
X24463333Y-43674819D02*
X24558571Y-43674819D01*
X24558571Y-43674819D02*
X24653809Y-43722438D01*
X24653809Y-43722438D02*
X24701428Y-43770057D01*
X24701428Y-43770057D02*
X24749047Y-43865295D01*
X24749047Y-43865295D02*
X24796666Y-44055771D01*
X24796666Y-44055771D02*
X24796666Y-44293866D01*
X24796666Y-44293866D02*
X24749047Y-44484342D01*
X24749047Y-44484342D02*
X24701428Y-44579580D01*
X24701428Y-44579580D02*
X24653809Y-44627200D01*
X24653809Y-44627200D02*
X24558571Y-44674819D01*
X24558571Y-44674819D02*
X24463333Y-44674819D01*
X24463333Y-44674819D02*
X24368095Y-44627200D01*
X24368095Y-44627200D02*
X24320476Y-44579580D01*
X24320476Y-44579580D02*
X24272857Y-44484342D01*
X24272857Y-44484342D02*
X24225238Y-44293866D01*
X24225238Y-44293866D02*
X24225238Y-44055771D01*
X24225238Y-44055771D02*
X24272857Y-43865295D01*
X24272857Y-43865295D02*
X24320476Y-43770057D01*
X24320476Y-43770057D02*
X24368095Y-43722438D01*
X24368095Y-43722438D02*
X24463333Y-43674819D01*
X25653809Y-43674819D02*
X25463333Y-43674819D01*
X25463333Y-43674819D02*
X25368095Y-43722438D01*
X25368095Y-43722438D02*
X25320476Y-43770057D01*
X25320476Y-43770057D02*
X25225238Y-43912914D01*
X25225238Y-43912914D02*
X25177619Y-44103390D01*
X25177619Y-44103390D02*
X25177619Y-44484342D01*
X25177619Y-44484342D02*
X25225238Y-44579580D01*
X25225238Y-44579580D02*
X25272857Y-44627200D01*
X25272857Y-44627200D02*
X25368095Y-44674819D01*
X25368095Y-44674819D02*
X25558571Y-44674819D01*
X25558571Y-44674819D02*
X25653809Y-44627200D01*
X25653809Y-44627200D02*
X25701428Y-44579580D01*
X25701428Y-44579580D02*
X25749047Y-44484342D01*
X25749047Y-44484342D02*
X25749047Y-44246247D01*
X25749047Y-44246247D02*
X25701428Y-44151009D01*
X25701428Y-44151009D02*
X25653809Y-44103390D01*
X25653809Y-44103390D02*
X25558571Y-44055771D01*
X25558571Y-44055771D02*
X25368095Y-44055771D01*
X25368095Y-44055771D02*
X25272857Y-44103390D01*
X25272857Y-44103390D02*
X25225238Y-44151009D01*
X25225238Y-44151009D02*
X25177619Y-44246247D01*
X11414285Y-20814819D02*
X11414285Y-21529104D01*
X11414285Y-21529104D02*
X11366666Y-21671961D01*
X11366666Y-21671961D02*
X11271428Y-21767200D01*
X11271428Y-21767200D02*
X11128571Y-21814819D01*
X11128571Y-21814819D02*
X11033333Y-21814819D01*
X12414285Y-21814819D02*
X11842857Y-21814819D01*
X12128571Y-21814819D02*
X12128571Y-20814819D01*
X12128571Y-20814819D02*
X12033333Y-20957676D01*
X12033333Y-20957676D02*
X11938095Y-21052914D01*
X11938095Y-21052914D02*
X11842857Y-21100533D01*
X12795238Y-20910057D02*
X12842857Y-20862438D01*
X12842857Y-20862438D02*
X12938095Y-20814819D01*
X12938095Y-20814819D02*
X13176190Y-20814819D01*
X13176190Y-20814819D02*
X13271428Y-20862438D01*
X13271428Y-20862438D02*
X13319047Y-20910057D01*
X13319047Y-20910057D02*
X13366666Y-21005295D01*
X13366666Y-21005295D02*
X13366666Y-21100533D01*
X13366666Y-21100533D02*
X13319047Y-21243390D01*
X13319047Y-21243390D02*
X12747619Y-21814819D01*
X12747619Y-21814819D02*
X13366666Y-21814819D01*
X13842857Y-21814819D02*
X14033333Y-21814819D01*
X14033333Y-21814819D02*
X14128571Y-21767200D01*
X14128571Y-21767200D02*
X14176190Y-21719580D01*
X14176190Y-21719580D02*
X14271428Y-21576723D01*
X14271428Y-21576723D02*
X14319047Y-21386247D01*
X14319047Y-21386247D02*
X14319047Y-21005295D01*
X14319047Y-21005295D02*
X14271428Y-20910057D01*
X14271428Y-20910057D02*
X14223809Y-20862438D01*
X14223809Y-20862438D02*
X14128571Y-20814819D01*
X14128571Y-20814819D02*
X13938095Y-20814819D01*
X13938095Y-20814819D02*
X13842857Y-20862438D01*
X13842857Y-20862438D02*
X13795238Y-20910057D01*
X13795238Y-20910057D02*
X13747619Y-21005295D01*
X13747619Y-21005295D02*
X13747619Y-21243390D01*
X13747619Y-21243390D02*
X13795238Y-21338628D01*
X13795238Y-21338628D02*
X13842857Y-21386247D01*
X13842857Y-21386247D02*
X13938095Y-21433866D01*
X13938095Y-21433866D02*
X14128571Y-21433866D01*
X14128571Y-21433866D02*
X14223809Y-21386247D01*
X14223809Y-21386247D02*
X14271428Y-21338628D01*
X14271428Y-21338628D02*
X14319047Y-21243390D01*
X63994819Y-68595714D02*
X64709104Y-68595714D01*
X64709104Y-68595714D02*
X64851961Y-68643333D01*
X64851961Y-68643333D02*
X64947200Y-68738571D01*
X64947200Y-68738571D02*
X64994819Y-68881428D01*
X64994819Y-68881428D02*
X64994819Y-68976666D01*
X64994819Y-67595714D02*
X64994819Y-68167142D01*
X64994819Y-67881428D02*
X63994819Y-67881428D01*
X63994819Y-67881428D02*
X64137676Y-67976666D01*
X64137676Y-67976666D02*
X64232914Y-68071904D01*
X64232914Y-68071904D02*
X64280533Y-68167142D01*
X64994819Y-66643333D02*
X64994819Y-67214761D01*
X64994819Y-66929047D02*
X63994819Y-66929047D01*
X63994819Y-66929047D02*
X64137676Y-67024285D01*
X64137676Y-67024285D02*
X64232914Y-67119523D01*
X64232914Y-67119523D02*
X64280533Y-67214761D01*
X63994819Y-65738571D02*
X63994819Y-66214761D01*
X63994819Y-66214761D02*
X64471009Y-66262380D01*
X64471009Y-66262380D02*
X64423390Y-66214761D01*
X64423390Y-66214761D02*
X64375771Y-66119523D01*
X64375771Y-66119523D02*
X64375771Y-65881428D01*
X64375771Y-65881428D02*
X64423390Y-65786190D01*
X64423390Y-65786190D02*
X64471009Y-65738571D01*
X64471009Y-65738571D02*
X64566247Y-65690952D01*
X64566247Y-65690952D02*
X64804342Y-65690952D01*
X64804342Y-65690952D02*
X64899580Y-65738571D01*
X64899580Y-65738571D02*
X64947200Y-65786190D01*
X64947200Y-65786190D02*
X64994819Y-65881428D01*
X64994819Y-65881428D02*
X64994819Y-66119523D01*
X64994819Y-66119523D02*
X64947200Y-66214761D01*
X64947200Y-66214761D02*
X64899580Y-66262380D01*
X19219104Y-57546666D02*
X19219104Y-57070476D01*
X19504819Y-57641904D02*
X18504819Y-57308571D01*
X18504819Y-57308571D02*
X19504819Y-56975238D01*
X19504819Y-56118095D02*
X19504819Y-56689523D01*
X19504819Y-56403809D02*
X18504819Y-56403809D01*
X18504819Y-56403809D02*
X18647676Y-56499047D01*
X18647676Y-56499047D02*
X18742914Y-56594285D01*
X18742914Y-56594285D02*
X18790533Y-56689523D01*
X18504819Y-55499047D02*
X18504819Y-55403809D01*
X18504819Y-55403809D02*
X18552438Y-55308571D01*
X18552438Y-55308571D02*
X18600057Y-55260952D01*
X18600057Y-55260952D02*
X18695295Y-55213333D01*
X18695295Y-55213333D02*
X18885771Y-55165714D01*
X18885771Y-55165714D02*
X19123866Y-55165714D01*
X19123866Y-55165714D02*
X19314342Y-55213333D01*
X19314342Y-55213333D02*
X19409580Y-55260952D01*
X19409580Y-55260952D02*
X19457200Y-55308571D01*
X19457200Y-55308571D02*
X19504819Y-55403809D01*
X19504819Y-55403809D02*
X19504819Y-55499047D01*
X19504819Y-55499047D02*
X19457200Y-55594285D01*
X19457200Y-55594285D02*
X19409580Y-55641904D01*
X19409580Y-55641904D02*
X19314342Y-55689523D01*
X19314342Y-55689523D02*
X19123866Y-55737142D01*
X19123866Y-55737142D02*
X18885771Y-55737142D01*
X18885771Y-55737142D02*
X18695295Y-55689523D01*
X18695295Y-55689523D02*
X18600057Y-55641904D01*
X18600057Y-55641904D02*
X18552438Y-55594285D01*
X18552438Y-55594285D02*
X18504819Y-55499047D01*
X19504819Y-54213333D02*
X19504819Y-54784761D01*
X19504819Y-54499047D02*
X18504819Y-54499047D01*
X18504819Y-54499047D02*
X18647676Y-54594285D01*
X18647676Y-54594285D02*
X18742914Y-54689523D01*
X18742914Y-54689523D02*
X18790533Y-54784761D01*
X103285714Y-71254819D02*
X103285714Y-70254819D01*
X103285714Y-70731009D02*
X103857142Y-70731009D01*
X103857142Y-71254819D02*
X103857142Y-70254819D01*
X104857142Y-71254819D02*
X104285714Y-71254819D01*
X104571428Y-71254819D02*
X104571428Y-70254819D01*
X104571428Y-70254819D02*
X104476190Y-70397676D01*
X104476190Y-70397676D02*
X104380952Y-70492914D01*
X104380952Y-70492914D02*
X104285714Y-70540533D01*
X105476190Y-70254819D02*
X105571428Y-70254819D01*
X105571428Y-70254819D02*
X105666666Y-70302438D01*
X105666666Y-70302438D02*
X105714285Y-70350057D01*
X105714285Y-70350057D02*
X105761904Y-70445295D01*
X105761904Y-70445295D02*
X105809523Y-70635771D01*
X105809523Y-70635771D02*
X105809523Y-70873866D01*
X105809523Y-70873866D02*
X105761904Y-71064342D01*
X105761904Y-71064342D02*
X105714285Y-71159580D01*
X105714285Y-71159580D02*
X105666666Y-71207200D01*
X105666666Y-71207200D02*
X105571428Y-71254819D01*
X105571428Y-71254819D02*
X105476190Y-71254819D01*
X105476190Y-71254819D02*
X105380952Y-71207200D01*
X105380952Y-71207200D02*
X105333333Y-71159580D01*
X105333333Y-71159580D02*
X105285714Y-71064342D01*
X105285714Y-71064342D02*
X105238095Y-70873866D01*
X105238095Y-70873866D02*
X105238095Y-70635771D01*
X105238095Y-70635771D02*
X105285714Y-70445295D01*
X105285714Y-70445295D02*
X105333333Y-70350057D01*
X105333333Y-70350057D02*
X105380952Y-70302438D01*
X105380952Y-70302438D02*
X105476190Y-70254819D01*
X106666666Y-70588152D02*
X106666666Y-71254819D01*
X106428571Y-70207200D02*
X106190476Y-70921485D01*
X106190476Y-70921485D02*
X106809523Y-70921485D01*
X11414285Y-10654819D02*
X11414285Y-11369104D01*
X11414285Y-11369104D02*
X11366666Y-11511961D01*
X11366666Y-11511961D02*
X11271428Y-11607200D01*
X11271428Y-11607200D02*
X11128571Y-11654819D01*
X11128571Y-11654819D02*
X11033333Y-11654819D01*
X12414285Y-11654819D02*
X11842857Y-11654819D01*
X12128571Y-11654819D02*
X12128571Y-10654819D01*
X12128571Y-10654819D02*
X12033333Y-10797676D01*
X12033333Y-10797676D02*
X11938095Y-10892914D01*
X11938095Y-10892914D02*
X11842857Y-10940533D01*
X12795238Y-10750057D02*
X12842857Y-10702438D01*
X12842857Y-10702438D02*
X12938095Y-10654819D01*
X12938095Y-10654819D02*
X13176190Y-10654819D01*
X13176190Y-10654819D02*
X13271428Y-10702438D01*
X13271428Y-10702438D02*
X13319047Y-10750057D01*
X13319047Y-10750057D02*
X13366666Y-10845295D01*
X13366666Y-10845295D02*
X13366666Y-10940533D01*
X13366666Y-10940533D02*
X13319047Y-11083390D01*
X13319047Y-11083390D02*
X12747619Y-11654819D01*
X12747619Y-11654819D02*
X13366666Y-11654819D01*
X14319047Y-11654819D02*
X13747619Y-11654819D01*
X14033333Y-11654819D02*
X14033333Y-10654819D01*
X14033333Y-10654819D02*
X13938095Y-10797676D01*
X13938095Y-10797676D02*
X13842857Y-10892914D01*
X13842857Y-10892914D02*
X13747619Y-10940533D01*
X16494285Y-23354819D02*
X16494285Y-24069104D01*
X16494285Y-24069104D02*
X16446666Y-24211961D01*
X16446666Y-24211961D02*
X16351428Y-24307200D01*
X16351428Y-24307200D02*
X16208571Y-24354819D01*
X16208571Y-24354819D02*
X16113333Y-24354819D01*
X17494285Y-24354819D02*
X16922857Y-24354819D01*
X17208571Y-24354819D02*
X17208571Y-23354819D01*
X17208571Y-23354819D02*
X17113333Y-23497676D01*
X17113333Y-23497676D02*
X17018095Y-23592914D01*
X17018095Y-23592914D02*
X16922857Y-23640533D01*
X17875238Y-23450057D02*
X17922857Y-23402438D01*
X17922857Y-23402438D02*
X18018095Y-23354819D01*
X18018095Y-23354819D02*
X18256190Y-23354819D01*
X18256190Y-23354819D02*
X18351428Y-23402438D01*
X18351428Y-23402438D02*
X18399047Y-23450057D01*
X18399047Y-23450057D02*
X18446666Y-23545295D01*
X18446666Y-23545295D02*
X18446666Y-23640533D01*
X18446666Y-23640533D02*
X18399047Y-23783390D01*
X18399047Y-23783390D02*
X17827619Y-24354819D01*
X17827619Y-24354819D02*
X18446666Y-24354819D01*
X18780000Y-23354819D02*
X19446666Y-23354819D01*
X19446666Y-23354819D02*
X19018095Y-24354819D01*
X3285714Y-1254819D02*
X3285714Y-254819D01*
X3285714Y-731009D02*
X3857142Y-731009D01*
X3857142Y-1254819D02*
X3857142Y-254819D01*
X4857142Y-1254819D02*
X4285714Y-1254819D01*
X4571428Y-1254819D02*
X4571428Y-254819D01*
X4571428Y-254819D02*
X4476190Y-397676D01*
X4476190Y-397676D02*
X4380952Y-492914D01*
X4380952Y-492914D02*
X4285714Y-540533D01*
X5476190Y-254819D02*
X5571428Y-254819D01*
X5571428Y-254819D02*
X5666666Y-302438D01*
X5666666Y-302438D02*
X5714285Y-350057D01*
X5714285Y-350057D02*
X5761904Y-445295D01*
X5761904Y-445295D02*
X5809523Y-635771D01*
X5809523Y-635771D02*
X5809523Y-873866D01*
X5809523Y-873866D02*
X5761904Y-1064342D01*
X5761904Y-1064342D02*
X5714285Y-1159580D01*
X5714285Y-1159580D02*
X5666666Y-1207200D01*
X5666666Y-1207200D02*
X5571428Y-1254819D01*
X5571428Y-1254819D02*
X5476190Y-1254819D01*
X5476190Y-1254819D02*
X5380952Y-1207200D01*
X5380952Y-1207200D02*
X5333333Y-1159580D01*
X5333333Y-1159580D02*
X5285714Y-1064342D01*
X5285714Y-1064342D02*
X5238095Y-873866D01*
X5238095Y-873866D02*
X5238095Y-635771D01*
X5238095Y-635771D02*
X5285714Y-445295D01*
X5285714Y-445295D02*
X5333333Y-350057D01*
X5333333Y-350057D02*
X5380952Y-302438D01*
X5380952Y-302438D02*
X5476190Y-254819D01*
X6761904Y-1254819D02*
X6190476Y-1254819D01*
X6476190Y-1254819D02*
X6476190Y-254819D01*
X6476190Y-254819D02*
X6380952Y-397676D01*
X6380952Y-397676D02*
X6285714Y-492914D01*
X6285714Y-492914D02*
X6190476Y-540533D01*
X91424285Y-13194819D02*
X91424285Y-13909104D01*
X91424285Y-13909104D02*
X91376666Y-14051961D01*
X91376666Y-14051961D02*
X91281428Y-14147200D01*
X91281428Y-14147200D02*
X91138571Y-14194819D01*
X91138571Y-14194819D02*
X91043333Y-14194819D01*
X92424285Y-14194819D02*
X91852857Y-14194819D01*
X92138571Y-14194819D02*
X92138571Y-13194819D01*
X92138571Y-13194819D02*
X92043333Y-13337676D01*
X92043333Y-13337676D02*
X91948095Y-13432914D01*
X91948095Y-13432914D02*
X91852857Y-13480533D01*
X92805238Y-13290057D02*
X92852857Y-13242438D01*
X92852857Y-13242438D02*
X92948095Y-13194819D01*
X92948095Y-13194819D02*
X93186190Y-13194819D01*
X93186190Y-13194819D02*
X93281428Y-13242438D01*
X93281428Y-13242438D02*
X93329047Y-13290057D01*
X93329047Y-13290057D02*
X93376666Y-13385295D01*
X93376666Y-13385295D02*
X93376666Y-13480533D01*
X93376666Y-13480533D02*
X93329047Y-13623390D01*
X93329047Y-13623390D02*
X92757619Y-14194819D01*
X92757619Y-14194819D02*
X93376666Y-14194819D01*
X93995714Y-13194819D02*
X94090952Y-13194819D01*
X94090952Y-13194819D02*
X94186190Y-13242438D01*
X94186190Y-13242438D02*
X94233809Y-13290057D01*
X94233809Y-13290057D02*
X94281428Y-13385295D01*
X94281428Y-13385295D02*
X94329047Y-13575771D01*
X94329047Y-13575771D02*
X94329047Y-13813866D01*
X94329047Y-13813866D02*
X94281428Y-14004342D01*
X94281428Y-14004342D02*
X94233809Y-14099580D01*
X94233809Y-14099580D02*
X94186190Y-14147200D01*
X94186190Y-14147200D02*
X94090952Y-14194819D01*
X94090952Y-14194819D02*
X93995714Y-14194819D01*
X93995714Y-14194819D02*
X93900476Y-14147200D01*
X93900476Y-14147200D02*
X93852857Y-14099580D01*
X93852857Y-14099580D02*
X93805238Y-14004342D01*
X93805238Y-14004342D02*
X93757619Y-13813866D01*
X93757619Y-13813866D02*
X93757619Y-13575771D01*
X93757619Y-13575771D02*
X93805238Y-13385295D01*
X93805238Y-13385295D02*
X93852857Y-13290057D01*
X93852857Y-13290057D02*
X93900476Y-13242438D01*
X93900476Y-13242438D02*
X93995714Y-13194819D01*
X103285714Y-1254819D02*
X103285714Y-254819D01*
X103285714Y-731009D02*
X103857142Y-731009D01*
X103857142Y-1254819D02*
X103857142Y-254819D01*
X104857142Y-1254819D02*
X104285714Y-1254819D01*
X104571428Y-1254819D02*
X104571428Y-254819D01*
X104571428Y-254819D02*
X104476190Y-397676D01*
X104476190Y-397676D02*
X104380952Y-492914D01*
X104380952Y-492914D02*
X104285714Y-540533D01*
X105476190Y-254819D02*
X105571428Y-254819D01*
X105571428Y-254819D02*
X105666666Y-302438D01*
X105666666Y-302438D02*
X105714285Y-350057D01*
X105714285Y-350057D02*
X105761904Y-445295D01*
X105761904Y-445295D02*
X105809523Y-635771D01*
X105809523Y-635771D02*
X105809523Y-873866D01*
X105809523Y-873866D02*
X105761904Y-1064342D01*
X105761904Y-1064342D02*
X105714285Y-1159580D01*
X105714285Y-1159580D02*
X105666666Y-1207200D01*
X105666666Y-1207200D02*
X105571428Y-1254819D01*
X105571428Y-1254819D02*
X105476190Y-1254819D01*
X105476190Y-1254819D02*
X105380952Y-1207200D01*
X105380952Y-1207200D02*
X105333333Y-1159580D01*
X105333333Y-1159580D02*
X105285714Y-1064342D01*
X105285714Y-1064342D02*
X105238095Y-873866D01*
X105238095Y-873866D02*
X105238095Y-635771D01*
X105238095Y-635771D02*
X105285714Y-445295D01*
X105285714Y-445295D02*
X105333333Y-350057D01*
X105333333Y-350057D02*
X105380952Y-302438D01*
X105380952Y-302438D02*
X105476190Y-254819D01*
X106190476Y-350057D02*
X106238095Y-302438D01*
X106238095Y-302438D02*
X106333333Y-254819D01*
X106333333Y-254819D02*
X106571428Y-254819D01*
X106571428Y-254819D02*
X106666666Y-302438D01*
X106666666Y-302438D02*
X106714285Y-350057D01*
X106714285Y-350057D02*
X106761904Y-445295D01*
X106761904Y-445295D02*
X106761904Y-540533D01*
X106761904Y-540533D02*
X106714285Y-683390D01*
X106714285Y-683390D02*
X106142857Y-1254819D01*
X106142857Y-1254819D02*
X106761904Y-1254819D01*
X16494285Y-20814819D02*
X16494285Y-21529104D01*
X16494285Y-21529104D02*
X16446666Y-21671961D01*
X16446666Y-21671961D02*
X16351428Y-21767200D01*
X16351428Y-21767200D02*
X16208571Y-21814819D01*
X16208571Y-21814819D02*
X16113333Y-21814819D01*
X17494285Y-21814819D02*
X16922857Y-21814819D01*
X17208571Y-21814819D02*
X17208571Y-20814819D01*
X17208571Y-20814819D02*
X17113333Y-20957676D01*
X17113333Y-20957676D02*
X17018095Y-21052914D01*
X17018095Y-21052914D02*
X16922857Y-21100533D01*
X17827619Y-20814819D02*
X18446666Y-20814819D01*
X18446666Y-20814819D02*
X18113333Y-21195771D01*
X18113333Y-21195771D02*
X18256190Y-21195771D01*
X18256190Y-21195771D02*
X18351428Y-21243390D01*
X18351428Y-21243390D02*
X18399047Y-21291009D01*
X18399047Y-21291009D02*
X18446666Y-21386247D01*
X18446666Y-21386247D02*
X18446666Y-21624342D01*
X18446666Y-21624342D02*
X18399047Y-21719580D01*
X18399047Y-21719580D02*
X18351428Y-21767200D01*
X18351428Y-21767200D02*
X18256190Y-21814819D01*
X18256190Y-21814819D02*
X17970476Y-21814819D01*
X17970476Y-21814819D02*
X17875238Y-21767200D01*
X17875238Y-21767200D02*
X17827619Y-21719580D01*
X18780000Y-20814819D02*
X19399047Y-20814819D01*
X19399047Y-20814819D02*
X19065714Y-21195771D01*
X19065714Y-21195771D02*
X19208571Y-21195771D01*
X19208571Y-21195771D02*
X19303809Y-21243390D01*
X19303809Y-21243390D02*
X19351428Y-21291009D01*
X19351428Y-21291009D02*
X19399047Y-21386247D01*
X19399047Y-21386247D02*
X19399047Y-21624342D01*
X19399047Y-21624342D02*
X19351428Y-21719580D01*
X19351428Y-21719580D02*
X19303809Y-21767200D01*
X19303809Y-21767200D02*
X19208571Y-21814819D01*
X19208571Y-21814819D02*
X18922857Y-21814819D01*
X18922857Y-21814819D02*
X18827619Y-21767200D01*
X18827619Y-21767200D02*
X18780000Y-21719580D01*
X16494285Y-13194819D02*
X16494285Y-13909104D01*
X16494285Y-13909104D02*
X16446666Y-14051961D01*
X16446666Y-14051961D02*
X16351428Y-14147200D01*
X16351428Y-14147200D02*
X16208571Y-14194819D01*
X16208571Y-14194819D02*
X16113333Y-14194819D01*
X17494285Y-14194819D02*
X16922857Y-14194819D01*
X17208571Y-14194819D02*
X17208571Y-13194819D01*
X17208571Y-13194819D02*
X17113333Y-13337676D01*
X17113333Y-13337676D02*
X17018095Y-13432914D01*
X17018095Y-13432914D02*
X16922857Y-13480533D01*
X17827619Y-13194819D02*
X18446666Y-13194819D01*
X18446666Y-13194819D02*
X18113333Y-13575771D01*
X18113333Y-13575771D02*
X18256190Y-13575771D01*
X18256190Y-13575771D02*
X18351428Y-13623390D01*
X18351428Y-13623390D02*
X18399047Y-13671009D01*
X18399047Y-13671009D02*
X18446666Y-13766247D01*
X18446666Y-13766247D02*
X18446666Y-14004342D01*
X18446666Y-14004342D02*
X18399047Y-14099580D01*
X18399047Y-14099580D02*
X18351428Y-14147200D01*
X18351428Y-14147200D02*
X18256190Y-14194819D01*
X18256190Y-14194819D02*
X17970476Y-14194819D01*
X17970476Y-14194819D02*
X17875238Y-14147200D01*
X17875238Y-14147200D02*
X17827619Y-14099580D01*
X18827619Y-13290057D02*
X18875238Y-13242438D01*
X18875238Y-13242438D02*
X18970476Y-13194819D01*
X18970476Y-13194819D02*
X19208571Y-13194819D01*
X19208571Y-13194819D02*
X19303809Y-13242438D01*
X19303809Y-13242438D02*
X19351428Y-13290057D01*
X19351428Y-13290057D02*
X19399047Y-13385295D01*
X19399047Y-13385295D02*
X19399047Y-13480533D01*
X19399047Y-13480533D02*
X19351428Y-13623390D01*
X19351428Y-13623390D02*
X18780000Y-14194819D01*
X18780000Y-14194819D02*
X19399047Y-14194819D01*
X11414285Y-15734819D02*
X11414285Y-16449104D01*
X11414285Y-16449104D02*
X11366666Y-16591961D01*
X11366666Y-16591961D02*
X11271428Y-16687200D01*
X11271428Y-16687200D02*
X11128571Y-16734819D01*
X11128571Y-16734819D02*
X11033333Y-16734819D01*
X12414285Y-16734819D02*
X11842857Y-16734819D01*
X12128571Y-16734819D02*
X12128571Y-15734819D01*
X12128571Y-15734819D02*
X12033333Y-15877676D01*
X12033333Y-15877676D02*
X11938095Y-15972914D01*
X11938095Y-15972914D02*
X11842857Y-16020533D01*
X12795238Y-15830057D02*
X12842857Y-15782438D01*
X12842857Y-15782438D02*
X12938095Y-15734819D01*
X12938095Y-15734819D02*
X13176190Y-15734819D01*
X13176190Y-15734819D02*
X13271428Y-15782438D01*
X13271428Y-15782438D02*
X13319047Y-15830057D01*
X13319047Y-15830057D02*
X13366666Y-15925295D01*
X13366666Y-15925295D02*
X13366666Y-16020533D01*
X13366666Y-16020533D02*
X13319047Y-16163390D01*
X13319047Y-16163390D02*
X12747619Y-16734819D01*
X12747619Y-16734819D02*
X13366666Y-16734819D01*
X13700000Y-15734819D02*
X14319047Y-15734819D01*
X14319047Y-15734819D02*
X13985714Y-16115771D01*
X13985714Y-16115771D02*
X14128571Y-16115771D01*
X14128571Y-16115771D02*
X14223809Y-16163390D01*
X14223809Y-16163390D02*
X14271428Y-16211009D01*
X14271428Y-16211009D02*
X14319047Y-16306247D01*
X14319047Y-16306247D02*
X14319047Y-16544342D01*
X14319047Y-16544342D02*
X14271428Y-16639580D01*
X14271428Y-16639580D02*
X14223809Y-16687200D01*
X14223809Y-16687200D02*
X14128571Y-16734819D01*
X14128571Y-16734819D02*
X13842857Y-16734819D01*
X13842857Y-16734819D02*
X13747619Y-16687200D01*
X13747619Y-16687200D02*
X13700000Y-16639580D01*
X22844285Y-43674819D02*
X22844285Y-44389104D01*
X22844285Y-44389104D02*
X22796666Y-44531961D01*
X22796666Y-44531961D02*
X22701428Y-44627200D01*
X22701428Y-44627200D02*
X22558571Y-44674819D01*
X22558571Y-44674819D02*
X22463333Y-44674819D01*
X23844285Y-44674819D02*
X23272857Y-44674819D01*
X23558571Y-44674819D02*
X23558571Y-43674819D01*
X23558571Y-43674819D02*
X23463333Y-43817676D01*
X23463333Y-43817676D02*
X23368095Y-43912914D01*
X23368095Y-43912914D02*
X23272857Y-43960533D01*
X24463333Y-43674819D02*
X24558571Y-43674819D01*
X24558571Y-43674819D02*
X24653809Y-43722438D01*
X24653809Y-43722438D02*
X24701428Y-43770057D01*
X24701428Y-43770057D02*
X24749047Y-43865295D01*
X24749047Y-43865295D02*
X24796666Y-44055771D01*
X24796666Y-44055771D02*
X24796666Y-44293866D01*
X24796666Y-44293866D02*
X24749047Y-44484342D01*
X24749047Y-44484342D02*
X24701428Y-44579580D01*
X24701428Y-44579580D02*
X24653809Y-44627200D01*
X24653809Y-44627200D02*
X24558571Y-44674819D01*
X24558571Y-44674819D02*
X24463333Y-44674819D01*
X24463333Y-44674819D02*
X24368095Y-44627200D01*
X24368095Y-44627200D02*
X24320476Y-44579580D01*
X24320476Y-44579580D02*
X24272857Y-44484342D01*
X24272857Y-44484342D02*
X24225238Y-44293866D01*
X24225238Y-44293866D02*
X24225238Y-44055771D01*
X24225238Y-44055771D02*
X24272857Y-43865295D01*
X24272857Y-43865295D02*
X24320476Y-43770057D01*
X24320476Y-43770057D02*
X24368095Y-43722438D01*
X24368095Y-43722438D02*
X24463333Y-43674819D01*
X25130000Y-43674819D02*
X25796666Y-43674819D01*
X25796666Y-43674819D02*
X25368095Y-44674819D01*
X84314819Y-68570714D02*
X85029104Y-68570714D01*
X85029104Y-68570714D02*
X85171961Y-68618333D01*
X85171961Y-68618333D02*
X85267200Y-68713571D01*
X85267200Y-68713571D02*
X85314819Y-68856428D01*
X85314819Y-68856428D02*
X85314819Y-68951666D01*
X85314819Y-67570714D02*
X85314819Y-68142142D01*
X85314819Y-67856428D02*
X84314819Y-67856428D01*
X84314819Y-67856428D02*
X84457676Y-67951666D01*
X84457676Y-67951666D02*
X84552914Y-68046904D01*
X84552914Y-68046904D02*
X84600533Y-68142142D01*
X85314819Y-66618333D02*
X85314819Y-67189761D01*
X85314819Y-66904047D02*
X84314819Y-66904047D01*
X84314819Y-66904047D02*
X84457676Y-66999285D01*
X84457676Y-66999285D02*
X84552914Y-67094523D01*
X84552914Y-67094523D02*
X84600533Y-67189761D01*
X85314819Y-66142142D02*
X85314819Y-65951666D01*
X85314819Y-65951666D02*
X85267200Y-65856428D01*
X85267200Y-65856428D02*
X85219580Y-65808809D01*
X85219580Y-65808809D02*
X85076723Y-65713571D01*
X85076723Y-65713571D02*
X84886247Y-65665952D01*
X84886247Y-65665952D02*
X84505295Y-65665952D01*
X84505295Y-65665952D02*
X84410057Y-65713571D01*
X84410057Y-65713571D02*
X84362438Y-65761190D01*
X84362438Y-65761190D02*
X84314819Y-65856428D01*
X84314819Y-65856428D02*
X84314819Y-66046904D01*
X84314819Y-66046904D02*
X84362438Y-66142142D01*
X84362438Y-66142142D02*
X84410057Y-66189761D01*
X84410057Y-66189761D02*
X84505295Y-66237380D01*
X84505295Y-66237380D02*
X84743390Y-66237380D01*
X84743390Y-66237380D02*
X84838628Y-66189761D01*
X84838628Y-66189761D02*
X84886247Y-66142142D01*
X84886247Y-66142142D02*
X84933866Y-66046904D01*
X84933866Y-66046904D02*
X84933866Y-65856428D01*
X84933866Y-65856428D02*
X84886247Y-65761190D01*
X84886247Y-65761190D02*
X84838628Y-65713571D01*
X84838628Y-65713571D02*
X84743390Y-65665952D01*
X15524819Y-46839047D02*
X15048628Y-47172380D01*
X15524819Y-47410475D02*
X14524819Y-47410475D01*
X14524819Y-47410475D02*
X14524819Y-47029523D01*
X14524819Y-47029523D02*
X14572438Y-46934285D01*
X14572438Y-46934285D02*
X14620057Y-46886666D01*
X14620057Y-46886666D02*
X14715295Y-46839047D01*
X14715295Y-46839047D02*
X14858152Y-46839047D01*
X14858152Y-46839047D02*
X14953390Y-46886666D01*
X14953390Y-46886666D02*
X15001009Y-46934285D01*
X15001009Y-46934285D02*
X15048628Y-47029523D01*
X15048628Y-47029523D02*
X15048628Y-47410475D01*
X15524819Y-45886666D02*
X15524819Y-46458094D01*
X15524819Y-46172380D02*
X14524819Y-46172380D01*
X14524819Y-46172380D02*
X14667676Y-46267618D01*
X14667676Y-46267618D02*
X14762914Y-46362856D01*
X14762914Y-46362856D02*
X14810533Y-46458094D01*
X14524819Y-45267618D02*
X14524819Y-45172380D01*
X14524819Y-45172380D02*
X14572438Y-45077142D01*
X14572438Y-45077142D02*
X14620057Y-45029523D01*
X14620057Y-45029523D02*
X14715295Y-44981904D01*
X14715295Y-44981904D02*
X14905771Y-44934285D01*
X14905771Y-44934285D02*
X15143866Y-44934285D01*
X15143866Y-44934285D02*
X15334342Y-44981904D01*
X15334342Y-44981904D02*
X15429580Y-45029523D01*
X15429580Y-45029523D02*
X15477200Y-45077142D01*
X15477200Y-45077142D02*
X15524819Y-45172380D01*
X15524819Y-45172380D02*
X15524819Y-45267618D01*
X15524819Y-45267618D02*
X15477200Y-45362856D01*
X15477200Y-45362856D02*
X15429580Y-45410475D01*
X15429580Y-45410475D02*
X15334342Y-45458094D01*
X15334342Y-45458094D02*
X15143866Y-45505713D01*
X15143866Y-45505713D02*
X14905771Y-45505713D01*
X14905771Y-45505713D02*
X14715295Y-45458094D01*
X14715295Y-45458094D02*
X14620057Y-45410475D01*
X14620057Y-45410475D02*
X14572438Y-45362856D01*
X14572438Y-45362856D02*
X14524819Y-45267618D01*
X15524819Y-43981904D02*
X15524819Y-44553332D01*
X15524819Y-44267618D02*
X14524819Y-44267618D01*
X14524819Y-44267618D02*
X14667676Y-44362856D01*
X14667676Y-44362856D02*
X14762914Y-44458094D01*
X14762914Y-44458094D02*
X14810533Y-44553332D01*
X99044285Y-43674819D02*
X99044285Y-44389104D01*
X99044285Y-44389104D02*
X98996666Y-44531961D01*
X98996666Y-44531961D02*
X98901428Y-44627200D01*
X98901428Y-44627200D02*
X98758571Y-44674819D01*
X98758571Y-44674819D02*
X98663333Y-44674819D01*
X100044285Y-44674819D02*
X99472857Y-44674819D01*
X99758571Y-44674819D02*
X99758571Y-43674819D01*
X99758571Y-43674819D02*
X99663333Y-43817676D01*
X99663333Y-43817676D02*
X99568095Y-43912914D01*
X99568095Y-43912914D02*
X99472857Y-43960533D01*
X100663333Y-43674819D02*
X100758571Y-43674819D01*
X100758571Y-43674819D02*
X100853809Y-43722438D01*
X100853809Y-43722438D02*
X100901428Y-43770057D01*
X100901428Y-43770057D02*
X100949047Y-43865295D01*
X100949047Y-43865295D02*
X100996666Y-44055771D01*
X100996666Y-44055771D02*
X100996666Y-44293866D01*
X100996666Y-44293866D02*
X100949047Y-44484342D01*
X100949047Y-44484342D02*
X100901428Y-44579580D01*
X100901428Y-44579580D02*
X100853809Y-44627200D01*
X100853809Y-44627200D02*
X100758571Y-44674819D01*
X100758571Y-44674819D02*
X100663333Y-44674819D01*
X100663333Y-44674819D02*
X100568095Y-44627200D01*
X100568095Y-44627200D02*
X100520476Y-44579580D01*
X100520476Y-44579580D02*
X100472857Y-44484342D01*
X100472857Y-44484342D02*
X100425238Y-44293866D01*
X100425238Y-44293866D02*
X100425238Y-44055771D01*
X100425238Y-44055771D02*
X100472857Y-43865295D01*
X100472857Y-43865295D02*
X100520476Y-43770057D01*
X100520476Y-43770057D02*
X100568095Y-43722438D01*
X100568095Y-43722438D02*
X100663333Y-43674819D01*
X101901428Y-43674819D02*
X101425238Y-43674819D01*
X101425238Y-43674819D02*
X101377619Y-44151009D01*
X101377619Y-44151009D02*
X101425238Y-44103390D01*
X101425238Y-44103390D02*
X101520476Y-44055771D01*
X101520476Y-44055771D02*
X101758571Y-44055771D01*
X101758571Y-44055771D02*
X101853809Y-44103390D01*
X101853809Y-44103390D02*
X101901428Y-44151009D01*
X101901428Y-44151009D02*
X101949047Y-44246247D01*
X101949047Y-44246247D02*
X101949047Y-44484342D01*
X101949047Y-44484342D02*
X101901428Y-44579580D01*
X101901428Y-44579580D02*
X101853809Y-44627200D01*
X101853809Y-44627200D02*
X101758571Y-44674819D01*
X101758571Y-44674819D02*
X101520476Y-44674819D01*
X101520476Y-44674819D02*
X101425238Y-44627200D01*
X101425238Y-44627200D02*
X101377619Y-44579580D01*
D11*
X59245714Y-23587419D02*
X59245714Y-24396942D01*
X59245714Y-24396942D02*
X59293333Y-24492180D01*
X59293333Y-24492180D02*
X59340952Y-24539800D01*
X59340952Y-24539800D02*
X59436190Y-24587419D01*
X59436190Y-24587419D02*
X59626666Y-24587419D01*
X59626666Y-24587419D02*
X59721904Y-24539800D01*
X59721904Y-24539800D02*
X59769523Y-24492180D01*
X59769523Y-24492180D02*
X59817142Y-24396942D01*
X59817142Y-24396942D02*
X59817142Y-23587419D01*
X60817142Y-24587419D02*
X60245714Y-24587419D01*
X60531428Y-24587419D02*
X60531428Y-23587419D01*
X60531428Y-23587419D02*
X60436190Y-23730276D01*
X60436190Y-23730276D02*
X60340952Y-23825514D01*
X60340952Y-23825514D02*
X60245714Y-23873133D01*
X61436190Y-23587419D02*
X61531428Y-23587419D01*
X61531428Y-23587419D02*
X61626666Y-23635038D01*
X61626666Y-23635038D02*
X61674285Y-23682657D01*
X61674285Y-23682657D02*
X61721904Y-23777895D01*
X61721904Y-23777895D02*
X61769523Y-23968371D01*
X61769523Y-23968371D02*
X61769523Y-24206466D01*
X61769523Y-24206466D02*
X61721904Y-24396942D01*
X61721904Y-24396942D02*
X61674285Y-24492180D01*
X61674285Y-24492180D02*
X61626666Y-24539800D01*
X61626666Y-24539800D02*
X61531428Y-24587419D01*
X61531428Y-24587419D02*
X61436190Y-24587419D01*
X61436190Y-24587419D02*
X61340952Y-24539800D01*
X61340952Y-24539800D02*
X61293333Y-24492180D01*
X61293333Y-24492180D02*
X61245714Y-24396942D01*
X61245714Y-24396942D02*
X61198095Y-24206466D01*
X61198095Y-24206466D02*
X61198095Y-23968371D01*
X61198095Y-23968371D02*
X61245714Y-23777895D01*
X61245714Y-23777895D02*
X61293333Y-23682657D01*
X61293333Y-23682657D02*
X61340952Y-23635038D01*
X61340952Y-23635038D02*
X61436190Y-23587419D01*
X62721904Y-24587419D02*
X62150476Y-24587419D01*
X62436190Y-24587419D02*
X62436190Y-23587419D01*
X62436190Y-23587419D02*
X62340952Y-23730276D01*
X62340952Y-23730276D02*
X62245714Y-23825514D01*
X62245714Y-23825514D02*
X62150476Y-23873133D01*
D10*
X8874285Y-8114819D02*
X8874285Y-8829104D01*
X8874285Y-8829104D02*
X8826666Y-8971961D01*
X8826666Y-8971961D02*
X8731428Y-9067200D01*
X8731428Y-9067200D02*
X8588571Y-9114819D01*
X8588571Y-9114819D02*
X8493333Y-9114819D01*
X9874285Y-9114819D02*
X9302857Y-9114819D01*
X9588571Y-9114819D02*
X9588571Y-8114819D01*
X9588571Y-8114819D02*
X9493333Y-8257676D01*
X9493333Y-8257676D02*
X9398095Y-8352914D01*
X9398095Y-8352914D02*
X9302857Y-8400533D01*
X10826666Y-9114819D02*
X10255238Y-9114819D01*
X10540952Y-9114819D02*
X10540952Y-8114819D01*
X10540952Y-8114819D02*
X10445714Y-8257676D01*
X10445714Y-8257676D02*
X10350476Y-8352914D01*
X10350476Y-8352914D02*
X10255238Y-8400533D01*
X11207619Y-8210057D02*
X11255238Y-8162438D01*
X11255238Y-8162438D02*
X11350476Y-8114819D01*
X11350476Y-8114819D02*
X11588571Y-8114819D01*
X11588571Y-8114819D02*
X11683809Y-8162438D01*
X11683809Y-8162438D02*
X11731428Y-8210057D01*
X11731428Y-8210057D02*
X11779047Y-8305295D01*
X11779047Y-8305295D02*
X11779047Y-8400533D01*
X11779047Y-8400533D02*
X11731428Y-8543390D01*
X11731428Y-8543390D02*
X11160000Y-9114819D01*
X11160000Y-9114819D02*
X11779047Y-9114819D01*
X11414285Y-8114819D02*
X11414285Y-8829104D01*
X11414285Y-8829104D02*
X11366666Y-8971961D01*
X11366666Y-8971961D02*
X11271428Y-9067200D01*
X11271428Y-9067200D02*
X11128571Y-9114819D01*
X11128571Y-9114819D02*
X11033333Y-9114819D01*
X12414285Y-9114819D02*
X11842857Y-9114819D01*
X12128571Y-9114819D02*
X12128571Y-8114819D01*
X12128571Y-8114819D02*
X12033333Y-8257676D01*
X12033333Y-8257676D02*
X11938095Y-8352914D01*
X11938095Y-8352914D02*
X11842857Y-8400533D01*
X13033333Y-8114819D02*
X13128571Y-8114819D01*
X13128571Y-8114819D02*
X13223809Y-8162438D01*
X13223809Y-8162438D02*
X13271428Y-8210057D01*
X13271428Y-8210057D02*
X13319047Y-8305295D01*
X13319047Y-8305295D02*
X13366666Y-8495771D01*
X13366666Y-8495771D02*
X13366666Y-8733866D01*
X13366666Y-8733866D02*
X13319047Y-8924342D01*
X13319047Y-8924342D02*
X13271428Y-9019580D01*
X13271428Y-9019580D02*
X13223809Y-9067200D01*
X13223809Y-9067200D02*
X13128571Y-9114819D01*
X13128571Y-9114819D02*
X13033333Y-9114819D01*
X13033333Y-9114819D02*
X12938095Y-9067200D01*
X12938095Y-9067200D02*
X12890476Y-9019580D01*
X12890476Y-9019580D02*
X12842857Y-8924342D01*
X12842857Y-8924342D02*
X12795238Y-8733866D01*
X12795238Y-8733866D02*
X12795238Y-8495771D01*
X12795238Y-8495771D02*
X12842857Y-8305295D01*
X12842857Y-8305295D02*
X12890476Y-8210057D01*
X12890476Y-8210057D02*
X12938095Y-8162438D01*
X12938095Y-8162438D02*
X13033333Y-8114819D01*
X14319047Y-9114819D02*
X13747619Y-9114819D01*
X14033333Y-9114819D02*
X14033333Y-8114819D01*
X14033333Y-8114819D02*
X13938095Y-8257676D01*
X13938095Y-8257676D02*
X13842857Y-8352914D01*
X13842857Y-8352914D02*
X13747619Y-8400533D01*
X16494285Y-30974819D02*
X16494285Y-31689104D01*
X16494285Y-31689104D02*
X16446666Y-31831961D01*
X16446666Y-31831961D02*
X16351428Y-31927200D01*
X16351428Y-31927200D02*
X16208571Y-31974819D01*
X16208571Y-31974819D02*
X16113333Y-31974819D01*
X17494285Y-31974819D02*
X16922857Y-31974819D01*
X17208571Y-31974819D02*
X17208571Y-30974819D01*
X17208571Y-30974819D02*
X17113333Y-31117676D01*
X17113333Y-31117676D02*
X17018095Y-31212914D01*
X17018095Y-31212914D02*
X16922857Y-31260533D01*
X18351428Y-31308152D02*
X18351428Y-31974819D01*
X18113333Y-30927200D02*
X17875238Y-31641485D01*
X17875238Y-31641485D02*
X18494285Y-31641485D01*
X18780000Y-30974819D02*
X19446666Y-30974819D01*
X19446666Y-30974819D02*
X19018095Y-31974819D01*
X43674819Y-68595714D02*
X44389104Y-68595714D01*
X44389104Y-68595714D02*
X44531961Y-68643333D01*
X44531961Y-68643333D02*
X44627200Y-68738571D01*
X44627200Y-68738571D02*
X44674819Y-68881428D01*
X44674819Y-68881428D02*
X44674819Y-68976666D01*
X44674819Y-67595714D02*
X44674819Y-68167142D01*
X44674819Y-67881428D02*
X43674819Y-67881428D01*
X43674819Y-67881428D02*
X43817676Y-67976666D01*
X43817676Y-67976666D02*
X43912914Y-68071904D01*
X43912914Y-68071904D02*
X43960533Y-68167142D01*
X44674819Y-66643333D02*
X44674819Y-67214761D01*
X44674819Y-66929047D02*
X43674819Y-66929047D01*
X43674819Y-66929047D02*
X43817676Y-67024285D01*
X43817676Y-67024285D02*
X43912914Y-67119523D01*
X43912914Y-67119523D02*
X43960533Y-67214761D01*
X44674819Y-65690952D02*
X44674819Y-66262380D01*
X44674819Y-65976666D02*
X43674819Y-65976666D01*
X43674819Y-65976666D02*
X43817676Y-66071904D01*
X43817676Y-66071904D02*
X43912914Y-66167142D01*
X43912914Y-66167142D02*
X43960533Y-66262380D01*
X16494285Y-8114819D02*
X16494285Y-8829104D01*
X16494285Y-8829104D02*
X16446666Y-8971961D01*
X16446666Y-8971961D02*
X16351428Y-9067200D01*
X16351428Y-9067200D02*
X16208571Y-9114819D01*
X16208571Y-9114819D02*
X16113333Y-9114819D01*
X17494285Y-9114819D02*
X16922857Y-9114819D01*
X17208571Y-9114819D02*
X17208571Y-8114819D01*
X17208571Y-8114819D02*
X17113333Y-8257676D01*
X17113333Y-8257676D02*
X17018095Y-8352914D01*
X17018095Y-8352914D02*
X16922857Y-8400533D01*
X18113333Y-8114819D02*
X18208571Y-8114819D01*
X18208571Y-8114819D02*
X18303809Y-8162438D01*
X18303809Y-8162438D02*
X18351428Y-8210057D01*
X18351428Y-8210057D02*
X18399047Y-8305295D01*
X18399047Y-8305295D02*
X18446666Y-8495771D01*
X18446666Y-8495771D02*
X18446666Y-8733866D01*
X18446666Y-8733866D02*
X18399047Y-8924342D01*
X18399047Y-8924342D02*
X18351428Y-9019580D01*
X18351428Y-9019580D02*
X18303809Y-9067200D01*
X18303809Y-9067200D02*
X18208571Y-9114819D01*
X18208571Y-9114819D02*
X18113333Y-9114819D01*
X18113333Y-9114819D02*
X18018095Y-9067200D01*
X18018095Y-9067200D02*
X17970476Y-9019580D01*
X17970476Y-9019580D02*
X17922857Y-8924342D01*
X17922857Y-8924342D02*
X17875238Y-8733866D01*
X17875238Y-8733866D02*
X17875238Y-8495771D01*
X17875238Y-8495771D02*
X17922857Y-8305295D01*
X17922857Y-8305295D02*
X17970476Y-8210057D01*
X17970476Y-8210057D02*
X18018095Y-8162438D01*
X18018095Y-8162438D02*
X18113333Y-8114819D01*
X18780000Y-8114819D02*
X19399047Y-8114819D01*
X19399047Y-8114819D02*
X19065714Y-8495771D01*
X19065714Y-8495771D02*
X19208571Y-8495771D01*
X19208571Y-8495771D02*
X19303809Y-8543390D01*
X19303809Y-8543390D02*
X19351428Y-8591009D01*
X19351428Y-8591009D02*
X19399047Y-8686247D01*
X19399047Y-8686247D02*
X19399047Y-8924342D01*
X19399047Y-8924342D02*
X19351428Y-9019580D01*
X19351428Y-9019580D02*
X19303809Y-9067200D01*
X19303809Y-9067200D02*
X19208571Y-9114819D01*
X19208571Y-9114819D02*
X18922857Y-9114819D01*
X18922857Y-9114819D02*
X18827619Y-9067200D01*
X18827619Y-9067200D02*
X18780000Y-9019580D01*
X13954285Y-15734819D02*
X13954285Y-16449104D01*
X13954285Y-16449104D02*
X13906666Y-16591961D01*
X13906666Y-16591961D02*
X13811428Y-16687200D01*
X13811428Y-16687200D02*
X13668571Y-16734819D01*
X13668571Y-16734819D02*
X13573333Y-16734819D01*
X14954285Y-16734819D02*
X14382857Y-16734819D01*
X14668571Y-16734819D02*
X14668571Y-15734819D01*
X14668571Y-15734819D02*
X14573333Y-15877676D01*
X14573333Y-15877676D02*
X14478095Y-15972914D01*
X14478095Y-15972914D02*
X14382857Y-16020533D01*
X15811428Y-16068152D02*
X15811428Y-16734819D01*
X15573333Y-15687200D02*
X15335238Y-16401485D01*
X15335238Y-16401485D02*
X15954285Y-16401485D01*
X16240000Y-15734819D02*
X16859047Y-15734819D01*
X16859047Y-15734819D02*
X16525714Y-16115771D01*
X16525714Y-16115771D02*
X16668571Y-16115771D01*
X16668571Y-16115771D02*
X16763809Y-16163390D01*
X16763809Y-16163390D02*
X16811428Y-16211009D01*
X16811428Y-16211009D02*
X16859047Y-16306247D01*
X16859047Y-16306247D02*
X16859047Y-16544342D01*
X16859047Y-16544342D02*
X16811428Y-16639580D01*
X16811428Y-16639580D02*
X16763809Y-16687200D01*
X16763809Y-16687200D02*
X16668571Y-16734819D01*
X16668571Y-16734819D02*
X16382857Y-16734819D01*
X16382857Y-16734819D02*
X16287619Y-16687200D01*
X16287619Y-16687200D02*
X16240000Y-16639580D01*
X8874285Y-13194819D02*
X8874285Y-13909104D01*
X8874285Y-13909104D02*
X8826666Y-14051961D01*
X8826666Y-14051961D02*
X8731428Y-14147200D01*
X8731428Y-14147200D02*
X8588571Y-14194819D01*
X8588571Y-14194819D02*
X8493333Y-14194819D01*
X9874285Y-14194819D02*
X9302857Y-14194819D01*
X9588571Y-14194819D02*
X9588571Y-13194819D01*
X9588571Y-13194819D02*
X9493333Y-13337676D01*
X9493333Y-13337676D02*
X9398095Y-13432914D01*
X9398095Y-13432914D02*
X9302857Y-13480533D01*
X10493333Y-13194819D02*
X10588571Y-13194819D01*
X10588571Y-13194819D02*
X10683809Y-13242438D01*
X10683809Y-13242438D02*
X10731428Y-13290057D01*
X10731428Y-13290057D02*
X10779047Y-13385295D01*
X10779047Y-13385295D02*
X10826666Y-13575771D01*
X10826666Y-13575771D02*
X10826666Y-13813866D01*
X10826666Y-13813866D02*
X10779047Y-14004342D01*
X10779047Y-14004342D02*
X10731428Y-14099580D01*
X10731428Y-14099580D02*
X10683809Y-14147200D01*
X10683809Y-14147200D02*
X10588571Y-14194819D01*
X10588571Y-14194819D02*
X10493333Y-14194819D01*
X10493333Y-14194819D02*
X10398095Y-14147200D01*
X10398095Y-14147200D02*
X10350476Y-14099580D01*
X10350476Y-14099580D02*
X10302857Y-14004342D01*
X10302857Y-14004342D02*
X10255238Y-13813866D01*
X10255238Y-13813866D02*
X10255238Y-13575771D01*
X10255238Y-13575771D02*
X10302857Y-13385295D01*
X10302857Y-13385295D02*
X10350476Y-13290057D01*
X10350476Y-13290057D02*
X10398095Y-13242438D01*
X10398095Y-13242438D02*
X10493333Y-13194819D01*
X11207619Y-13290057D02*
X11255238Y-13242438D01*
X11255238Y-13242438D02*
X11350476Y-13194819D01*
X11350476Y-13194819D02*
X11588571Y-13194819D01*
X11588571Y-13194819D02*
X11683809Y-13242438D01*
X11683809Y-13242438D02*
X11731428Y-13290057D01*
X11731428Y-13290057D02*
X11779047Y-13385295D01*
X11779047Y-13385295D02*
X11779047Y-13480533D01*
X11779047Y-13480533D02*
X11731428Y-13623390D01*
X11731428Y-13623390D02*
X11160000Y-14194819D01*
X11160000Y-14194819D02*
X11779047Y-14194819D01*
X43164285Y-43674819D02*
X43164285Y-44389104D01*
X43164285Y-44389104D02*
X43116666Y-44531961D01*
X43116666Y-44531961D02*
X43021428Y-44627200D01*
X43021428Y-44627200D02*
X42878571Y-44674819D01*
X42878571Y-44674819D02*
X42783333Y-44674819D01*
X44164285Y-44674819D02*
X43592857Y-44674819D01*
X43878571Y-44674819D02*
X43878571Y-43674819D01*
X43878571Y-43674819D02*
X43783333Y-43817676D01*
X43783333Y-43817676D02*
X43688095Y-43912914D01*
X43688095Y-43912914D02*
X43592857Y-43960533D01*
X44783333Y-43674819D02*
X44878571Y-43674819D01*
X44878571Y-43674819D02*
X44973809Y-43722438D01*
X44973809Y-43722438D02*
X45021428Y-43770057D01*
X45021428Y-43770057D02*
X45069047Y-43865295D01*
X45069047Y-43865295D02*
X45116666Y-44055771D01*
X45116666Y-44055771D02*
X45116666Y-44293866D01*
X45116666Y-44293866D02*
X45069047Y-44484342D01*
X45069047Y-44484342D02*
X45021428Y-44579580D01*
X45021428Y-44579580D02*
X44973809Y-44627200D01*
X44973809Y-44627200D02*
X44878571Y-44674819D01*
X44878571Y-44674819D02*
X44783333Y-44674819D01*
X44783333Y-44674819D02*
X44688095Y-44627200D01*
X44688095Y-44627200D02*
X44640476Y-44579580D01*
X44640476Y-44579580D02*
X44592857Y-44484342D01*
X44592857Y-44484342D02*
X44545238Y-44293866D01*
X44545238Y-44293866D02*
X44545238Y-44055771D01*
X44545238Y-44055771D02*
X44592857Y-43865295D01*
X44592857Y-43865295D02*
X44640476Y-43770057D01*
X44640476Y-43770057D02*
X44688095Y-43722438D01*
X44688095Y-43722438D02*
X44783333Y-43674819D01*
X45592857Y-44674819D02*
X45783333Y-44674819D01*
X45783333Y-44674819D02*
X45878571Y-44627200D01*
X45878571Y-44627200D02*
X45926190Y-44579580D01*
X45926190Y-44579580D02*
X46021428Y-44436723D01*
X46021428Y-44436723D02*
X46069047Y-44246247D01*
X46069047Y-44246247D02*
X46069047Y-43865295D01*
X46069047Y-43865295D02*
X46021428Y-43770057D01*
X46021428Y-43770057D02*
X45973809Y-43722438D01*
X45973809Y-43722438D02*
X45878571Y-43674819D01*
X45878571Y-43674819D02*
X45688095Y-43674819D01*
X45688095Y-43674819D02*
X45592857Y-43722438D01*
X45592857Y-43722438D02*
X45545238Y-43770057D01*
X45545238Y-43770057D02*
X45497619Y-43865295D01*
X45497619Y-43865295D02*
X45497619Y-44103390D01*
X45497619Y-44103390D02*
X45545238Y-44198628D01*
X45545238Y-44198628D02*
X45592857Y-44246247D01*
X45592857Y-44246247D02*
X45688095Y-44293866D01*
X45688095Y-44293866D02*
X45878571Y-44293866D01*
X45878571Y-44293866D02*
X45973809Y-44246247D01*
X45973809Y-44246247D02*
X46021428Y-44198628D01*
X46021428Y-44198628D02*
X46069047Y-44103390D01*
X16494285Y-33514819D02*
X16494285Y-34229104D01*
X16494285Y-34229104D02*
X16446666Y-34371961D01*
X16446666Y-34371961D02*
X16351428Y-34467200D01*
X16351428Y-34467200D02*
X16208571Y-34514819D01*
X16208571Y-34514819D02*
X16113333Y-34514819D01*
X17494285Y-34514819D02*
X16922857Y-34514819D01*
X17208571Y-34514819D02*
X17208571Y-33514819D01*
X17208571Y-33514819D02*
X17113333Y-33657676D01*
X17113333Y-33657676D02*
X17018095Y-33752914D01*
X17018095Y-33752914D02*
X16922857Y-33800533D01*
X18351428Y-33848152D02*
X18351428Y-34514819D01*
X18113333Y-33467200D02*
X17875238Y-34181485D01*
X17875238Y-34181485D02*
X18494285Y-34181485D01*
X19018095Y-33943390D02*
X18922857Y-33895771D01*
X18922857Y-33895771D02*
X18875238Y-33848152D01*
X18875238Y-33848152D02*
X18827619Y-33752914D01*
X18827619Y-33752914D02*
X18827619Y-33705295D01*
X18827619Y-33705295D02*
X18875238Y-33610057D01*
X18875238Y-33610057D02*
X18922857Y-33562438D01*
X18922857Y-33562438D02*
X19018095Y-33514819D01*
X19018095Y-33514819D02*
X19208571Y-33514819D01*
X19208571Y-33514819D02*
X19303809Y-33562438D01*
X19303809Y-33562438D02*
X19351428Y-33610057D01*
X19351428Y-33610057D02*
X19399047Y-33705295D01*
X19399047Y-33705295D02*
X19399047Y-33752914D01*
X19399047Y-33752914D02*
X19351428Y-33848152D01*
X19351428Y-33848152D02*
X19303809Y-33895771D01*
X19303809Y-33895771D02*
X19208571Y-33943390D01*
X19208571Y-33943390D02*
X19018095Y-33943390D01*
X19018095Y-33943390D02*
X18922857Y-33991009D01*
X18922857Y-33991009D02*
X18875238Y-34038628D01*
X18875238Y-34038628D02*
X18827619Y-34133866D01*
X18827619Y-34133866D02*
X18827619Y-34324342D01*
X18827619Y-34324342D02*
X18875238Y-34419580D01*
X18875238Y-34419580D02*
X18922857Y-34467200D01*
X18922857Y-34467200D02*
X19018095Y-34514819D01*
X19018095Y-34514819D02*
X19208571Y-34514819D01*
X19208571Y-34514819D02*
X19303809Y-34467200D01*
X19303809Y-34467200D02*
X19351428Y-34419580D01*
X19351428Y-34419580D02*
X19399047Y-34324342D01*
X19399047Y-34324342D02*
X19399047Y-34133866D01*
X19399047Y-34133866D02*
X19351428Y-34038628D01*
X19351428Y-34038628D02*
X19303809Y-33991009D01*
X19303809Y-33991009D02*
X19208571Y-33943390D01*
X11414285Y-25894819D02*
X11414285Y-26609104D01*
X11414285Y-26609104D02*
X11366666Y-26751961D01*
X11366666Y-26751961D02*
X11271428Y-26847200D01*
X11271428Y-26847200D02*
X11128571Y-26894819D01*
X11128571Y-26894819D02*
X11033333Y-26894819D01*
X12414285Y-26894819D02*
X11842857Y-26894819D01*
X12128571Y-26894819D02*
X12128571Y-25894819D01*
X12128571Y-25894819D02*
X12033333Y-26037676D01*
X12033333Y-26037676D02*
X11938095Y-26132914D01*
X11938095Y-26132914D02*
X11842857Y-26180533D01*
X13271428Y-26228152D02*
X13271428Y-26894819D01*
X13033333Y-25847200D02*
X12795238Y-26561485D01*
X12795238Y-26561485D02*
X13414285Y-26561485D01*
X14271428Y-25894819D02*
X13795238Y-25894819D01*
X13795238Y-25894819D02*
X13747619Y-26371009D01*
X13747619Y-26371009D02*
X13795238Y-26323390D01*
X13795238Y-26323390D02*
X13890476Y-26275771D01*
X13890476Y-26275771D02*
X14128571Y-26275771D01*
X14128571Y-26275771D02*
X14223809Y-26323390D01*
X14223809Y-26323390D02*
X14271428Y-26371009D01*
X14271428Y-26371009D02*
X14319047Y-26466247D01*
X14319047Y-26466247D02*
X14319047Y-26704342D01*
X14319047Y-26704342D02*
X14271428Y-26799580D01*
X14271428Y-26799580D02*
X14223809Y-26847200D01*
X14223809Y-26847200D02*
X14128571Y-26894819D01*
X14128571Y-26894819D02*
X13890476Y-26894819D01*
X13890476Y-26894819D02*
X13795238Y-26847200D01*
X13795238Y-26847200D02*
X13747619Y-26799580D01*
X3285714Y-71254819D02*
X3285714Y-70254819D01*
X3285714Y-70731009D02*
X3857142Y-70731009D01*
X3857142Y-71254819D02*
X3857142Y-70254819D01*
X4857142Y-71254819D02*
X4285714Y-71254819D01*
X4571428Y-71254819D02*
X4571428Y-70254819D01*
X4571428Y-70254819D02*
X4476190Y-70397676D01*
X4476190Y-70397676D02*
X4380952Y-70492914D01*
X4380952Y-70492914D02*
X4285714Y-70540533D01*
X5476190Y-70254819D02*
X5571428Y-70254819D01*
X5571428Y-70254819D02*
X5666666Y-70302438D01*
X5666666Y-70302438D02*
X5714285Y-70350057D01*
X5714285Y-70350057D02*
X5761904Y-70445295D01*
X5761904Y-70445295D02*
X5809523Y-70635771D01*
X5809523Y-70635771D02*
X5809523Y-70873866D01*
X5809523Y-70873866D02*
X5761904Y-71064342D01*
X5761904Y-71064342D02*
X5714285Y-71159580D01*
X5714285Y-71159580D02*
X5666666Y-71207200D01*
X5666666Y-71207200D02*
X5571428Y-71254819D01*
X5571428Y-71254819D02*
X5476190Y-71254819D01*
X5476190Y-71254819D02*
X5380952Y-71207200D01*
X5380952Y-71207200D02*
X5333333Y-71159580D01*
X5333333Y-71159580D02*
X5285714Y-71064342D01*
X5285714Y-71064342D02*
X5238095Y-70873866D01*
X5238095Y-70873866D02*
X5238095Y-70635771D01*
X5238095Y-70635771D02*
X5285714Y-70445295D01*
X5285714Y-70445295D02*
X5333333Y-70350057D01*
X5333333Y-70350057D02*
X5380952Y-70302438D01*
X5380952Y-70302438D02*
X5476190Y-70254819D01*
X6142857Y-70254819D02*
X6761904Y-70254819D01*
X6761904Y-70254819D02*
X6428571Y-70635771D01*
X6428571Y-70635771D02*
X6571428Y-70635771D01*
X6571428Y-70635771D02*
X6666666Y-70683390D01*
X6666666Y-70683390D02*
X6714285Y-70731009D01*
X6714285Y-70731009D02*
X6761904Y-70826247D01*
X6761904Y-70826247D02*
X6761904Y-71064342D01*
X6761904Y-71064342D02*
X6714285Y-71159580D01*
X6714285Y-71159580D02*
X6666666Y-71207200D01*
X6666666Y-71207200D02*
X6571428Y-71254819D01*
X6571428Y-71254819D02*
X6285714Y-71254819D01*
X6285714Y-71254819D02*
X6190476Y-71207200D01*
X6190476Y-71207200D02*
X6142857Y-71159580D01*
X9194819Y-55030475D02*
X8194819Y-55030475D01*
X8194819Y-55030475D02*
X8194819Y-54792380D01*
X8194819Y-54792380D02*
X8242438Y-54649523D01*
X8242438Y-54649523D02*
X8337676Y-54554285D01*
X8337676Y-54554285D02*
X8432914Y-54506666D01*
X8432914Y-54506666D02*
X8623390Y-54459047D01*
X8623390Y-54459047D02*
X8766247Y-54459047D01*
X8766247Y-54459047D02*
X8956723Y-54506666D01*
X8956723Y-54506666D02*
X9051961Y-54554285D01*
X9051961Y-54554285D02*
X9147200Y-54649523D01*
X9147200Y-54649523D02*
X9194819Y-54792380D01*
X9194819Y-54792380D02*
X9194819Y-55030475D01*
X9194819Y-53506666D02*
X9194819Y-54078094D01*
X9194819Y-53792380D02*
X8194819Y-53792380D01*
X8194819Y-53792380D02*
X8337676Y-53887618D01*
X8337676Y-53887618D02*
X8432914Y-53982856D01*
X8432914Y-53982856D02*
X8480533Y-54078094D01*
X8194819Y-52887618D02*
X8194819Y-52792380D01*
X8194819Y-52792380D02*
X8242438Y-52697142D01*
X8242438Y-52697142D02*
X8290057Y-52649523D01*
X8290057Y-52649523D02*
X8385295Y-52601904D01*
X8385295Y-52601904D02*
X8575771Y-52554285D01*
X8575771Y-52554285D02*
X8813866Y-52554285D01*
X8813866Y-52554285D02*
X9004342Y-52601904D01*
X9004342Y-52601904D02*
X9099580Y-52649523D01*
X9099580Y-52649523D02*
X9147200Y-52697142D01*
X9147200Y-52697142D02*
X9194819Y-52792380D01*
X9194819Y-52792380D02*
X9194819Y-52887618D01*
X9194819Y-52887618D02*
X9147200Y-52982856D01*
X9147200Y-52982856D02*
X9099580Y-53030475D01*
X9099580Y-53030475D02*
X9004342Y-53078094D01*
X9004342Y-53078094D02*
X8813866Y-53125713D01*
X8813866Y-53125713D02*
X8575771Y-53125713D01*
X8575771Y-53125713D02*
X8385295Y-53078094D01*
X8385295Y-53078094D02*
X8290057Y-53030475D01*
X8290057Y-53030475D02*
X8242438Y-52982856D01*
X8242438Y-52982856D02*
X8194819Y-52887618D01*
X9194819Y-51601904D02*
X9194819Y-52173332D01*
X9194819Y-51887618D02*
X8194819Y-51887618D01*
X8194819Y-51887618D02*
X8337676Y-51982856D01*
X8337676Y-51982856D02*
X8432914Y-52078094D01*
X8432914Y-52078094D02*
X8480533Y-52173332D01*
X40624285Y-43674819D02*
X40624285Y-44389104D01*
X40624285Y-44389104D02*
X40576666Y-44531961D01*
X40576666Y-44531961D02*
X40481428Y-44627200D01*
X40481428Y-44627200D02*
X40338571Y-44674819D01*
X40338571Y-44674819D02*
X40243333Y-44674819D01*
X41624285Y-44674819D02*
X41052857Y-44674819D01*
X41338571Y-44674819D02*
X41338571Y-43674819D01*
X41338571Y-43674819D02*
X41243333Y-43817676D01*
X41243333Y-43817676D02*
X41148095Y-43912914D01*
X41148095Y-43912914D02*
X41052857Y-43960533D01*
X42576666Y-44674819D02*
X42005238Y-44674819D01*
X42290952Y-44674819D02*
X42290952Y-43674819D01*
X42290952Y-43674819D02*
X42195714Y-43817676D01*
X42195714Y-43817676D02*
X42100476Y-43912914D01*
X42100476Y-43912914D02*
X42005238Y-43960533D01*
X43195714Y-43674819D02*
X43290952Y-43674819D01*
X43290952Y-43674819D02*
X43386190Y-43722438D01*
X43386190Y-43722438D02*
X43433809Y-43770057D01*
X43433809Y-43770057D02*
X43481428Y-43865295D01*
X43481428Y-43865295D02*
X43529047Y-44055771D01*
X43529047Y-44055771D02*
X43529047Y-44293866D01*
X43529047Y-44293866D02*
X43481428Y-44484342D01*
X43481428Y-44484342D02*
X43433809Y-44579580D01*
X43433809Y-44579580D02*
X43386190Y-44627200D01*
X43386190Y-44627200D02*
X43290952Y-44674819D01*
X43290952Y-44674819D02*
X43195714Y-44674819D01*
X43195714Y-44674819D02*
X43100476Y-44627200D01*
X43100476Y-44627200D02*
X43052857Y-44579580D01*
X43052857Y-44579580D02*
X43005238Y-44484342D01*
X43005238Y-44484342D02*
X42957619Y-44293866D01*
X42957619Y-44293866D02*
X42957619Y-44055771D01*
X42957619Y-44055771D02*
X43005238Y-43865295D01*
X43005238Y-43865295D02*
X43052857Y-43770057D01*
X43052857Y-43770057D02*
X43100476Y-43722438D01*
X43100476Y-43722438D02*
X43195714Y-43674819D01*
X11414285Y-28434819D02*
X11414285Y-29149104D01*
X11414285Y-29149104D02*
X11366666Y-29291961D01*
X11366666Y-29291961D02*
X11271428Y-29387200D01*
X11271428Y-29387200D02*
X11128571Y-29434819D01*
X11128571Y-29434819D02*
X11033333Y-29434819D01*
X12414285Y-29434819D02*
X11842857Y-29434819D01*
X12128571Y-29434819D02*
X12128571Y-28434819D01*
X12128571Y-28434819D02*
X12033333Y-28577676D01*
X12033333Y-28577676D02*
X11938095Y-28672914D01*
X11938095Y-28672914D02*
X11842857Y-28720533D01*
X13271428Y-28768152D02*
X13271428Y-29434819D01*
X13033333Y-28387200D02*
X12795238Y-29101485D01*
X12795238Y-29101485D02*
X13414285Y-29101485D01*
X14223809Y-28434819D02*
X14033333Y-28434819D01*
X14033333Y-28434819D02*
X13938095Y-28482438D01*
X13938095Y-28482438D02*
X13890476Y-28530057D01*
X13890476Y-28530057D02*
X13795238Y-28672914D01*
X13795238Y-28672914D02*
X13747619Y-28863390D01*
X13747619Y-28863390D02*
X13747619Y-29244342D01*
X13747619Y-29244342D02*
X13795238Y-29339580D01*
X13795238Y-29339580D02*
X13842857Y-29387200D01*
X13842857Y-29387200D02*
X13938095Y-29434819D01*
X13938095Y-29434819D02*
X14128571Y-29434819D01*
X14128571Y-29434819D02*
X14223809Y-29387200D01*
X14223809Y-29387200D02*
X14271428Y-29339580D01*
X14271428Y-29339580D02*
X14319047Y-29244342D01*
X14319047Y-29244342D02*
X14319047Y-29006247D01*
X14319047Y-29006247D02*
X14271428Y-28911009D01*
X14271428Y-28911009D02*
X14223809Y-28863390D01*
X14223809Y-28863390D02*
X14128571Y-28815771D01*
X14128571Y-28815771D02*
X13938095Y-28815771D01*
X13938095Y-28815771D02*
X13842857Y-28863390D01*
X13842857Y-28863390D02*
X13795238Y-28911009D01*
X13795238Y-28911009D02*
X13747619Y-29006247D01*
X11414285Y-30974819D02*
X11414285Y-31689104D01*
X11414285Y-31689104D02*
X11366666Y-31831961D01*
X11366666Y-31831961D02*
X11271428Y-31927200D01*
X11271428Y-31927200D02*
X11128571Y-31974819D01*
X11128571Y-31974819D02*
X11033333Y-31974819D01*
X12414285Y-31974819D02*
X11842857Y-31974819D01*
X12128571Y-31974819D02*
X12128571Y-30974819D01*
X12128571Y-30974819D02*
X12033333Y-31117676D01*
X12033333Y-31117676D02*
X11938095Y-31212914D01*
X11938095Y-31212914D02*
X11842857Y-31260533D01*
X12747619Y-30974819D02*
X13366666Y-30974819D01*
X13366666Y-30974819D02*
X13033333Y-31355771D01*
X13033333Y-31355771D02*
X13176190Y-31355771D01*
X13176190Y-31355771D02*
X13271428Y-31403390D01*
X13271428Y-31403390D02*
X13319047Y-31451009D01*
X13319047Y-31451009D02*
X13366666Y-31546247D01*
X13366666Y-31546247D02*
X13366666Y-31784342D01*
X13366666Y-31784342D02*
X13319047Y-31879580D01*
X13319047Y-31879580D02*
X13271428Y-31927200D01*
X13271428Y-31927200D02*
X13176190Y-31974819D01*
X13176190Y-31974819D02*
X12890476Y-31974819D01*
X12890476Y-31974819D02*
X12795238Y-31927200D01*
X12795238Y-31927200D02*
X12747619Y-31879580D01*
X13842857Y-31974819D02*
X14033333Y-31974819D01*
X14033333Y-31974819D02*
X14128571Y-31927200D01*
X14128571Y-31927200D02*
X14176190Y-31879580D01*
X14176190Y-31879580D02*
X14271428Y-31736723D01*
X14271428Y-31736723D02*
X14319047Y-31546247D01*
X14319047Y-31546247D02*
X14319047Y-31165295D01*
X14319047Y-31165295D02*
X14271428Y-31070057D01*
X14271428Y-31070057D02*
X14223809Y-31022438D01*
X14223809Y-31022438D02*
X14128571Y-30974819D01*
X14128571Y-30974819D02*
X13938095Y-30974819D01*
X13938095Y-30974819D02*
X13842857Y-31022438D01*
X13842857Y-31022438D02*
X13795238Y-31070057D01*
X13795238Y-31070057D02*
X13747619Y-31165295D01*
X13747619Y-31165295D02*
X13747619Y-31403390D01*
X13747619Y-31403390D02*
X13795238Y-31498628D01*
X13795238Y-31498628D02*
X13842857Y-31546247D01*
X13842857Y-31546247D02*
X13938095Y-31593866D01*
X13938095Y-31593866D02*
X14128571Y-31593866D01*
X14128571Y-31593866D02*
X14223809Y-31546247D01*
X14223809Y-31546247D02*
X14271428Y-31498628D01*
X14271428Y-31498628D02*
X14319047Y-31403390D01*
X11414285Y-18274819D02*
X11414285Y-18989104D01*
X11414285Y-18989104D02*
X11366666Y-19131961D01*
X11366666Y-19131961D02*
X11271428Y-19227200D01*
X11271428Y-19227200D02*
X11128571Y-19274819D01*
X11128571Y-19274819D02*
X11033333Y-19274819D01*
X12414285Y-19274819D02*
X11842857Y-19274819D01*
X12128571Y-19274819D02*
X12128571Y-18274819D01*
X12128571Y-18274819D02*
X12033333Y-18417676D01*
X12033333Y-18417676D02*
X11938095Y-18512914D01*
X11938095Y-18512914D02*
X11842857Y-18560533D01*
X12795238Y-18370057D02*
X12842857Y-18322438D01*
X12842857Y-18322438D02*
X12938095Y-18274819D01*
X12938095Y-18274819D02*
X13176190Y-18274819D01*
X13176190Y-18274819D02*
X13271428Y-18322438D01*
X13271428Y-18322438D02*
X13319047Y-18370057D01*
X13319047Y-18370057D02*
X13366666Y-18465295D01*
X13366666Y-18465295D02*
X13366666Y-18560533D01*
X13366666Y-18560533D02*
X13319047Y-18703390D01*
X13319047Y-18703390D02*
X12747619Y-19274819D01*
X12747619Y-19274819D02*
X13366666Y-19274819D01*
X14223809Y-18608152D02*
X14223809Y-19274819D01*
X13985714Y-18227200D02*
X13747619Y-18941485D01*
X13747619Y-18941485D02*
X14366666Y-18941485D01*
X11414285Y-36054819D02*
X11414285Y-36769104D01*
X11414285Y-36769104D02*
X11366666Y-36911961D01*
X11366666Y-36911961D02*
X11271428Y-37007200D01*
X11271428Y-37007200D02*
X11128571Y-37054819D01*
X11128571Y-37054819D02*
X11033333Y-37054819D01*
X12414285Y-37054819D02*
X11842857Y-37054819D01*
X12128571Y-37054819D02*
X12128571Y-36054819D01*
X12128571Y-36054819D02*
X12033333Y-36197676D01*
X12033333Y-36197676D02*
X11938095Y-36292914D01*
X11938095Y-36292914D02*
X11842857Y-36340533D01*
X13271428Y-36388152D02*
X13271428Y-37054819D01*
X13033333Y-36007200D02*
X12795238Y-36721485D01*
X12795238Y-36721485D02*
X13414285Y-36721485D01*
X14319047Y-37054819D02*
X13747619Y-37054819D01*
X14033333Y-37054819D02*
X14033333Y-36054819D01*
X14033333Y-36054819D02*
X13938095Y-36197676D01*
X13938095Y-36197676D02*
X13842857Y-36292914D01*
X13842857Y-36292914D02*
X13747619Y-36340533D01*
D12*
%TO.C,J142*%
X13910000Y-15180000D02*
X13910000Y-15300000D01*
X13910000Y-15300000D02*
X16570000Y-15300000D01*
X15240000Y-12640000D02*
X16570000Y-12640000D01*
X16570000Y-12640000D02*
X16570000Y-13970000D01*
X16570000Y-15180000D02*
X16570000Y-15300000D01*
%TO.C,J128*%
X16450000Y-40580000D02*
X16450000Y-40700000D01*
X16450000Y-40700000D02*
X19110000Y-40700000D01*
X17780000Y-38040000D02*
X19110000Y-38040000D01*
X19110000Y-38040000D02*
X19110000Y-39370000D01*
X19110000Y-40580000D02*
X19110000Y-40700000D01*
%TO.C,J113*%
X63440000Y-48200000D02*
X63440000Y-48320000D01*
X63440000Y-48320000D02*
X66100000Y-48320000D01*
X64770000Y-45660000D02*
X66100000Y-45660000D01*
X66100000Y-45660000D02*
X66100000Y-46990000D01*
X66100000Y-48200000D02*
X66100000Y-48320000D01*
%TO.C,A102*%
X40510000Y-63630000D02*
X41910000Y-63630000D01*
X43180000Y-63630000D02*
X61090000Y-63630000D01*
X61090000Y-63630000D02*
X61090000Y-48130000D01*
X40510000Y-62230000D02*
X40510000Y-63630000D01*
X40510000Y-60960000D02*
X43180000Y-60960000D01*
X43180000Y-60960000D02*
X43180000Y-63630000D01*
X43180000Y-60960000D02*
X61090000Y-60960000D01*
X40510000Y-50800000D02*
X61090000Y-50800000D01*
X40510000Y-48130000D02*
X40510000Y-60960000D01*
X61090000Y-48130000D02*
X40510000Y-48130000D01*
%TO.C,J130*%
X16450000Y-20260000D02*
X16450000Y-20380000D01*
X16450000Y-20380000D02*
X19110000Y-20380000D01*
X17780000Y-17720000D02*
X19110000Y-17720000D01*
X19110000Y-17720000D02*
X19110000Y-19050000D01*
X19110000Y-20260000D02*
X19110000Y-20380000D01*
%TO.C,A103*%
X60830000Y-63630000D02*
X62230000Y-63630000D01*
X63500000Y-63630000D02*
X81410000Y-63630000D01*
X81410000Y-63630000D02*
X81410000Y-48130000D01*
X60830000Y-62230000D02*
X60830000Y-63630000D01*
X60830000Y-60960000D02*
X63500000Y-60960000D01*
X63500000Y-60960000D02*
X63500000Y-63630000D01*
X63500000Y-60960000D02*
X81410000Y-60960000D01*
X60830000Y-50800000D02*
X81410000Y-50800000D01*
X60830000Y-48130000D02*
X60830000Y-60960000D01*
X81410000Y-48130000D02*
X60830000Y-48130000D01*
%TO.C,J126*%
X16450000Y-22800000D02*
X16450000Y-22920000D01*
X16450000Y-22920000D02*
X19110000Y-22920000D01*
X17780000Y-20260000D02*
X19110000Y-20260000D01*
X19110000Y-20260000D02*
X19110000Y-21590000D01*
X19110000Y-22800000D02*
X19110000Y-22920000D01*
%TO.C,J134*%
X16450000Y-30420000D02*
X16450000Y-30540000D01*
X16450000Y-30540000D02*
X19110000Y-30540000D01*
X17780000Y-27880000D02*
X19110000Y-27880000D01*
X19110000Y-27880000D02*
X19110000Y-29210000D01*
X19110000Y-30420000D02*
X19110000Y-30540000D01*
%TO.C,J144*%
X13910000Y-17720000D02*
X13910000Y-17840000D01*
X13910000Y-17840000D02*
X16570000Y-17840000D01*
X15240000Y-15180000D02*
X16570000Y-15180000D01*
X16570000Y-15180000D02*
X16570000Y-16510000D01*
X16570000Y-17720000D02*
X16570000Y-17840000D01*
%TO.C,J117*%
X83760000Y-48200000D02*
X83760000Y-48320000D01*
X83760000Y-48320000D02*
X86420000Y-48320000D01*
X85090000Y-45660000D02*
X86420000Y-45660000D01*
X86420000Y-45660000D02*
X86420000Y-46990000D01*
X86420000Y-48200000D02*
X86420000Y-48320000D01*
%TO.C,J118*%
X81220000Y-48200000D02*
X81220000Y-48320000D01*
X81220000Y-48320000D02*
X83880000Y-48320000D01*
X82550000Y-45660000D02*
X83880000Y-45660000D01*
X83880000Y-45660000D02*
X83880000Y-46990000D01*
X83880000Y-48200000D02*
X83880000Y-48320000D01*
%TO.C,J114*%
X60900000Y-48200000D02*
X60900000Y-48320000D01*
X60900000Y-48320000D02*
X63560000Y-48320000D01*
X62230000Y-45660000D02*
X63560000Y-45660000D01*
X63560000Y-45660000D02*
X63560000Y-46990000D01*
X63560000Y-48200000D02*
X63560000Y-48320000D01*
%TO.C,J125*%
X16450000Y-15180000D02*
X16450000Y-15300000D01*
X16450000Y-15300000D02*
X19110000Y-15300000D01*
X17780000Y-12640000D02*
X19110000Y-12640000D01*
X19110000Y-12640000D02*
X19110000Y-13970000D01*
X19110000Y-15180000D02*
X19110000Y-15300000D01*
%TO.C,J108*%
X8830000Y-15180000D02*
X8830000Y-15300000D01*
X8830000Y-15300000D02*
X11490000Y-15300000D01*
X10160000Y-12640000D02*
X11490000Y-12640000D01*
X11490000Y-12640000D02*
X11490000Y-13970000D01*
X11490000Y-15180000D02*
X11490000Y-15300000D01*
%TO.C,J131*%
X13910000Y-12640000D02*
X13910000Y-12760000D01*
X13910000Y-12760000D02*
X16570000Y-12760000D01*
X15240000Y-10100000D02*
X16570000Y-10100000D01*
X16570000Y-10100000D02*
X16570000Y-11430000D01*
X16570000Y-12640000D02*
X16570000Y-12760000D01*
%TO.C,J104*%
X27940000Y-68640000D02*
X35620000Y-68640000D01*
X27940000Y-68640000D02*
X27940000Y-65980000D01*
X35620000Y-68640000D02*
X35620000Y-65980000D01*
X25340000Y-67310000D02*
X25340000Y-65980000D01*
X25340000Y-65980000D02*
X26670000Y-65980000D01*
X27940000Y-65980000D02*
X35620000Y-65980000D01*
%TO.C,J135*%
X16450000Y-32960000D02*
X16450000Y-33080000D01*
X16450000Y-33080000D02*
X19110000Y-33080000D01*
X17780000Y-30420000D02*
X19110000Y-30420000D01*
X19110000Y-30420000D02*
X19110000Y-31750000D01*
X19110000Y-32960000D02*
X19110000Y-33080000D01*
%TO.C,J140*%
X11370000Y-38040000D02*
X11370000Y-38160000D01*
X11370000Y-38160000D02*
X14030000Y-38160000D01*
X12700000Y-35500000D02*
X14030000Y-35500000D01*
X14030000Y-35500000D02*
X14030000Y-36830000D01*
X14030000Y-38040000D02*
X14030000Y-38160000D01*
%TO.C,J122*%
X11370000Y-17720000D02*
X11370000Y-17840000D01*
X11370000Y-17840000D02*
X14030000Y-17840000D01*
X12700000Y-15180000D02*
X14030000Y-15180000D01*
X14030000Y-15180000D02*
X14030000Y-16510000D01*
X14030000Y-17720000D02*
X14030000Y-17840000D01*
%TO.C,J138*%
X11370000Y-27880000D02*
X11370000Y-28000000D01*
X11370000Y-28000000D02*
X14030000Y-28000000D01*
X12700000Y-25340000D02*
X14030000Y-25340000D01*
X14030000Y-25340000D02*
X14030000Y-26670000D01*
X14030000Y-27880000D02*
X14030000Y-28000000D01*
%TO.C,A104*%
X81150000Y-63620000D02*
X82550000Y-63620000D01*
X83820000Y-63620000D02*
X101730000Y-63620000D01*
X101730000Y-63620000D02*
X101730000Y-48120000D01*
X81150000Y-62220000D02*
X81150000Y-63620000D01*
X81150000Y-60950000D02*
X83820000Y-60950000D01*
X83820000Y-60950000D02*
X83820000Y-63620000D01*
X83820000Y-60950000D02*
X101730000Y-60950000D01*
X81150000Y-50790000D02*
X101730000Y-50790000D01*
X81150000Y-48120000D02*
X81150000Y-60950000D01*
X101730000Y-48120000D02*
X81150000Y-48120000D01*
%TO.C,J106*%
X22800000Y-48200000D02*
X22800000Y-48320000D01*
X22800000Y-48320000D02*
X25460000Y-48320000D01*
X24130000Y-45660000D02*
X25460000Y-45660000D01*
X25460000Y-45660000D02*
X25460000Y-46990000D01*
X25460000Y-48200000D02*
X25460000Y-48320000D01*
%TO.C,J129*%
X11370000Y-25340000D02*
X11370000Y-25460000D01*
X11370000Y-25460000D02*
X14030000Y-25460000D01*
X12700000Y-22800000D02*
X14030000Y-22800000D01*
X14030000Y-22800000D02*
X14030000Y-24130000D01*
X14030000Y-25340000D02*
X14030000Y-25460000D01*
%TO.C,J115*%
X68580000Y-68640000D02*
X76260000Y-68640000D01*
X68580000Y-68640000D02*
X68580000Y-65980000D01*
X76260000Y-68640000D02*
X76260000Y-65980000D01*
X65980000Y-67310000D02*
X65980000Y-65980000D01*
X65980000Y-65980000D02*
X67310000Y-65980000D01*
X68580000Y-65980000D02*
X76260000Y-65980000D01*
%TO.C,A101*%
X20190000Y-63630000D02*
X21590000Y-63630000D01*
X22860000Y-63630000D02*
X40770000Y-63630000D01*
X40770000Y-63630000D02*
X40770000Y-48130000D01*
X20190000Y-62230000D02*
X20190000Y-63630000D01*
X20190000Y-60960000D02*
X22860000Y-60960000D01*
X22860000Y-60960000D02*
X22860000Y-63630000D01*
X22860000Y-60960000D02*
X40770000Y-60960000D01*
X20190000Y-50800000D02*
X40770000Y-50800000D01*
X20190000Y-48130000D02*
X20190000Y-60960000D01*
X40770000Y-48130000D02*
X20190000Y-48130000D01*
%TO.C,J121*%
X11370000Y-15180000D02*
X11370000Y-15300000D01*
X11370000Y-15300000D02*
X14030000Y-15300000D01*
X12700000Y-12640000D02*
X14030000Y-12640000D01*
X14030000Y-12640000D02*
X14030000Y-13970000D01*
X14030000Y-15180000D02*
X14030000Y-15300000D01*
%TO.C,J127*%
X16450000Y-27880000D02*
X16450000Y-28000000D01*
X16450000Y-28000000D02*
X19110000Y-28000000D01*
X17780000Y-25340000D02*
X19110000Y-25340000D01*
X19110000Y-25340000D02*
X19110000Y-26670000D01*
X19110000Y-27880000D02*
X19110000Y-28000000D01*
%TO.C,J120*%
X91380000Y-17720000D02*
X91380000Y-17840000D01*
X91380000Y-17840000D02*
X94040000Y-17840000D01*
X92710000Y-15180000D02*
X94040000Y-15180000D01*
X94040000Y-15180000D02*
X94040000Y-16510000D01*
X94040000Y-17720000D02*
X94040000Y-17840000D01*
%TO.C,J133*%
X16450000Y-25340000D02*
X16450000Y-25460000D01*
X16450000Y-25460000D02*
X19110000Y-25460000D01*
X17780000Y-22800000D02*
X19110000Y-22800000D01*
X19110000Y-22800000D02*
X19110000Y-24130000D01*
X19110000Y-25340000D02*
X19110000Y-25460000D01*
%TO.C,J132*%
X16450000Y-17720000D02*
X16450000Y-17840000D01*
X16450000Y-17840000D02*
X19110000Y-17840000D01*
X17780000Y-15180000D02*
X19110000Y-15180000D01*
X19110000Y-15180000D02*
X19110000Y-16510000D01*
X19110000Y-17720000D02*
X19110000Y-17840000D01*
%TO.C,J123*%
X11370000Y-20260000D02*
X11370000Y-20380000D01*
X11370000Y-20380000D02*
X14030000Y-20380000D01*
X12700000Y-17720000D02*
X14030000Y-17720000D01*
X14030000Y-17720000D02*
X14030000Y-19050000D01*
X14030000Y-20260000D02*
X14030000Y-20380000D01*
%TO.C,J107*%
X20260000Y-48200000D02*
X20260000Y-48320000D01*
X20260000Y-48320000D02*
X22920000Y-48320000D01*
X21590000Y-45660000D02*
X22920000Y-45660000D01*
X22920000Y-45660000D02*
X22920000Y-46990000D01*
X22920000Y-48200000D02*
X22920000Y-48320000D01*
%TO.C,J119*%
X88900000Y-68615000D02*
X96580000Y-68615000D01*
X88900000Y-68615000D02*
X88900000Y-65955000D01*
X96580000Y-68615000D02*
X96580000Y-65955000D01*
X86300000Y-67285000D02*
X86300000Y-65955000D01*
X86300000Y-65955000D02*
X87630000Y-65955000D01*
X88900000Y-65955000D02*
X96580000Y-65955000D01*
%TO.C,R101*%
X14070000Y-42450000D02*
X14070000Y-48990000D01*
X13740000Y-42450000D02*
X14070000Y-42450000D01*
X11660000Y-42450000D02*
X11330000Y-42450000D01*
X11330000Y-42450000D02*
X11330000Y-48990000D01*
X14070000Y-48990000D02*
X13740000Y-48990000D01*
X11330000Y-48990000D02*
X11660000Y-48990000D01*
%TO.C,J105*%
X99000000Y-48200000D02*
X99000000Y-48320000D01*
X99000000Y-48320000D02*
X101660000Y-48320000D01*
X100330000Y-45660000D02*
X101660000Y-45660000D01*
X101660000Y-45660000D02*
X101660000Y-46990000D01*
X101660000Y-48200000D02*
X101660000Y-48320000D01*
D11*
%TO.C,U101*%
X38100000Y-13970000D02*
X83820000Y-13970000D01*
X83820000Y-13970000D02*
X83820000Y-36830000D01*
X83820000Y-36830000D02*
X38100000Y-36830000D01*
X38100000Y-36830000D02*
X38100000Y-13970000D01*
D12*
%TO.C,J112*%
X8830000Y-12640000D02*
X8830000Y-12760000D01*
X8830000Y-12760000D02*
X11490000Y-12760000D01*
X10160000Y-10100000D02*
X11490000Y-10100000D01*
X11490000Y-10100000D02*
X11490000Y-11430000D01*
X11490000Y-12640000D02*
X11490000Y-12760000D01*
%TO.C,J101*%
X11370000Y-12640000D02*
X11370000Y-12760000D01*
X11370000Y-12760000D02*
X14030000Y-12760000D01*
X12700000Y-10100000D02*
X14030000Y-10100000D01*
X14030000Y-10100000D02*
X14030000Y-11430000D01*
X14030000Y-12640000D02*
X14030000Y-12760000D01*
%TO.C,J147*%
X16450000Y-35500000D02*
X16450000Y-35620000D01*
X16450000Y-35620000D02*
X19110000Y-35620000D01*
X17780000Y-32960000D02*
X19110000Y-32960000D01*
X19110000Y-32960000D02*
X19110000Y-34290000D01*
X19110000Y-35500000D02*
X19110000Y-35620000D01*
%TO.C,J111*%
X48260000Y-68640000D02*
X55940000Y-68640000D01*
X48260000Y-68640000D02*
X48260000Y-65980000D01*
X55940000Y-68640000D02*
X55940000Y-65980000D01*
X45660000Y-67310000D02*
X45660000Y-65980000D01*
X45660000Y-65980000D02*
X46990000Y-65980000D01*
X48260000Y-65980000D02*
X55940000Y-65980000D01*
%TO.C,J103*%
X16450000Y-12640000D02*
X16450000Y-12760000D01*
X16450000Y-12760000D02*
X19110000Y-12760000D01*
X17780000Y-10100000D02*
X19110000Y-10100000D01*
X19110000Y-10100000D02*
X19110000Y-11430000D01*
X19110000Y-12640000D02*
X19110000Y-12760000D01*
%TO.C,J143*%
X13910000Y-20260000D02*
X13910000Y-20380000D01*
X13910000Y-20380000D02*
X16570000Y-20380000D01*
X15240000Y-17720000D02*
X16570000Y-17720000D01*
X16570000Y-17720000D02*
X16570000Y-19050000D01*
X16570000Y-20260000D02*
X16570000Y-20380000D01*
%TO.C,J102*%
X8830000Y-17720000D02*
X8830000Y-17840000D01*
X8830000Y-17840000D02*
X11490000Y-17840000D01*
X10160000Y-15180000D02*
X11490000Y-15180000D01*
X11490000Y-15180000D02*
X11490000Y-16510000D01*
X11490000Y-17720000D02*
X11490000Y-17840000D01*
%TO.C,J109*%
X43120000Y-48200000D02*
X43120000Y-48320000D01*
X43120000Y-48320000D02*
X45780000Y-48320000D01*
X44450000Y-45660000D02*
X45780000Y-45660000D01*
X45780000Y-45660000D02*
X45780000Y-46990000D01*
X45780000Y-48200000D02*
X45780000Y-48320000D01*
%TO.C,J148*%
X16450000Y-38040000D02*
X16450000Y-38160000D01*
X16450000Y-38160000D02*
X19110000Y-38160000D01*
X17780000Y-35500000D02*
X19110000Y-35500000D01*
X19110000Y-35500000D02*
X19110000Y-36830000D01*
X19110000Y-38040000D02*
X19110000Y-38160000D01*
%TO.C,J145*%
X11370000Y-30420000D02*
X11370000Y-30540000D01*
X11370000Y-30540000D02*
X14030000Y-30540000D01*
X12700000Y-27880000D02*
X14030000Y-27880000D01*
X14030000Y-27880000D02*
X14030000Y-29210000D01*
X14030000Y-30420000D02*
X14030000Y-30540000D01*
%TO.C,D101*%
X11155000Y-55900000D02*
X14245000Y-55900000D01*
X12700462Y-50350001D02*
G75*
G03*
X11155170Y-55899999I-462J-2989999D01*
G01*
X14244830Y-55900000D02*
G75*
G03*
X12699538Y-50350000I-1544830J2560000D01*
G01*
X15200000Y-53340000D02*
G75*
G03*
X10200000Y-53340000I-2500000J0D01*
G01*
X10200000Y-53340000D02*
G75*
G03*
X15200000Y-53340000I2500000J0D01*
G01*
%TO.C,J110*%
X40580000Y-48200000D02*
X40580000Y-48320000D01*
X40580000Y-48320000D02*
X43240000Y-48320000D01*
X41910000Y-45660000D02*
X43240000Y-45660000D01*
X43240000Y-45660000D02*
X43240000Y-46990000D01*
X43240000Y-48200000D02*
X43240000Y-48320000D01*
%TO.C,J146*%
X11370000Y-32960000D02*
X11370000Y-33080000D01*
X11370000Y-33080000D02*
X14030000Y-33080000D01*
X12700000Y-30420000D02*
X14030000Y-30420000D01*
X14030000Y-30420000D02*
X14030000Y-31750000D01*
X14030000Y-32960000D02*
X14030000Y-33080000D01*
%TO.C,J139*%
X11370000Y-35500000D02*
X11370000Y-35620000D01*
X11370000Y-35620000D02*
X14030000Y-35620000D01*
X12700000Y-32960000D02*
X14030000Y-32960000D01*
X14030000Y-32960000D02*
X14030000Y-34290000D01*
X14030000Y-35500000D02*
X14030000Y-35620000D01*
%TO.C,J124*%
X11370000Y-22800000D02*
X11370000Y-22920000D01*
X11370000Y-22920000D02*
X14030000Y-22920000D01*
X12700000Y-20260000D02*
X14030000Y-20260000D01*
X14030000Y-20260000D02*
X14030000Y-21590000D01*
X14030000Y-22800000D02*
X14030000Y-22920000D01*
%TO.C,J141*%
X11370000Y-40580000D02*
X11370000Y-40700000D01*
X11370000Y-40700000D02*
X14030000Y-40700000D01*
X12700000Y-38040000D02*
X14030000Y-38040000D01*
X14030000Y-38040000D02*
X14030000Y-39370000D01*
X14030000Y-40580000D02*
X14030000Y-40700000D01*
%TD*%
M02*
