%TF.GenerationSoftware,KiCad,Pcbnew,7.0.10*%
%TF.CreationDate,2024-04-17T18:33:27-04:00*%
%TF.ProjectId,ping_pong,70696e67-5f70-46f6-9e67-2e6b69636164,rev?*%
%TF.SameCoordinates,Original*%
%TF.FileFunction,Legend,Top*%
%TF.FilePolarity,Positive*%
%FSLAX46Y46*%
G04 Gerber Fmt 4.6, Leading zero omitted, Abs format (unit mm)*
G04 Created by KiCad (PCBNEW 7.0.10) date 2024-04-17 18:33:27*
%MOMM*%
%LPD*%
G01*
G04 APERTURE LIST*
%ADD10C,0.150000*%
%ADD11C,0.100000*%
%ADD12C,0.120000*%
G04 APERTURE END LIST*
D10*
X4230952Y-65729580D02*
X4183333Y-65777200D01*
X4183333Y-65777200D02*
X4040476Y-65824819D01*
X4040476Y-65824819D02*
X3945238Y-65824819D01*
X3945238Y-65824819D02*
X3802381Y-65777200D01*
X3802381Y-65777200D02*
X3707143Y-65681961D01*
X3707143Y-65681961D02*
X3659524Y-65586723D01*
X3659524Y-65586723D02*
X3611905Y-65396247D01*
X3611905Y-65396247D02*
X3611905Y-65253390D01*
X3611905Y-65253390D02*
X3659524Y-65062914D01*
X3659524Y-65062914D02*
X3707143Y-64967676D01*
X3707143Y-64967676D02*
X3802381Y-64872438D01*
X3802381Y-64872438D02*
X3945238Y-64824819D01*
X3945238Y-64824819D02*
X4040476Y-64824819D01*
X4040476Y-64824819D02*
X4183333Y-64872438D01*
X4183333Y-64872438D02*
X4230952Y-64920057D01*
X5183333Y-65824819D02*
X4611905Y-65824819D01*
X4897619Y-65824819D02*
X4897619Y-64824819D01*
X4897619Y-64824819D02*
X4802381Y-64967676D01*
X4802381Y-64967676D02*
X4707143Y-65062914D01*
X4707143Y-65062914D02*
X4611905Y-65110533D01*
X5802381Y-64824819D02*
X5897619Y-64824819D01*
X5897619Y-64824819D02*
X5992857Y-64872438D01*
X5992857Y-64872438D02*
X6040476Y-64920057D01*
X6040476Y-64920057D02*
X6088095Y-65015295D01*
X6088095Y-65015295D02*
X6135714Y-65205771D01*
X6135714Y-65205771D02*
X6135714Y-65443866D01*
X6135714Y-65443866D02*
X6088095Y-65634342D01*
X6088095Y-65634342D02*
X6040476Y-65729580D01*
X6040476Y-65729580D02*
X5992857Y-65777200D01*
X5992857Y-65777200D02*
X5897619Y-65824819D01*
X5897619Y-65824819D02*
X5802381Y-65824819D01*
X5802381Y-65824819D02*
X5707143Y-65777200D01*
X5707143Y-65777200D02*
X5659524Y-65729580D01*
X5659524Y-65729580D02*
X5611905Y-65634342D01*
X5611905Y-65634342D02*
X5564286Y-65443866D01*
X5564286Y-65443866D02*
X5564286Y-65205771D01*
X5564286Y-65205771D02*
X5611905Y-65015295D01*
X5611905Y-65015295D02*
X5659524Y-64920057D01*
X5659524Y-64920057D02*
X5707143Y-64872438D01*
X5707143Y-64872438D02*
X5802381Y-64824819D01*
X6516667Y-64920057D02*
X6564286Y-64872438D01*
X6564286Y-64872438D02*
X6659524Y-64824819D01*
X6659524Y-64824819D02*
X6897619Y-64824819D01*
X6897619Y-64824819D02*
X6992857Y-64872438D01*
X6992857Y-64872438D02*
X7040476Y-64920057D01*
X7040476Y-64920057D02*
X7088095Y-65015295D01*
X7088095Y-65015295D02*
X7088095Y-65110533D01*
X7088095Y-65110533D02*
X7040476Y-65253390D01*
X7040476Y-65253390D02*
X6469048Y-65824819D01*
X6469048Y-65824819D02*
X7088095Y-65824819D01*
X94170952Y-68839580D02*
X94123333Y-68887200D01*
X94123333Y-68887200D02*
X93980476Y-68934819D01*
X93980476Y-68934819D02*
X93885238Y-68934819D01*
X93885238Y-68934819D02*
X93742381Y-68887200D01*
X93742381Y-68887200D02*
X93647143Y-68791961D01*
X93647143Y-68791961D02*
X93599524Y-68696723D01*
X93599524Y-68696723D02*
X93551905Y-68506247D01*
X93551905Y-68506247D02*
X93551905Y-68363390D01*
X93551905Y-68363390D02*
X93599524Y-68172914D01*
X93599524Y-68172914D02*
X93647143Y-68077676D01*
X93647143Y-68077676D02*
X93742381Y-67982438D01*
X93742381Y-67982438D02*
X93885238Y-67934819D01*
X93885238Y-67934819D02*
X93980476Y-67934819D01*
X93980476Y-67934819D02*
X94123333Y-67982438D01*
X94123333Y-67982438D02*
X94170952Y-68030057D01*
X95123333Y-68934819D02*
X94551905Y-68934819D01*
X94837619Y-68934819D02*
X94837619Y-67934819D01*
X94837619Y-67934819D02*
X94742381Y-68077676D01*
X94742381Y-68077676D02*
X94647143Y-68172914D01*
X94647143Y-68172914D02*
X94551905Y-68220533D01*
X95742381Y-67934819D02*
X95837619Y-67934819D01*
X95837619Y-67934819D02*
X95932857Y-67982438D01*
X95932857Y-67982438D02*
X95980476Y-68030057D01*
X95980476Y-68030057D02*
X96028095Y-68125295D01*
X96028095Y-68125295D02*
X96075714Y-68315771D01*
X96075714Y-68315771D02*
X96075714Y-68553866D01*
X96075714Y-68553866D02*
X96028095Y-68744342D01*
X96028095Y-68744342D02*
X95980476Y-68839580D01*
X95980476Y-68839580D02*
X95932857Y-68887200D01*
X95932857Y-68887200D02*
X95837619Y-68934819D01*
X95837619Y-68934819D02*
X95742381Y-68934819D01*
X95742381Y-68934819D02*
X95647143Y-68887200D01*
X95647143Y-68887200D02*
X95599524Y-68839580D01*
X95599524Y-68839580D02*
X95551905Y-68744342D01*
X95551905Y-68744342D02*
X95504286Y-68553866D01*
X95504286Y-68553866D02*
X95504286Y-68315771D01*
X95504286Y-68315771D02*
X95551905Y-68125295D01*
X95551905Y-68125295D02*
X95599524Y-68030057D01*
X95599524Y-68030057D02*
X95647143Y-67982438D01*
X95647143Y-67982438D02*
X95742381Y-67934819D01*
X97028095Y-68934819D02*
X96456667Y-68934819D01*
X96742381Y-68934819D02*
X96742381Y-67934819D01*
X96742381Y-67934819D02*
X96647143Y-68077676D01*
X96647143Y-68077676D02*
X96551905Y-68172914D01*
X96551905Y-68172914D02*
X96456667Y-68220533D01*
D11*
X23685714Y-82007419D02*
X23685714Y-82816942D01*
X23685714Y-82816942D02*
X23733333Y-82912180D01*
X23733333Y-82912180D02*
X23780952Y-82959800D01*
X23780952Y-82959800D02*
X23876190Y-83007419D01*
X23876190Y-83007419D02*
X24066666Y-83007419D01*
X24066666Y-83007419D02*
X24161904Y-82959800D01*
X24161904Y-82959800D02*
X24209523Y-82912180D01*
X24209523Y-82912180D02*
X24257142Y-82816942D01*
X24257142Y-82816942D02*
X24257142Y-82007419D01*
X25257142Y-83007419D02*
X24685714Y-83007419D01*
X24971428Y-83007419D02*
X24971428Y-82007419D01*
X24971428Y-82007419D02*
X24876190Y-82150276D01*
X24876190Y-82150276D02*
X24780952Y-82245514D01*
X24780952Y-82245514D02*
X24685714Y-82293133D01*
X25876190Y-82007419D02*
X25971428Y-82007419D01*
X25971428Y-82007419D02*
X26066666Y-82055038D01*
X26066666Y-82055038D02*
X26114285Y-82102657D01*
X26114285Y-82102657D02*
X26161904Y-82197895D01*
X26161904Y-82197895D02*
X26209523Y-82388371D01*
X26209523Y-82388371D02*
X26209523Y-82626466D01*
X26209523Y-82626466D02*
X26161904Y-82816942D01*
X26161904Y-82816942D02*
X26114285Y-82912180D01*
X26114285Y-82912180D02*
X26066666Y-82959800D01*
X26066666Y-82959800D02*
X25971428Y-83007419D01*
X25971428Y-83007419D02*
X25876190Y-83007419D01*
X25876190Y-83007419D02*
X25780952Y-82959800D01*
X25780952Y-82959800D02*
X25733333Y-82912180D01*
X25733333Y-82912180D02*
X25685714Y-82816942D01*
X25685714Y-82816942D02*
X25638095Y-82626466D01*
X25638095Y-82626466D02*
X25638095Y-82388371D01*
X25638095Y-82388371D02*
X25685714Y-82197895D01*
X25685714Y-82197895D02*
X25733333Y-82102657D01*
X25733333Y-82102657D02*
X25780952Y-82055038D01*
X25780952Y-82055038D02*
X25876190Y-82007419D01*
X27161904Y-83007419D02*
X26590476Y-83007419D01*
X26876190Y-83007419D02*
X26876190Y-82007419D01*
X26876190Y-82007419D02*
X26780952Y-82150276D01*
X26780952Y-82150276D02*
X26685714Y-82245514D01*
X26685714Y-82245514D02*
X26590476Y-82293133D01*
D10*
X31919104Y-129936666D02*
X31919104Y-129460476D01*
X32204819Y-130031904D02*
X31204819Y-129698571D01*
X31204819Y-129698571D02*
X32204819Y-129365238D01*
X32204819Y-128508095D02*
X32204819Y-129079523D01*
X32204819Y-128793809D02*
X31204819Y-128793809D01*
X31204819Y-128793809D02*
X31347676Y-128889047D01*
X31347676Y-128889047D02*
X31442914Y-128984285D01*
X31442914Y-128984285D02*
X31490533Y-129079523D01*
X31204819Y-127889047D02*
X31204819Y-127793809D01*
X31204819Y-127793809D02*
X31252438Y-127698571D01*
X31252438Y-127698571D02*
X31300057Y-127650952D01*
X31300057Y-127650952D02*
X31395295Y-127603333D01*
X31395295Y-127603333D02*
X31585771Y-127555714D01*
X31585771Y-127555714D02*
X31823866Y-127555714D01*
X31823866Y-127555714D02*
X32014342Y-127603333D01*
X32014342Y-127603333D02*
X32109580Y-127650952D01*
X32109580Y-127650952D02*
X32157200Y-127698571D01*
X32157200Y-127698571D02*
X32204819Y-127793809D01*
X32204819Y-127793809D02*
X32204819Y-127889047D01*
X32204819Y-127889047D02*
X32157200Y-127984285D01*
X32157200Y-127984285D02*
X32109580Y-128031904D01*
X32109580Y-128031904D02*
X32014342Y-128079523D01*
X32014342Y-128079523D02*
X31823866Y-128127142D01*
X31823866Y-128127142D02*
X31585771Y-128127142D01*
X31585771Y-128127142D02*
X31395295Y-128079523D01*
X31395295Y-128079523D02*
X31300057Y-128031904D01*
X31300057Y-128031904D02*
X31252438Y-127984285D01*
X31252438Y-127984285D02*
X31204819Y-127889047D01*
X31300057Y-127174761D02*
X31252438Y-127127142D01*
X31252438Y-127127142D02*
X31204819Y-127031904D01*
X31204819Y-127031904D02*
X31204819Y-126793809D01*
X31204819Y-126793809D02*
X31252438Y-126698571D01*
X31252438Y-126698571D02*
X31300057Y-126650952D01*
X31300057Y-126650952D02*
X31395295Y-126603333D01*
X31395295Y-126603333D02*
X31490533Y-126603333D01*
X31490533Y-126603333D02*
X31633390Y-126650952D01*
X31633390Y-126650952D02*
X32204819Y-127222380D01*
X32204819Y-127222380D02*
X32204819Y-126603333D01*
X52239104Y-129936666D02*
X52239104Y-129460476D01*
X52524819Y-130031904D02*
X51524819Y-129698571D01*
X51524819Y-129698571D02*
X52524819Y-129365238D01*
X52524819Y-128508095D02*
X52524819Y-129079523D01*
X52524819Y-128793809D02*
X51524819Y-128793809D01*
X51524819Y-128793809D02*
X51667676Y-128889047D01*
X51667676Y-128889047D02*
X51762914Y-128984285D01*
X51762914Y-128984285D02*
X51810533Y-129079523D01*
X51524819Y-127889047D02*
X51524819Y-127793809D01*
X51524819Y-127793809D02*
X51572438Y-127698571D01*
X51572438Y-127698571D02*
X51620057Y-127650952D01*
X51620057Y-127650952D02*
X51715295Y-127603333D01*
X51715295Y-127603333D02*
X51905771Y-127555714D01*
X51905771Y-127555714D02*
X52143866Y-127555714D01*
X52143866Y-127555714D02*
X52334342Y-127603333D01*
X52334342Y-127603333D02*
X52429580Y-127650952D01*
X52429580Y-127650952D02*
X52477200Y-127698571D01*
X52477200Y-127698571D02*
X52524819Y-127793809D01*
X52524819Y-127793809D02*
X52524819Y-127889047D01*
X52524819Y-127889047D02*
X52477200Y-127984285D01*
X52477200Y-127984285D02*
X52429580Y-128031904D01*
X52429580Y-128031904D02*
X52334342Y-128079523D01*
X52334342Y-128079523D02*
X52143866Y-128127142D01*
X52143866Y-128127142D02*
X51905771Y-128127142D01*
X51905771Y-128127142D02*
X51715295Y-128079523D01*
X51715295Y-128079523D02*
X51620057Y-128031904D01*
X51620057Y-128031904D02*
X51572438Y-127984285D01*
X51572438Y-127984285D02*
X51524819Y-127889047D01*
X51524819Y-127222380D02*
X51524819Y-126603333D01*
X51524819Y-126603333D02*
X51905771Y-126936666D01*
X51905771Y-126936666D02*
X51905771Y-126793809D01*
X51905771Y-126793809D02*
X51953390Y-126698571D01*
X51953390Y-126698571D02*
X52001009Y-126650952D01*
X52001009Y-126650952D02*
X52096247Y-126603333D01*
X52096247Y-126603333D02*
X52334342Y-126603333D01*
X52334342Y-126603333D02*
X52429580Y-126650952D01*
X52429580Y-126650952D02*
X52477200Y-126698571D01*
X52477200Y-126698571D02*
X52524819Y-126793809D01*
X52524819Y-126793809D02*
X52524819Y-127079523D01*
X52524819Y-127079523D02*
X52477200Y-127174761D01*
X52477200Y-127174761D02*
X52429580Y-127222380D01*
X6334285Y-58914819D02*
X6334285Y-59629104D01*
X6334285Y-59629104D02*
X6286666Y-59771961D01*
X6286666Y-59771961D02*
X6191428Y-59867200D01*
X6191428Y-59867200D02*
X6048571Y-59914819D01*
X6048571Y-59914819D02*
X5953333Y-59914819D01*
X7334285Y-59914819D02*
X6762857Y-59914819D01*
X7048571Y-59914819D02*
X7048571Y-58914819D01*
X7048571Y-58914819D02*
X6953333Y-59057676D01*
X6953333Y-59057676D02*
X6858095Y-59152914D01*
X6858095Y-59152914D02*
X6762857Y-59200533D01*
X7953333Y-58914819D02*
X8048571Y-58914819D01*
X8048571Y-58914819D02*
X8143809Y-58962438D01*
X8143809Y-58962438D02*
X8191428Y-59010057D01*
X8191428Y-59010057D02*
X8239047Y-59105295D01*
X8239047Y-59105295D02*
X8286666Y-59295771D01*
X8286666Y-59295771D02*
X8286666Y-59533866D01*
X8286666Y-59533866D02*
X8239047Y-59724342D01*
X8239047Y-59724342D02*
X8191428Y-59819580D01*
X8191428Y-59819580D02*
X8143809Y-59867200D01*
X8143809Y-59867200D02*
X8048571Y-59914819D01*
X8048571Y-59914819D02*
X7953333Y-59914819D01*
X7953333Y-59914819D02*
X7858095Y-59867200D01*
X7858095Y-59867200D02*
X7810476Y-59819580D01*
X7810476Y-59819580D02*
X7762857Y-59724342D01*
X7762857Y-59724342D02*
X7715238Y-59533866D01*
X7715238Y-59533866D02*
X7715238Y-59295771D01*
X7715238Y-59295771D02*
X7762857Y-59105295D01*
X7762857Y-59105295D02*
X7810476Y-59010057D01*
X7810476Y-59010057D02*
X7858095Y-58962438D01*
X7858095Y-58962438D02*
X7953333Y-58914819D01*
X9143809Y-58914819D02*
X8953333Y-58914819D01*
X8953333Y-58914819D02*
X8858095Y-58962438D01*
X8858095Y-58962438D02*
X8810476Y-59010057D01*
X8810476Y-59010057D02*
X8715238Y-59152914D01*
X8715238Y-59152914D02*
X8667619Y-59343390D01*
X8667619Y-59343390D02*
X8667619Y-59724342D01*
X8667619Y-59724342D02*
X8715238Y-59819580D01*
X8715238Y-59819580D02*
X8762857Y-59867200D01*
X8762857Y-59867200D02*
X8858095Y-59914819D01*
X8858095Y-59914819D02*
X9048571Y-59914819D01*
X9048571Y-59914819D02*
X9143809Y-59867200D01*
X9143809Y-59867200D02*
X9191428Y-59819580D01*
X9191428Y-59819580D02*
X9239047Y-59724342D01*
X9239047Y-59724342D02*
X9239047Y-59486247D01*
X9239047Y-59486247D02*
X9191428Y-59391009D01*
X9191428Y-59391009D02*
X9143809Y-59343390D01*
X9143809Y-59343390D02*
X9048571Y-59295771D01*
X9048571Y-59295771D02*
X8858095Y-59295771D01*
X8858095Y-59295771D02*
X8762857Y-59343390D01*
X8762857Y-59343390D02*
X8715238Y-59391009D01*
X8715238Y-59391009D02*
X8667619Y-59486247D01*
X2119524Y-17114819D02*
X2119524Y-16114819D01*
X2119524Y-16114819D02*
X2357619Y-16114819D01*
X2357619Y-16114819D02*
X2500476Y-16162438D01*
X2500476Y-16162438D02*
X2595714Y-16257676D01*
X2595714Y-16257676D02*
X2643333Y-16352914D01*
X2643333Y-16352914D02*
X2690952Y-16543390D01*
X2690952Y-16543390D02*
X2690952Y-16686247D01*
X2690952Y-16686247D02*
X2643333Y-16876723D01*
X2643333Y-16876723D02*
X2595714Y-16971961D01*
X2595714Y-16971961D02*
X2500476Y-17067200D01*
X2500476Y-17067200D02*
X2357619Y-17114819D01*
X2357619Y-17114819D02*
X2119524Y-17114819D01*
X3643333Y-17114819D02*
X3071905Y-17114819D01*
X3357619Y-17114819D02*
X3357619Y-16114819D01*
X3357619Y-16114819D02*
X3262381Y-16257676D01*
X3262381Y-16257676D02*
X3167143Y-16352914D01*
X3167143Y-16352914D02*
X3071905Y-16400533D01*
X4262381Y-16114819D02*
X4357619Y-16114819D01*
X4357619Y-16114819D02*
X4452857Y-16162438D01*
X4452857Y-16162438D02*
X4500476Y-16210057D01*
X4500476Y-16210057D02*
X4548095Y-16305295D01*
X4548095Y-16305295D02*
X4595714Y-16495771D01*
X4595714Y-16495771D02*
X4595714Y-16733866D01*
X4595714Y-16733866D02*
X4548095Y-16924342D01*
X4548095Y-16924342D02*
X4500476Y-17019580D01*
X4500476Y-17019580D02*
X4452857Y-17067200D01*
X4452857Y-17067200D02*
X4357619Y-17114819D01*
X4357619Y-17114819D02*
X4262381Y-17114819D01*
X4262381Y-17114819D02*
X4167143Y-17067200D01*
X4167143Y-17067200D02*
X4119524Y-17019580D01*
X4119524Y-17019580D02*
X4071905Y-16924342D01*
X4071905Y-16924342D02*
X4024286Y-16733866D01*
X4024286Y-16733866D02*
X4024286Y-16495771D01*
X4024286Y-16495771D02*
X4071905Y-16305295D01*
X4071905Y-16305295D02*
X4119524Y-16210057D01*
X4119524Y-16210057D02*
X4167143Y-16162438D01*
X4167143Y-16162438D02*
X4262381Y-16114819D01*
X5548095Y-17114819D02*
X4976667Y-17114819D01*
X5262381Y-17114819D02*
X5262381Y-16114819D01*
X5262381Y-16114819D02*
X5167143Y-16257676D01*
X5167143Y-16257676D02*
X5071905Y-16352914D01*
X5071905Y-16352914D02*
X4976667Y-16400533D01*
X3285714Y-140074819D02*
X3285714Y-139074819D01*
X3285714Y-139551009D02*
X3857142Y-139551009D01*
X3857142Y-140074819D02*
X3857142Y-139074819D01*
X4857142Y-140074819D02*
X4285714Y-140074819D01*
X4571428Y-140074819D02*
X4571428Y-139074819D01*
X4571428Y-139074819D02*
X4476190Y-139217676D01*
X4476190Y-139217676D02*
X4380952Y-139312914D01*
X4380952Y-139312914D02*
X4285714Y-139360533D01*
X5476190Y-139074819D02*
X5571428Y-139074819D01*
X5571428Y-139074819D02*
X5666666Y-139122438D01*
X5666666Y-139122438D02*
X5714285Y-139170057D01*
X5714285Y-139170057D02*
X5761904Y-139265295D01*
X5761904Y-139265295D02*
X5809523Y-139455771D01*
X5809523Y-139455771D02*
X5809523Y-139693866D01*
X5809523Y-139693866D02*
X5761904Y-139884342D01*
X5761904Y-139884342D02*
X5714285Y-139979580D01*
X5714285Y-139979580D02*
X5666666Y-140027200D01*
X5666666Y-140027200D02*
X5571428Y-140074819D01*
X5571428Y-140074819D02*
X5476190Y-140074819D01*
X5476190Y-140074819D02*
X5380952Y-140027200D01*
X5380952Y-140027200D02*
X5333333Y-139979580D01*
X5333333Y-139979580D02*
X5285714Y-139884342D01*
X5285714Y-139884342D02*
X5238095Y-139693866D01*
X5238095Y-139693866D02*
X5238095Y-139455771D01*
X5238095Y-139455771D02*
X5285714Y-139265295D01*
X5285714Y-139265295D02*
X5333333Y-139170057D01*
X5333333Y-139170057D02*
X5380952Y-139122438D01*
X5380952Y-139122438D02*
X5476190Y-139074819D01*
X6142857Y-139074819D02*
X6761904Y-139074819D01*
X6761904Y-139074819D02*
X6428571Y-139455771D01*
X6428571Y-139455771D02*
X6571428Y-139455771D01*
X6571428Y-139455771D02*
X6666666Y-139503390D01*
X6666666Y-139503390D02*
X6714285Y-139551009D01*
X6714285Y-139551009D02*
X6761904Y-139646247D01*
X6761904Y-139646247D02*
X6761904Y-139884342D01*
X6761904Y-139884342D02*
X6714285Y-139979580D01*
X6714285Y-139979580D02*
X6666666Y-140027200D01*
X6666666Y-140027200D02*
X6571428Y-140074819D01*
X6571428Y-140074819D02*
X6285714Y-140074819D01*
X6285714Y-140074819D02*
X6190476Y-140027200D01*
X6190476Y-140027200D02*
X6142857Y-139979580D01*
D11*
X63727419Y-95694285D02*
X64536942Y-95694285D01*
X64536942Y-95694285D02*
X64632180Y-95646666D01*
X64632180Y-95646666D02*
X64679800Y-95599047D01*
X64679800Y-95599047D02*
X64727419Y-95503809D01*
X64727419Y-95503809D02*
X64727419Y-95313333D01*
X64727419Y-95313333D02*
X64679800Y-95218095D01*
X64679800Y-95218095D02*
X64632180Y-95170476D01*
X64632180Y-95170476D02*
X64536942Y-95122857D01*
X64536942Y-95122857D02*
X63727419Y-95122857D01*
X64727419Y-94122857D02*
X64727419Y-94694285D01*
X64727419Y-94408571D02*
X63727419Y-94408571D01*
X63727419Y-94408571D02*
X63870276Y-94503809D01*
X63870276Y-94503809D02*
X63965514Y-94599047D01*
X63965514Y-94599047D02*
X64013133Y-94694285D01*
X63727419Y-93503809D02*
X63727419Y-93408571D01*
X63727419Y-93408571D02*
X63775038Y-93313333D01*
X63775038Y-93313333D02*
X63822657Y-93265714D01*
X63822657Y-93265714D02*
X63917895Y-93218095D01*
X63917895Y-93218095D02*
X64108371Y-93170476D01*
X64108371Y-93170476D02*
X64346466Y-93170476D01*
X64346466Y-93170476D02*
X64536942Y-93218095D01*
X64536942Y-93218095D02*
X64632180Y-93265714D01*
X64632180Y-93265714D02*
X64679800Y-93313333D01*
X64679800Y-93313333D02*
X64727419Y-93408571D01*
X64727419Y-93408571D02*
X64727419Y-93503809D01*
X64727419Y-93503809D02*
X64679800Y-93599047D01*
X64679800Y-93599047D02*
X64632180Y-93646666D01*
X64632180Y-93646666D02*
X64536942Y-93694285D01*
X64536942Y-93694285D02*
X64346466Y-93741904D01*
X64346466Y-93741904D02*
X64108371Y-93741904D01*
X64108371Y-93741904D02*
X63917895Y-93694285D01*
X63917895Y-93694285D02*
X63822657Y-93646666D01*
X63822657Y-93646666D02*
X63775038Y-93599047D01*
X63775038Y-93599047D02*
X63727419Y-93503809D01*
X63822657Y-92789523D02*
X63775038Y-92741904D01*
X63775038Y-92741904D02*
X63727419Y-92646666D01*
X63727419Y-92646666D02*
X63727419Y-92408571D01*
X63727419Y-92408571D02*
X63775038Y-92313333D01*
X63775038Y-92313333D02*
X63822657Y-92265714D01*
X63822657Y-92265714D02*
X63917895Y-92218095D01*
X63917895Y-92218095D02*
X64013133Y-92218095D01*
X64013133Y-92218095D02*
X64155990Y-92265714D01*
X64155990Y-92265714D02*
X64727419Y-92837142D01*
X64727419Y-92837142D02*
X64727419Y-92218095D01*
D10*
X56374819Y-138455714D02*
X57089104Y-138455714D01*
X57089104Y-138455714D02*
X57231961Y-138503333D01*
X57231961Y-138503333D02*
X57327200Y-138598571D01*
X57327200Y-138598571D02*
X57374819Y-138741428D01*
X57374819Y-138741428D02*
X57374819Y-138836666D01*
X57374819Y-137455714D02*
X57374819Y-138027142D01*
X57374819Y-137741428D02*
X56374819Y-137741428D01*
X56374819Y-137741428D02*
X56517676Y-137836666D01*
X56517676Y-137836666D02*
X56612914Y-137931904D01*
X56612914Y-137931904D02*
X56660533Y-138027142D01*
X57374819Y-136503333D02*
X57374819Y-137074761D01*
X57374819Y-136789047D02*
X56374819Y-136789047D01*
X56374819Y-136789047D02*
X56517676Y-136884285D01*
X56517676Y-136884285D02*
X56612914Y-136979523D01*
X56612914Y-136979523D02*
X56660533Y-137074761D01*
X56374819Y-135598571D02*
X56374819Y-136074761D01*
X56374819Y-136074761D02*
X56851009Y-136122380D01*
X56851009Y-136122380D02*
X56803390Y-136074761D01*
X56803390Y-136074761D02*
X56755771Y-135979523D01*
X56755771Y-135979523D02*
X56755771Y-135741428D01*
X56755771Y-135741428D02*
X56803390Y-135646190D01*
X56803390Y-135646190D02*
X56851009Y-135598571D01*
X56851009Y-135598571D02*
X56946247Y-135550952D01*
X56946247Y-135550952D02*
X57184342Y-135550952D01*
X57184342Y-135550952D02*
X57279580Y-135598571D01*
X57279580Y-135598571D02*
X57327200Y-135646190D01*
X57327200Y-135646190D02*
X57374819Y-135741428D01*
X57374819Y-135741428D02*
X57374819Y-135979523D01*
X57374819Y-135979523D02*
X57327200Y-136074761D01*
X57327200Y-136074761D02*
X57279580Y-136122380D01*
X-645180Y-21439047D02*
X-1121371Y-21772380D01*
X-645180Y-22010475D02*
X-1645180Y-22010475D01*
X-1645180Y-22010475D02*
X-1645180Y-21629523D01*
X-1645180Y-21629523D02*
X-1597561Y-21534285D01*
X-1597561Y-21534285D02*
X-1549942Y-21486666D01*
X-1549942Y-21486666D02*
X-1454704Y-21439047D01*
X-1454704Y-21439047D02*
X-1311847Y-21439047D01*
X-1311847Y-21439047D02*
X-1216609Y-21486666D01*
X-1216609Y-21486666D02*
X-1168990Y-21534285D01*
X-1168990Y-21534285D02*
X-1121371Y-21629523D01*
X-1121371Y-21629523D02*
X-1121371Y-22010475D01*
X-645180Y-20486666D02*
X-645180Y-21058094D01*
X-645180Y-20772380D02*
X-1645180Y-20772380D01*
X-1645180Y-20772380D02*
X-1502323Y-20867618D01*
X-1502323Y-20867618D02*
X-1407085Y-20962856D01*
X-1407085Y-20962856D02*
X-1359466Y-21058094D01*
X-1645180Y-19867618D02*
X-1645180Y-19772380D01*
X-1645180Y-19772380D02*
X-1597561Y-19677142D01*
X-1597561Y-19677142D02*
X-1549942Y-19629523D01*
X-1549942Y-19629523D02*
X-1454704Y-19581904D01*
X-1454704Y-19581904D02*
X-1264228Y-19534285D01*
X-1264228Y-19534285D02*
X-1026133Y-19534285D01*
X-1026133Y-19534285D02*
X-835657Y-19581904D01*
X-835657Y-19581904D02*
X-740419Y-19629523D01*
X-740419Y-19629523D02*
X-692800Y-19677142D01*
X-692800Y-19677142D02*
X-645180Y-19772380D01*
X-645180Y-19772380D02*
X-645180Y-19867618D01*
X-645180Y-19867618D02*
X-692800Y-19962856D01*
X-692800Y-19962856D02*
X-740419Y-20010475D01*
X-740419Y-20010475D02*
X-835657Y-20058094D01*
X-835657Y-20058094D02*
X-1026133Y-20105713D01*
X-1026133Y-20105713D02*
X-1264228Y-20105713D01*
X-1264228Y-20105713D02*
X-1454704Y-20058094D01*
X-1454704Y-20058094D02*
X-1549942Y-20010475D01*
X-1549942Y-20010475D02*
X-1597561Y-19962856D01*
X-1597561Y-19962856D02*
X-1645180Y-19867618D01*
X-645180Y-18581904D02*
X-645180Y-19153332D01*
X-645180Y-18867618D02*
X-1645180Y-18867618D01*
X-1645180Y-18867618D02*
X-1502323Y-18962856D01*
X-1502323Y-18962856D02*
X-1407085Y-19058094D01*
X-1407085Y-19058094D02*
X-1359466Y-19153332D01*
X11599104Y-129936666D02*
X11599104Y-129460476D01*
X11884819Y-130031904D02*
X10884819Y-129698571D01*
X10884819Y-129698571D02*
X11884819Y-129365238D01*
X11884819Y-128508095D02*
X11884819Y-129079523D01*
X11884819Y-128793809D02*
X10884819Y-128793809D01*
X10884819Y-128793809D02*
X11027676Y-128889047D01*
X11027676Y-128889047D02*
X11122914Y-128984285D01*
X11122914Y-128984285D02*
X11170533Y-129079523D01*
X10884819Y-127889047D02*
X10884819Y-127793809D01*
X10884819Y-127793809D02*
X10932438Y-127698571D01*
X10932438Y-127698571D02*
X10980057Y-127650952D01*
X10980057Y-127650952D02*
X11075295Y-127603333D01*
X11075295Y-127603333D02*
X11265771Y-127555714D01*
X11265771Y-127555714D02*
X11503866Y-127555714D01*
X11503866Y-127555714D02*
X11694342Y-127603333D01*
X11694342Y-127603333D02*
X11789580Y-127650952D01*
X11789580Y-127650952D02*
X11837200Y-127698571D01*
X11837200Y-127698571D02*
X11884819Y-127793809D01*
X11884819Y-127793809D02*
X11884819Y-127889047D01*
X11884819Y-127889047D02*
X11837200Y-127984285D01*
X11837200Y-127984285D02*
X11789580Y-128031904D01*
X11789580Y-128031904D02*
X11694342Y-128079523D01*
X11694342Y-128079523D02*
X11503866Y-128127142D01*
X11503866Y-128127142D02*
X11265771Y-128127142D01*
X11265771Y-128127142D02*
X11075295Y-128079523D01*
X11075295Y-128079523D02*
X10980057Y-128031904D01*
X10980057Y-128031904D02*
X10932438Y-127984285D01*
X10932438Y-127984285D02*
X10884819Y-127889047D01*
X11884819Y-126603333D02*
X11884819Y-127174761D01*
X11884819Y-126889047D02*
X10884819Y-126889047D01*
X10884819Y-126889047D02*
X11027676Y-126984285D01*
X11027676Y-126984285D02*
X11122914Y-127079523D01*
X11122914Y-127079523D02*
X11170533Y-127174761D01*
D11*
X27495714Y-103597419D02*
X27495714Y-104406942D01*
X27495714Y-104406942D02*
X27543333Y-104502180D01*
X27543333Y-104502180D02*
X27590952Y-104549800D01*
X27590952Y-104549800D02*
X27686190Y-104597419D01*
X27686190Y-104597419D02*
X27876666Y-104597419D01*
X27876666Y-104597419D02*
X27971904Y-104549800D01*
X27971904Y-104549800D02*
X28019523Y-104502180D01*
X28019523Y-104502180D02*
X28067142Y-104406942D01*
X28067142Y-104406942D02*
X28067142Y-103597419D01*
X29067142Y-104597419D02*
X28495714Y-104597419D01*
X28781428Y-104597419D02*
X28781428Y-103597419D01*
X28781428Y-103597419D02*
X28686190Y-103740276D01*
X28686190Y-103740276D02*
X28590952Y-103835514D01*
X28590952Y-103835514D02*
X28495714Y-103883133D01*
X29686190Y-103597419D02*
X29781428Y-103597419D01*
X29781428Y-103597419D02*
X29876666Y-103645038D01*
X29876666Y-103645038D02*
X29924285Y-103692657D01*
X29924285Y-103692657D02*
X29971904Y-103787895D01*
X29971904Y-103787895D02*
X30019523Y-103978371D01*
X30019523Y-103978371D02*
X30019523Y-104216466D01*
X30019523Y-104216466D02*
X29971904Y-104406942D01*
X29971904Y-104406942D02*
X29924285Y-104502180D01*
X29924285Y-104502180D02*
X29876666Y-104549800D01*
X29876666Y-104549800D02*
X29781428Y-104597419D01*
X29781428Y-104597419D02*
X29686190Y-104597419D01*
X29686190Y-104597419D02*
X29590952Y-104549800D01*
X29590952Y-104549800D02*
X29543333Y-104502180D01*
X29543333Y-104502180D02*
X29495714Y-104406942D01*
X29495714Y-104406942D02*
X29448095Y-104216466D01*
X29448095Y-104216466D02*
X29448095Y-103978371D01*
X29448095Y-103978371D02*
X29495714Y-103787895D01*
X29495714Y-103787895D02*
X29543333Y-103692657D01*
X29543333Y-103692657D02*
X29590952Y-103645038D01*
X29590952Y-103645038D02*
X29686190Y-103597419D01*
X30876666Y-103597419D02*
X30686190Y-103597419D01*
X30686190Y-103597419D02*
X30590952Y-103645038D01*
X30590952Y-103645038D02*
X30543333Y-103692657D01*
X30543333Y-103692657D02*
X30448095Y-103835514D01*
X30448095Y-103835514D02*
X30400476Y-104025990D01*
X30400476Y-104025990D02*
X30400476Y-104406942D01*
X30400476Y-104406942D02*
X30448095Y-104502180D01*
X30448095Y-104502180D02*
X30495714Y-104549800D01*
X30495714Y-104549800D02*
X30590952Y-104597419D01*
X30590952Y-104597419D02*
X30781428Y-104597419D01*
X30781428Y-104597419D02*
X30876666Y-104549800D01*
X30876666Y-104549800D02*
X30924285Y-104502180D01*
X30924285Y-104502180D02*
X30971904Y-104406942D01*
X30971904Y-104406942D02*
X30971904Y-104168847D01*
X30971904Y-104168847D02*
X30924285Y-104073609D01*
X30924285Y-104073609D02*
X30876666Y-104025990D01*
X30876666Y-104025990D02*
X30781428Y-103978371D01*
X30781428Y-103978371D02*
X30590952Y-103978371D01*
X30590952Y-103978371D02*
X30495714Y-104025990D01*
X30495714Y-104025990D02*
X30448095Y-104073609D01*
X30448095Y-104073609D02*
X30400476Y-104168847D01*
D10*
X76694819Y-138455714D02*
X77409104Y-138455714D01*
X77409104Y-138455714D02*
X77551961Y-138503333D01*
X77551961Y-138503333D02*
X77647200Y-138598571D01*
X77647200Y-138598571D02*
X77694819Y-138741428D01*
X77694819Y-138741428D02*
X77694819Y-138836666D01*
X77694819Y-137455714D02*
X77694819Y-138027142D01*
X77694819Y-137741428D02*
X76694819Y-137741428D01*
X76694819Y-137741428D02*
X76837676Y-137836666D01*
X76837676Y-137836666D02*
X76932914Y-137931904D01*
X76932914Y-137931904D02*
X76980533Y-138027142D01*
X77694819Y-136503333D02*
X77694819Y-137074761D01*
X77694819Y-136789047D02*
X76694819Y-136789047D01*
X76694819Y-136789047D02*
X76837676Y-136884285D01*
X76837676Y-136884285D02*
X76932914Y-136979523D01*
X76932914Y-136979523D02*
X76980533Y-137074761D01*
X77694819Y-136027142D02*
X77694819Y-135836666D01*
X77694819Y-135836666D02*
X77647200Y-135741428D01*
X77647200Y-135741428D02*
X77599580Y-135693809D01*
X77599580Y-135693809D02*
X77456723Y-135598571D01*
X77456723Y-135598571D02*
X77266247Y-135550952D01*
X77266247Y-135550952D02*
X76885295Y-135550952D01*
X76885295Y-135550952D02*
X76790057Y-135598571D01*
X76790057Y-135598571D02*
X76742438Y-135646190D01*
X76742438Y-135646190D02*
X76694819Y-135741428D01*
X76694819Y-135741428D02*
X76694819Y-135931904D01*
X76694819Y-135931904D02*
X76742438Y-136027142D01*
X76742438Y-136027142D02*
X76790057Y-136074761D01*
X76790057Y-136074761D02*
X76885295Y-136122380D01*
X76885295Y-136122380D02*
X77123390Y-136122380D01*
X77123390Y-136122380D02*
X77218628Y-136074761D01*
X77218628Y-136074761D02*
X77266247Y-136027142D01*
X77266247Y-136027142D02*
X77313866Y-135931904D01*
X77313866Y-135931904D02*
X77313866Y-135741428D01*
X77313866Y-135741428D02*
X77266247Y-135646190D01*
X77266247Y-135646190D02*
X77218628Y-135598571D01*
X77218628Y-135598571D02*
X77123390Y-135550952D01*
X6334285Y-61454819D02*
X6334285Y-62169104D01*
X6334285Y-62169104D02*
X6286666Y-62311961D01*
X6286666Y-62311961D02*
X6191428Y-62407200D01*
X6191428Y-62407200D02*
X6048571Y-62454819D01*
X6048571Y-62454819D02*
X5953333Y-62454819D01*
X7334285Y-62454819D02*
X6762857Y-62454819D01*
X7048571Y-62454819D02*
X7048571Y-61454819D01*
X7048571Y-61454819D02*
X6953333Y-61597676D01*
X6953333Y-61597676D02*
X6858095Y-61692914D01*
X6858095Y-61692914D02*
X6762857Y-61740533D01*
X7953333Y-61454819D02*
X8048571Y-61454819D01*
X8048571Y-61454819D02*
X8143809Y-61502438D01*
X8143809Y-61502438D02*
X8191428Y-61550057D01*
X8191428Y-61550057D02*
X8239047Y-61645295D01*
X8239047Y-61645295D02*
X8286666Y-61835771D01*
X8286666Y-61835771D02*
X8286666Y-62073866D01*
X8286666Y-62073866D02*
X8239047Y-62264342D01*
X8239047Y-62264342D02*
X8191428Y-62359580D01*
X8191428Y-62359580D02*
X8143809Y-62407200D01*
X8143809Y-62407200D02*
X8048571Y-62454819D01*
X8048571Y-62454819D02*
X7953333Y-62454819D01*
X7953333Y-62454819D02*
X7858095Y-62407200D01*
X7858095Y-62407200D02*
X7810476Y-62359580D01*
X7810476Y-62359580D02*
X7762857Y-62264342D01*
X7762857Y-62264342D02*
X7715238Y-62073866D01*
X7715238Y-62073866D02*
X7715238Y-61835771D01*
X7715238Y-61835771D02*
X7762857Y-61645295D01*
X7762857Y-61645295D02*
X7810476Y-61550057D01*
X7810476Y-61550057D02*
X7858095Y-61502438D01*
X7858095Y-61502438D02*
X7953333Y-61454819D01*
X9239047Y-62454819D02*
X8667619Y-62454819D01*
X8953333Y-62454819D02*
X8953333Y-61454819D01*
X8953333Y-61454819D02*
X8858095Y-61597676D01*
X8858095Y-61597676D02*
X8762857Y-61692914D01*
X8762857Y-61692914D02*
X8667619Y-61740533D01*
D11*
X50257419Y-37274285D02*
X51066942Y-37274285D01*
X51066942Y-37274285D02*
X51162180Y-37226666D01*
X51162180Y-37226666D02*
X51209800Y-37179047D01*
X51209800Y-37179047D02*
X51257419Y-37083809D01*
X51257419Y-37083809D02*
X51257419Y-36893333D01*
X51257419Y-36893333D02*
X51209800Y-36798095D01*
X51209800Y-36798095D02*
X51162180Y-36750476D01*
X51162180Y-36750476D02*
X51066942Y-36702857D01*
X51066942Y-36702857D02*
X50257419Y-36702857D01*
X51257419Y-35702857D02*
X51257419Y-36274285D01*
X51257419Y-35988571D02*
X50257419Y-35988571D01*
X50257419Y-35988571D02*
X50400276Y-36083809D01*
X50400276Y-36083809D02*
X50495514Y-36179047D01*
X50495514Y-36179047D02*
X50543133Y-36274285D01*
X50257419Y-35083809D02*
X50257419Y-34988571D01*
X50257419Y-34988571D02*
X50305038Y-34893333D01*
X50305038Y-34893333D02*
X50352657Y-34845714D01*
X50352657Y-34845714D02*
X50447895Y-34798095D01*
X50447895Y-34798095D02*
X50638371Y-34750476D01*
X50638371Y-34750476D02*
X50876466Y-34750476D01*
X50876466Y-34750476D02*
X51066942Y-34798095D01*
X51066942Y-34798095D02*
X51162180Y-34845714D01*
X51162180Y-34845714D02*
X51209800Y-34893333D01*
X51209800Y-34893333D02*
X51257419Y-34988571D01*
X51257419Y-34988571D02*
X51257419Y-35083809D01*
X51257419Y-35083809D02*
X51209800Y-35179047D01*
X51209800Y-35179047D02*
X51162180Y-35226666D01*
X51162180Y-35226666D02*
X51066942Y-35274285D01*
X51066942Y-35274285D02*
X50876466Y-35321904D01*
X50876466Y-35321904D02*
X50638371Y-35321904D01*
X50638371Y-35321904D02*
X50447895Y-35274285D01*
X50447895Y-35274285D02*
X50352657Y-35226666D01*
X50352657Y-35226666D02*
X50305038Y-35179047D01*
X50305038Y-35179047D02*
X50257419Y-35083809D01*
X50257419Y-34417142D02*
X50257419Y-33750476D01*
X50257419Y-33750476D02*
X51257419Y-34179047D01*
D10*
X93285714Y-140074819D02*
X93285714Y-139074819D01*
X93285714Y-139551009D02*
X93857142Y-139551009D01*
X93857142Y-140074819D02*
X93857142Y-139074819D01*
X94857142Y-140074819D02*
X94285714Y-140074819D01*
X94571428Y-140074819D02*
X94571428Y-139074819D01*
X94571428Y-139074819D02*
X94476190Y-139217676D01*
X94476190Y-139217676D02*
X94380952Y-139312914D01*
X94380952Y-139312914D02*
X94285714Y-139360533D01*
X95476190Y-139074819D02*
X95571428Y-139074819D01*
X95571428Y-139074819D02*
X95666666Y-139122438D01*
X95666666Y-139122438D02*
X95714285Y-139170057D01*
X95714285Y-139170057D02*
X95761904Y-139265295D01*
X95761904Y-139265295D02*
X95809523Y-139455771D01*
X95809523Y-139455771D02*
X95809523Y-139693866D01*
X95809523Y-139693866D02*
X95761904Y-139884342D01*
X95761904Y-139884342D02*
X95714285Y-139979580D01*
X95714285Y-139979580D02*
X95666666Y-140027200D01*
X95666666Y-140027200D02*
X95571428Y-140074819D01*
X95571428Y-140074819D02*
X95476190Y-140074819D01*
X95476190Y-140074819D02*
X95380952Y-140027200D01*
X95380952Y-140027200D02*
X95333333Y-139979580D01*
X95333333Y-139979580D02*
X95285714Y-139884342D01*
X95285714Y-139884342D02*
X95238095Y-139693866D01*
X95238095Y-139693866D02*
X95238095Y-139455771D01*
X95238095Y-139455771D02*
X95285714Y-139265295D01*
X95285714Y-139265295D02*
X95333333Y-139170057D01*
X95333333Y-139170057D02*
X95380952Y-139122438D01*
X95380952Y-139122438D02*
X95476190Y-139074819D01*
X96666666Y-139408152D02*
X96666666Y-140074819D01*
X96428571Y-139027200D02*
X96190476Y-139741485D01*
X96190476Y-139741485D02*
X96809523Y-139741485D01*
D11*
X84047419Y-95694285D02*
X84856942Y-95694285D01*
X84856942Y-95694285D02*
X84952180Y-95646666D01*
X84952180Y-95646666D02*
X84999800Y-95599047D01*
X84999800Y-95599047D02*
X85047419Y-95503809D01*
X85047419Y-95503809D02*
X85047419Y-95313333D01*
X85047419Y-95313333D02*
X84999800Y-95218095D01*
X84999800Y-95218095D02*
X84952180Y-95170476D01*
X84952180Y-95170476D02*
X84856942Y-95122857D01*
X84856942Y-95122857D02*
X84047419Y-95122857D01*
X85047419Y-94122857D02*
X85047419Y-94694285D01*
X85047419Y-94408571D02*
X84047419Y-94408571D01*
X84047419Y-94408571D02*
X84190276Y-94503809D01*
X84190276Y-94503809D02*
X84285514Y-94599047D01*
X84285514Y-94599047D02*
X84333133Y-94694285D01*
X84047419Y-93503809D02*
X84047419Y-93408571D01*
X84047419Y-93408571D02*
X84095038Y-93313333D01*
X84095038Y-93313333D02*
X84142657Y-93265714D01*
X84142657Y-93265714D02*
X84237895Y-93218095D01*
X84237895Y-93218095D02*
X84428371Y-93170476D01*
X84428371Y-93170476D02*
X84666466Y-93170476D01*
X84666466Y-93170476D02*
X84856942Y-93218095D01*
X84856942Y-93218095D02*
X84952180Y-93265714D01*
X84952180Y-93265714D02*
X84999800Y-93313333D01*
X84999800Y-93313333D02*
X85047419Y-93408571D01*
X85047419Y-93408571D02*
X85047419Y-93503809D01*
X85047419Y-93503809D02*
X84999800Y-93599047D01*
X84999800Y-93599047D02*
X84952180Y-93646666D01*
X84952180Y-93646666D02*
X84856942Y-93694285D01*
X84856942Y-93694285D02*
X84666466Y-93741904D01*
X84666466Y-93741904D02*
X84428371Y-93741904D01*
X84428371Y-93741904D02*
X84237895Y-93694285D01*
X84237895Y-93694285D02*
X84142657Y-93646666D01*
X84142657Y-93646666D02*
X84095038Y-93599047D01*
X84095038Y-93599047D02*
X84047419Y-93503809D01*
X84047419Y-92837142D02*
X84047419Y-92218095D01*
X84047419Y-92218095D02*
X84428371Y-92551428D01*
X84428371Y-92551428D02*
X84428371Y-92408571D01*
X84428371Y-92408571D02*
X84475990Y-92313333D01*
X84475990Y-92313333D02*
X84523609Y-92265714D01*
X84523609Y-92265714D02*
X84618847Y-92218095D01*
X84618847Y-92218095D02*
X84856942Y-92218095D01*
X84856942Y-92218095D02*
X84952180Y-92265714D01*
X84952180Y-92265714D02*
X84999800Y-92313333D01*
X84999800Y-92313333D02*
X85047419Y-92408571D01*
X85047419Y-92408571D02*
X85047419Y-92694285D01*
X85047419Y-92694285D02*
X84999800Y-92789523D01*
X84999800Y-92789523D02*
X84952180Y-92837142D01*
D10*
X15744819Y-138430714D02*
X16459104Y-138430714D01*
X16459104Y-138430714D02*
X16601961Y-138478333D01*
X16601961Y-138478333D02*
X16697200Y-138573571D01*
X16697200Y-138573571D02*
X16744819Y-138716428D01*
X16744819Y-138716428D02*
X16744819Y-138811666D01*
X16744819Y-137430714D02*
X16744819Y-138002142D01*
X16744819Y-137716428D02*
X15744819Y-137716428D01*
X15744819Y-137716428D02*
X15887676Y-137811666D01*
X15887676Y-137811666D02*
X15982914Y-137906904D01*
X15982914Y-137906904D02*
X16030533Y-138002142D01*
X15744819Y-136811666D02*
X15744819Y-136716428D01*
X15744819Y-136716428D02*
X15792438Y-136621190D01*
X15792438Y-136621190D02*
X15840057Y-136573571D01*
X15840057Y-136573571D02*
X15935295Y-136525952D01*
X15935295Y-136525952D02*
X16125771Y-136478333D01*
X16125771Y-136478333D02*
X16363866Y-136478333D01*
X16363866Y-136478333D02*
X16554342Y-136525952D01*
X16554342Y-136525952D02*
X16649580Y-136573571D01*
X16649580Y-136573571D02*
X16697200Y-136621190D01*
X16697200Y-136621190D02*
X16744819Y-136716428D01*
X16744819Y-136716428D02*
X16744819Y-136811666D01*
X16744819Y-136811666D02*
X16697200Y-136906904D01*
X16697200Y-136906904D02*
X16649580Y-136954523D01*
X16649580Y-136954523D02*
X16554342Y-137002142D01*
X16554342Y-137002142D02*
X16363866Y-137049761D01*
X16363866Y-137049761D02*
X16125771Y-137049761D01*
X16125771Y-137049761D02*
X15935295Y-137002142D01*
X15935295Y-137002142D02*
X15840057Y-136954523D01*
X15840057Y-136954523D02*
X15792438Y-136906904D01*
X15792438Y-136906904D02*
X15744819Y-136811666D01*
X16078152Y-135621190D02*
X16744819Y-135621190D01*
X15697200Y-135859285D02*
X16411485Y-136097380D01*
X16411485Y-136097380D02*
X16411485Y-135478333D01*
X2524285Y-110984819D02*
X2524285Y-111699104D01*
X2524285Y-111699104D02*
X2476666Y-111841961D01*
X2476666Y-111841961D02*
X2381428Y-111937200D01*
X2381428Y-111937200D02*
X2238571Y-111984819D01*
X2238571Y-111984819D02*
X2143333Y-111984819D01*
X3524285Y-111984819D02*
X2952857Y-111984819D01*
X3238571Y-111984819D02*
X3238571Y-110984819D01*
X3238571Y-110984819D02*
X3143333Y-111127676D01*
X3143333Y-111127676D02*
X3048095Y-111222914D01*
X3048095Y-111222914D02*
X2952857Y-111270533D01*
X3857619Y-110984819D02*
X4476666Y-110984819D01*
X4476666Y-110984819D02*
X4143333Y-111365771D01*
X4143333Y-111365771D02*
X4286190Y-111365771D01*
X4286190Y-111365771D02*
X4381428Y-111413390D01*
X4381428Y-111413390D02*
X4429047Y-111461009D01*
X4429047Y-111461009D02*
X4476666Y-111556247D01*
X4476666Y-111556247D02*
X4476666Y-111794342D01*
X4476666Y-111794342D02*
X4429047Y-111889580D01*
X4429047Y-111889580D02*
X4381428Y-111937200D01*
X4381428Y-111937200D02*
X4286190Y-111984819D01*
X4286190Y-111984819D02*
X4000476Y-111984819D01*
X4000476Y-111984819D02*
X3905238Y-111937200D01*
X3905238Y-111937200D02*
X3857619Y-111889580D01*
X5095714Y-110984819D02*
X5190952Y-110984819D01*
X5190952Y-110984819D02*
X5286190Y-111032438D01*
X5286190Y-111032438D02*
X5333809Y-111080057D01*
X5333809Y-111080057D02*
X5381428Y-111175295D01*
X5381428Y-111175295D02*
X5429047Y-111365771D01*
X5429047Y-111365771D02*
X5429047Y-111603866D01*
X5429047Y-111603866D02*
X5381428Y-111794342D01*
X5381428Y-111794342D02*
X5333809Y-111889580D01*
X5333809Y-111889580D02*
X5286190Y-111937200D01*
X5286190Y-111937200D02*
X5190952Y-111984819D01*
X5190952Y-111984819D02*
X5095714Y-111984819D01*
X5095714Y-111984819D02*
X5000476Y-111937200D01*
X5000476Y-111937200D02*
X4952857Y-111889580D01*
X4952857Y-111889580D02*
X4905238Y-111794342D01*
X4905238Y-111794342D02*
X4857619Y-111603866D01*
X4857619Y-111603866D02*
X4857619Y-111365771D01*
X4857619Y-111365771D02*
X4905238Y-111175295D01*
X4905238Y-111175295D02*
X4952857Y-111080057D01*
X4952857Y-111080057D02*
X5000476Y-111032438D01*
X5000476Y-111032438D02*
X5095714Y-110984819D01*
X3794285Y-23354819D02*
X3794285Y-24069104D01*
X3794285Y-24069104D02*
X3746666Y-24211961D01*
X3746666Y-24211961D02*
X3651428Y-24307200D01*
X3651428Y-24307200D02*
X3508571Y-24354819D01*
X3508571Y-24354819D02*
X3413333Y-24354819D01*
X4794285Y-24354819D02*
X4222857Y-24354819D01*
X4508571Y-24354819D02*
X4508571Y-23354819D01*
X4508571Y-23354819D02*
X4413333Y-23497676D01*
X4413333Y-23497676D02*
X4318095Y-23592914D01*
X4318095Y-23592914D02*
X4222857Y-23640533D01*
X5413333Y-23354819D02*
X5508571Y-23354819D01*
X5508571Y-23354819D02*
X5603809Y-23402438D01*
X5603809Y-23402438D02*
X5651428Y-23450057D01*
X5651428Y-23450057D02*
X5699047Y-23545295D01*
X5699047Y-23545295D02*
X5746666Y-23735771D01*
X5746666Y-23735771D02*
X5746666Y-23973866D01*
X5746666Y-23973866D02*
X5699047Y-24164342D01*
X5699047Y-24164342D02*
X5651428Y-24259580D01*
X5651428Y-24259580D02*
X5603809Y-24307200D01*
X5603809Y-24307200D02*
X5508571Y-24354819D01*
X5508571Y-24354819D02*
X5413333Y-24354819D01*
X5413333Y-24354819D02*
X5318095Y-24307200D01*
X5318095Y-24307200D02*
X5270476Y-24259580D01*
X5270476Y-24259580D02*
X5222857Y-24164342D01*
X5222857Y-24164342D02*
X5175238Y-23973866D01*
X5175238Y-23973866D02*
X5175238Y-23735771D01*
X5175238Y-23735771D02*
X5222857Y-23545295D01*
X5222857Y-23545295D02*
X5270476Y-23450057D01*
X5270476Y-23450057D02*
X5318095Y-23402438D01*
X5318095Y-23402438D02*
X5413333Y-23354819D01*
X6080000Y-23354819D02*
X6746666Y-23354819D01*
X6746666Y-23354819D02*
X6318095Y-24354819D01*
X3285714Y-1254819D02*
X3285714Y-254819D01*
X3285714Y-731009D02*
X3857142Y-731009D01*
X3857142Y-1254819D02*
X3857142Y-254819D01*
X4857142Y-1254819D02*
X4285714Y-1254819D01*
X4571428Y-1254819D02*
X4571428Y-254819D01*
X4571428Y-254819D02*
X4476190Y-397676D01*
X4476190Y-397676D02*
X4380952Y-492914D01*
X4380952Y-492914D02*
X4285714Y-540533D01*
X5476190Y-254819D02*
X5571428Y-254819D01*
X5571428Y-254819D02*
X5666666Y-302438D01*
X5666666Y-302438D02*
X5714285Y-350057D01*
X5714285Y-350057D02*
X5761904Y-445295D01*
X5761904Y-445295D02*
X5809523Y-635771D01*
X5809523Y-635771D02*
X5809523Y-873866D01*
X5809523Y-873866D02*
X5761904Y-1064342D01*
X5761904Y-1064342D02*
X5714285Y-1159580D01*
X5714285Y-1159580D02*
X5666666Y-1207200D01*
X5666666Y-1207200D02*
X5571428Y-1254819D01*
X5571428Y-1254819D02*
X5476190Y-1254819D01*
X5476190Y-1254819D02*
X5380952Y-1207200D01*
X5380952Y-1207200D02*
X5333333Y-1159580D01*
X5333333Y-1159580D02*
X5285714Y-1064342D01*
X5285714Y-1064342D02*
X5238095Y-873866D01*
X5238095Y-873866D02*
X5238095Y-635771D01*
X5238095Y-635771D02*
X5285714Y-445295D01*
X5285714Y-445295D02*
X5333333Y-350057D01*
X5333333Y-350057D02*
X5380952Y-302438D01*
X5380952Y-302438D02*
X5476190Y-254819D01*
X6761904Y-1254819D02*
X6190476Y-1254819D01*
X6476190Y-1254819D02*
X6476190Y-254819D01*
X6476190Y-254819D02*
X6380952Y-397676D01*
X6380952Y-397676D02*
X6285714Y-492914D01*
X6285714Y-492914D02*
X6190476Y-540533D01*
D11*
X95477419Y-41084285D02*
X96286942Y-41084285D01*
X96286942Y-41084285D02*
X96382180Y-41036666D01*
X96382180Y-41036666D02*
X96429800Y-40989047D01*
X96429800Y-40989047D02*
X96477419Y-40893809D01*
X96477419Y-40893809D02*
X96477419Y-40703333D01*
X96477419Y-40703333D02*
X96429800Y-40608095D01*
X96429800Y-40608095D02*
X96382180Y-40560476D01*
X96382180Y-40560476D02*
X96286942Y-40512857D01*
X96286942Y-40512857D02*
X95477419Y-40512857D01*
X96477419Y-39512857D02*
X96477419Y-40084285D01*
X96477419Y-39798571D02*
X95477419Y-39798571D01*
X95477419Y-39798571D02*
X95620276Y-39893809D01*
X95620276Y-39893809D02*
X95715514Y-39989047D01*
X95715514Y-39989047D02*
X95763133Y-40084285D01*
X95477419Y-38893809D02*
X95477419Y-38798571D01*
X95477419Y-38798571D02*
X95525038Y-38703333D01*
X95525038Y-38703333D02*
X95572657Y-38655714D01*
X95572657Y-38655714D02*
X95667895Y-38608095D01*
X95667895Y-38608095D02*
X95858371Y-38560476D01*
X95858371Y-38560476D02*
X96096466Y-38560476D01*
X96096466Y-38560476D02*
X96286942Y-38608095D01*
X96286942Y-38608095D02*
X96382180Y-38655714D01*
X96382180Y-38655714D02*
X96429800Y-38703333D01*
X96429800Y-38703333D02*
X96477419Y-38798571D01*
X96477419Y-38798571D02*
X96477419Y-38893809D01*
X96477419Y-38893809D02*
X96429800Y-38989047D01*
X96429800Y-38989047D02*
X96382180Y-39036666D01*
X96382180Y-39036666D02*
X96286942Y-39084285D01*
X96286942Y-39084285D02*
X96096466Y-39131904D01*
X96096466Y-39131904D02*
X95858371Y-39131904D01*
X95858371Y-39131904D02*
X95667895Y-39084285D01*
X95667895Y-39084285D02*
X95572657Y-39036666D01*
X95572657Y-39036666D02*
X95525038Y-38989047D01*
X95525038Y-38989047D02*
X95477419Y-38893809D01*
X95905990Y-37989047D02*
X95858371Y-38084285D01*
X95858371Y-38084285D02*
X95810752Y-38131904D01*
X95810752Y-38131904D02*
X95715514Y-38179523D01*
X95715514Y-38179523D02*
X95667895Y-38179523D01*
X95667895Y-38179523D02*
X95572657Y-38131904D01*
X95572657Y-38131904D02*
X95525038Y-38084285D01*
X95525038Y-38084285D02*
X95477419Y-37989047D01*
X95477419Y-37989047D02*
X95477419Y-37798571D01*
X95477419Y-37798571D02*
X95525038Y-37703333D01*
X95525038Y-37703333D02*
X95572657Y-37655714D01*
X95572657Y-37655714D02*
X95667895Y-37608095D01*
X95667895Y-37608095D02*
X95715514Y-37608095D01*
X95715514Y-37608095D02*
X95810752Y-37655714D01*
X95810752Y-37655714D02*
X95858371Y-37703333D01*
X95858371Y-37703333D02*
X95905990Y-37798571D01*
X95905990Y-37798571D02*
X95905990Y-37989047D01*
X95905990Y-37989047D02*
X95953609Y-38084285D01*
X95953609Y-38084285D02*
X96001228Y-38131904D01*
X96001228Y-38131904D02*
X96096466Y-38179523D01*
X96096466Y-38179523D02*
X96286942Y-38179523D01*
X96286942Y-38179523D02*
X96382180Y-38131904D01*
X96382180Y-38131904D02*
X96429800Y-38084285D01*
X96429800Y-38084285D02*
X96477419Y-37989047D01*
X96477419Y-37989047D02*
X96477419Y-37798571D01*
X96477419Y-37798571D02*
X96429800Y-37703333D01*
X96429800Y-37703333D02*
X96382180Y-37655714D01*
X96382180Y-37655714D02*
X96286942Y-37608095D01*
X96286942Y-37608095D02*
X96096466Y-37608095D01*
X96096466Y-37608095D02*
X96001228Y-37655714D01*
X96001228Y-37655714D02*
X95953609Y-37703333D01*
X95953609Y-37703333D02*
X95905990Y-37798571D01*
D10*
X36054819Y-138455714D02*
X36769104Y-138455714D01*
X36769104Y-138455714D02*
X36911961Y-138503333D01*
X36911961Y-138503333D02*
X37007200Y-138598571D01*
X37007200Y-138598571D02*
X37054819Y-138741428D01*
X37054819Y-138741428D02*
X37054819Y-138836666D01*
X37054819Y-137455714D02*
X37054819Y-138027142D01*
X37054819Y-137741428D02*
X36054819Y-137741428D01*
X36054819Y-137741428D02*
X36197676Y-137836666D01*
X36197676Y-137836666D02*
X36292914Y-137931904D01*
X36292914Y-137931904D02*
X36340533Y-138027142D01*
X37054819Y-136503333D02*
X37054819Y-137074761D01*
X37054819Y-136789047D02*
X36054819Y-136789047D01*
X36054819Y-136789047D02*
X36197676Y-136884285D01*
X36197676Y-136884285D02*
X36292914Y-136979523D01*
X36292914Y-136979523D02*
X36340533Y-137074761D01*
X37054819Y-135550952D02*
X37054819Y-136122380D01*
X37054819Y-135836666D02*
X36054819Y-135836666D01*
X36054819Y-135836666D02*
X36197676Y-135931904D01*
X36197676Y-135931904D02*
X36292914Y-136027142D01*
X36292914Y-136027142D02*
X36340533Y-136122380D01*
X72559104Y-129936666D02*
X72559104Y-129460476D01*
X72844819Y-130031904D02*
X71844819Y-129698571D01*
X71844819Y-129698571D02*
X72844819Y-129365238D01*
X72844819Y-128508095D02*
X72844819Y-129079523D01*
X72844819Y-128793809D02*
X71844819Y-128793809D01*
X71844819Y-128793809D02*
X71987676Y-128889047D01*
X71987676Y-128889047D02*
X72082914Y-128984285D01*
X72082914Y-128984285D02*
X72130533Y-129079523D01*
X71844819Y-127889047D02*
X71844819Y-127793809D01*
X71844819Y-127793809D02*
X71892438Y-127698571D01*
X71892438Y-127698571D02*
X71940057Y-127650952D01*
X71940057Y-127650952D02*
X72035295Y-127603333D01*
X72035295Y-127603333D02*
X72225771Y-127555714D01*
X72225771Y-127555714D02*
X72463866Y-127555714D01*
X72463866Y-127555714D02*
X72654342Y-127603333D01*
X72654342Y-127603333D02*
X72749580Y-127650952D01*
X72749580Y-127650952D02*
X72797200Y-127698571D01*
X72797200Y-127698571D02*
X72844819Y-127793809D01*
X72844819Y-127793809D02*
X72844819Y-127889047D01*
X72844819Y-127889047D02*
X72797200Y-127984285D01*
X72797200Y-127984285D02*
X72749580Y-128031904D01*
X72749580Y-128031904D02*
X72654342Y-128079523D01*
X72654342Y-128079523D02*
X72463866Y-128127142D01*
X72463866Y-128127142D02*
X72225771Y-128127142D01*
X72225771Y-128127142D02*
X72035295Y-128079523D01*
X72035295Y-128079523D02*
X71940057Y-128031904D01*
X71940057Y-128031904D02*
X71892438Y-127984285D01*
X71892438Y-127984285D02*
X71844819Y-127889047D01*
X72178152Y-126698571D02*
X72844819Y-126698571D01*
X71797200Y-126936666D02*
X72511485Y-127174761D01*
X72511485Y-127174761D02*
X72511485Y-126555714D01*
X2524285Y-89394819D02*
X2524285Y-90109104D01*
X2524285Y-90109104D02*
X2476666Y-90251961D01*
X2476666Y-90251961D02*
X2381428Y-90347200D01*
X2381428Y-90347200D02*
X2238571Y-90394819D01*
X2238571Y-90394819D02*
X2143333Y-90394819D01*
X3524285Y-90394819D02*
X2952857Y-90394819D01*
X3238571Y-90394819D02*
X3238571Y-89394819D01*
X3238571Y-89394819D02*
X3143333Y-89537676D01*
X3143333Y-89537676D02*
X3048095Y-89632914D01*
X3048095Y-89632914D02*
X2952857Y-89680533D01*
X4143333Y-89394819D02*
X4238571Y-89394819D01*
X4238571Y-89394819D02*
X4333809Y-89442438D01*
X4333809Y-89442438D02*
X4381428Y-89490057D01*
X4381428Y-89490057D02*
X4429047Y-89585295D01*
X4429047Y-89585295D02*
X4476666Y-89775771D01*
X4476666Y-89775771D02*
X4476666Y-90013866D01*
X4476666Y-90013866D02*
X4429047Y-90204342D01*
X4429047Y-90204342D02*
X4381428Y-90299580D01*
X4381428Y-90299580D02*
X4333809Y-90347200D01*
X4333809Y-90347200D02*
X4238571Y-90394819D01*
X4238571Y-90394819D02*
X4143333Y-90394819D01*
X4143333Y-90394819D02*
X4048095Y-90347200D01*
X4048095Y-90347200D02*
X4000476Y-90299580D01*
X4000476Y-90299580D02*
X3952857Y-90204342D01*
X3952857Y-90204342D02*
X3905238Y-90013866D01*
X3905238Y-90013866D02*
X3905238Y-89775771D01*
X3905238Y-89775771D02*
X3952857Y-89585295D01*
X3952857Y-89585295D02*
X4000476Y-89490057D01*
X4000476Y-89490057D02*
X4048095Y-89442438D01*
X4048095Y-89442438D02*
X4143333Y-89394819D01*
X4810000Y-89394819D02*
X5429047Y-89394819D01*
X5429047Y-89394819D02*
X5095714Y-89775771D01*
X5095714Y-89775771D02*
X5238571Y-89775771D01*
X5238571Y-89775771D02*
X5333809Y-89823390D01*
X5333809Y-89823390D02*
X5381428Y-89871009D01*
X5381428Y-89871009D02*
X5429047Y-89966247D01*
X5429047Y-89966247D02*
X5429047Y-90204342D01*
X5429047Y-90204342D02*
X5381428Y-90299580D01*
X5381428Y-90299580D02*
X5333809Y-90347200D01*
X5333809Y-90347200D02*
X5238571Y-90394819D01*
X5238571Y-90394819D02*
X4952857Y-90394819D01*
X4952857Y-90394819D02*
X4857619Y-90347200D01*
X4857619Y-90347200D02*
X4810000Y-90299580D01*
X1254285Y-23354819D02*
X1254285Y-24069104D01*
X1254285Y-24069104D02*
X1206666Y-24211961D01*
X1206666Y-24211961D02*
X1111428Y-24307200D01*
X1111428Y-24307200D02*
X968571Y-24354819D01*
X968571Y-24354819D02*
X873333Y-24354819D01*
X2254285Y-24354819D02*
X1682857Y-24354819D01*
X1968571Y-24354819D02*
X1968571Y-23354819D01*
X1968571Y-23354819D02*
X1873333Y-23497676D01*
X1873333Y-23497676D02*
X1778095Y-23592914D01*
X1778095Y-23592914D02*
X1682857Y-23640533D01*
X2873333Y-23354819D02*
X2968571Y-23354819D01*
X2968571Y-23354819D02*
X3063809Y-23402438D01*
X3063809Y-23402438D02*
X3111428Y-23450057D01*
X3111428Y-23450057D02*
X3159047Y-23545295D01*
X3159047Y-23545295D02*
X3206666Y-23735771D01*
X3206666Y-23735771D02*
X3206666Y-23973866D01*
X3206666Y-23973866D02*
X3159047Y-24164342D01*
X3159047Y-24164342D02*
X3111428Y-24259580D01*
X3111428Y-24259580D02*
X3063809Y-24307200D01*
X3063809Y-24307200D02*
X2968571Y-24354819D01*
X2968571Y-24354819D02*
X2873333Y-24354819D01*
X2873333Y-24354819D02*
X2778095Y-24307200D01*
X2778095Y-24307200D02*
X2730476Y-24259580D01*
X2730476Y-24259580D02*
X2682857Y-24164342D01*
X2682857Y-24164342D02*
X2635238Y-23973866D01*
X2635238Y-23973866D02*
X2635238Y-23735771D01*
X2635238Y-23735771D02*
X2682857Y-23545295D01*
X2682857Y-23545295D02*
X2730476Y-23450057D01*
X2730476Y-23450057D02*
X2778095Y-23402438D01*
X2778095Y-23402438D02*
X2873333Y-23354819D01*
X4111428Y-23354819D02*
X3635238Y-23354819D01*
X3635238Y-23354819D02*
X3587619Y-23831009D01*
X3587619Y-23831009D02*
X3635238Y-23783390D01*
X3635238Y-23783390D02*
X3730476Y-23735771D01*
X3730476Y-23735771D02*
X3968571Y-23735771D01*
X3968571Y-23735771D02*
X4063809Y-23783390D01*
X4063809Y-23783390D02*
X4111428Y-23831009D01*
X4111428Y-23831009D02*
X4159047Y-23926247D01*
X4159047Y-23926247D02*
X4159047Y-24164342D01*
X4159047Y-24164342D02*
X4111428Y-24259580D01*
X4111428Y-24259580D02*
X4063809Y-24307200D01*
X4063809Y-24307200D02*
X3968571Y-24354819D01*
X3968571Y-24354819D02*
X3730476Y-24354819D01*
X3730476Y-24354819D02*
X3635238Y-24307200D01*
X3635238Y-24307200D02*
X3587619Y-24259580D01*
X52054285Y-71614819D02*
X52054285Y-72329104D01*
X52054285Y-72329104D02*
X52006666Y-72471961D01*
X52006666Y-72471961D02*
X51911428Y-72567200D01*
X51911428Y-72567200D02*
X51768571Y-72614819D01*
X51768571Y-72614819D02*
X51673333Y-72614819D01*
X53054285Y-72614819D02*
X52482857Y-72614819D01*
X52768571Y-72614819D02*
X52768571Y-71614819D01*
X52768571Y-71614819D02*
X52673333Y-71757676D01*
X52673333Y-71757676D02*
X52578095Y-71852914D01*
X52578095Y-71852914D02*
X52482857Y-71900533D01*
X53435238Y-71710057D02*
X53482857Y-71662438D01*
X53482857Y-71662438D02*
X53578095Y-71614819D01*
X53578095Y-71614819D02*
X53816190Y-71614819D01*
X53816190Y-71614819D02*
X53911428Y-71662438D01*
X53911428Y-71662438D02*
X53959047Y-71710057D01*
X53959047Y-71710057D02*
X54006666Y-71805295D01*
X54006666Y-71805295D02*
X54006666Y-71900533D01*
X54006666Y-71900533D02*
X53959047Y-72043390D01*
X53959047Y-72043390D02*
X53387619Y-72614819D01*
X53387619Y-72614819D02*
X54006666Y-72614819D01*
X54625714Y-71614819D02*
X54720952Y-71614819D01*
X54720952Y-71614819D02*
X54816190Y-71662438D01*
X54816190Y-71662438D02*
X54863809Y-71710057D01*
X54863809Y-71710057D02*
X54911428Y-71805295D01*
X54911428Y-71805295D02*
X54959047Y-71995771D01*
X54959047Y-71995771D02*
X54959047Y-72233866D01*
X54959047Y-72233866D02*
X54911428Y-72424342D01*
X54911428Y-72424342D02*
X54863809Y-72519580D01*
X54863809Y-72519580D02*
X54816190Y-72567200D01*
X54816190Y-72567200D02*
X54720952Y-72614819D01*
X54720952Y-72614819D02*
X54625714Y-72614819D01*
X54625714Y-72614819D02*
X54530476Y-72567200D01*
X54530476Y-72567200D02*
X54482857Y-72519580D01*
X54482857Y-72519580D02*
X54435238Y-72424342D01*
X54435238Y-72424342D02*
X54387619Y-72233866D01*
X54387619Y-72233866D02*
X54387619Y-71995771D01*
X54387619Y-71995771D02*
X54435238Y-71805295D01*
X54435238Y-71805295D02*
X54482857Y-71710057D01*
X54482857Y-71710057D02*
X54530476Y-71662438D01*
X54530476Y-71662438D02*
X54625714Y-71614819D01*
X2524285Y-71614819D02*
X2524285Y-72329104D01*
X2524285Y-72329104D02*
X2476666Y-72471961D01*
X2476666Y-72471961D02*
X2381428Y-72567200D01*
X2381428Y-72567200D02*
X2238571Y-72614819D01*
X2238571Y-72614819D02*
X2143333Y-72614819D01*
X3524285Y-72614819D02*
X2952857Y-72614819D01*
X3238571Y-72614819D02*
X3238571Y-71614819D01*
X3238571Y-71614819D02*
X3143333Y-71757676D01*
X3143333Y-71757676D02*
X3048095Y-71852914D01*
X3048095Y-71852914D02*
X2952857Y-71900533D01*
X4143333Y-71614819D02*
X4238571Y-71614819D01*
X4238571Y-71614819D02*
X4333809Y-71662438D01*
X4333809Y-71662438D02*
X4381428Y-71710057D01*
X4381428Y-71710057D02*
X4429047Y-71805295D01*
X4429047Y-71805295D02*
X4476666Y-71995771D01*
X4476666Y-71995771D02*
X4476666Y-72233866D01*
X4476666Y-72233866D02*
X4429047Y-72424342D01*
X4429047Y-72424342D02*
X4381428Y-72519580D01*
X4381428Y-72519580D02*
X4333809Y-72567200D01*
X4333809Y-72567200D02*
X4238571Y-72614819D01*
X4238571Y-72614819D02*
X4143333Y-72614819D01*
X4143333Y-72614819D02*
X4048095Y-72567200D01*
X4048095Y-72567200D02*
X4000476Y-72519580D01*
X4000476Y-72519580D02*
X3952857Y-72424342D01*
X3952857Y-72424342D02*
X3905238Y-72233866D01*
X3905238Y-72233866D02*
X3905238Y-71995771D01*
X3905238Y-71995771D02*
X3952857Y-71805295D01*
X3952857Y-71805295D02*
X4000476Y-71710057D01*
X4000476Y-71710057D02*
X4048095Y-71662438D01*
X4048095Y-71662438D02*
X4143333Y-71614819D01*
X4857619Y-71710057D02*
X4905238Y-71662438D01*
X4905238Y-71662438D02*
X5000476Y-71614819D01*
X5000476Y-71614819D02*
X5238571Y-71614819D01*
X5238571Y-71614819D02*
X5333809Y-71662438D01*
X5333809Y-71662438D02*
X5381428Y-71710057D01*
X5381428Y-71710057D02*
X5429047Y-71805295D01*
X5429047Y-71805295D02*
X5429047Y-71900533D01*
X5429047Y-71900533D02*
X5381428Y-72043390D01*
X5381428Y-72043390D02*
X4810000Y-72614819D01*
X4810000Y-72614819D02*
X5429047Y-72614819D01*
X93285714Y-1254819D02*
X93285714Y-254819D01*
X93285714Y-731009D02*
X93857142Y-731009D01*
X93857142Y-1254819D02*
X93857142Y-254819D01*
X94857142Y-1254819D02*
X94285714Y-1254819D01*
X94571428Y-1254819D02*
X94571428Y-254819D01*
X94571428Y-254819D02*
X94476190Y-397676D01*
X94476190Y-397676D02*
X94380952Y-492914D01*
X94380952Y-492914D02*
X94285714Y-540533D01*
X95476190Y-254819D02*
X95571428Y-254819D01*
X95571428Y-254819D02*
X95666666Y-302438D01*
X95666666Y-302438D02*
X95714285Y-350057D01*
X95714285Y-350057D02*
X95761904Y-445295D01*
X95761904Y-445295D02*
X95809523Y-635771D01*
X95809523Y-635771D02*
X95809523Y-873866D01*
X95809523Y-873866D02*
X95761904Y-1064342D01*
X95761904Y-1064342D02*
X95714285Y-1159580D01*
X95714285Y-1159580D02*
X95666666Y-1207200D01*
X95666666Y-1207200D02*
X95571428Y-1254819D01*
X95571428Y-1254819D02*
X95476190Y-1254819D01*
X95476190Y-1254819D02*
X95380952Y-1207200D01*
X95380952Y-1207200D02*
X95333333Y-1159580D01*
X95333333Y-1159580D02*
X95285714Y-1064342D01*
X95285714Y-1064342D02*
X95238095Y-873866D01*
X95238095Y-873866D02*
X95238095Y-635771D01*
X95238095Y-635771D02*
X95285714Y-445295D01*
X95285714Y-445295D02*
X95333333Y-350057D01*
X95333333Y-350057D02*
X95380952Y-302438D01*
X95380952Y-302438D02*
X95476190Y-254819D01*
X96190476Y-350057D02*
X96238095Y-302438D01*
X96238095Y-302438D02*
X96333333Y-254819D01*
X96333333Y-254819D02*
X96571428Y-254819D01*
X96571428Y-254819D02*
X96666666Y-302438D01*
X96666666Y-302438D02*
X96714285Y-350057D01*
X96714285Y-350057D02*
X96761904Y-445295D01*
X96761904Y-445295D02*
X96761904Y-540533D01*
X96761904Y-540533D02*
X96714285Y-683390D01*
X96714285Y-683390D02*
X96142857Y-1254819D01*
X96142857Y-1254819D02*
X96761904Y-1254819D01*
D12*
%TO.C,C102*%
X7351000Y-70160000D02*
X7351000Y-70773000D01*
X6671000Y-70160000D02*
X6671000Y-71344000D01*
X5550000Y-70160000D02*
X5550000Y-71693000D01*
X6591000Y-66852000D02*
X6591000Y-68080000D01*
X6471000Y-66791000D02*
X6471000Y-68080000D01*
X6511000Y-66810000D02*
X6511000Y-68080000D01*
X7031000Y-67149000D02*
X7031000Y-68080000D01*
X7311000Y-70160000D02*
X7311000Y-70819000D01*
X6991000Y-70160000D02*
X6991000Y-71124000D01*
X5510000Y-66544000D02*
X5510000Y-68080000D01*
X6911000Y-67055000D02*
X6911000Y-68080000D01*
X5390000Y-70160000D02*
X5390000Y-71700000D01*
X6071000Y-70160000D02*
X6071000Y-71600000D01*
X6231000Y-66692000D02*
X6231000Y-68080000D01*
X6271000Y-66706000D02*
X6271000Y-68080000D01*
X7111000Y-67219000D02*
X7111000Y-68080000D01*
X5950000Y-66609000D02*
X5950000Y-68080000D01*
X5590000Y-70160000D02*
X5590000Y-71689000D01*
X6191000Y-70160000D02*
X6191000Y-71562000D01*
X5910000Y-70160000D02*
X5910000Y-71640000D01*
X6631000Y-70160000D02*
X6631000Y-71367000D01*
X6751000Y-70160000D02*
X6751000Y-71295000D01*
X5470000Y-70160000D02*
X5470000Y-71698000D01*
X5870000Y-66592000D02*
X5870000Y-68080000D01*
X6791000Y-66971000D02*
X6791000Y-68080000D01*
X7191000Y-67294000D02*
X7191000Y-68080000D01*
X7351000Y-67467000D02*
X7351000Y-68080000D01*
X6391000Y-70160000D02*
X6391000Y-71485000D01*
X5350000Y-66540000D02*
X5350000Y-68080000D01*
X5670000Y-66559000D02*
X5670000Y-68080000D01*
X6391000Y-66755000D02*
X6391000Y-68080000D01*
X5830000Y-66584000D02*
X5830000Y-68080000D01*
X7831000Y-68315000D02*
X7831000Y-69925000D01*
X7631000Y-67869000D02*
X7631000Y-70371000D01*
X7471000Y-67620000D02*
X7471000Y-70620000D01*
X5710000Y-70160000D02*
X5710000Y-71676000D01*
X6431000Y-70160000D02*
X6431000Y-71468000D01*
X7871000Y-68443000D02*
X7871000Y-69797000D01*
X6911000Y-70160000D02*
X6911000Y-71185000D01*
X6871000Y-70160000D02*
X6871000Y-71215000D01*
X6111000Y-66652000D02*
X6111000Y-68080000D01*
X6351000Y-70160000D02*
X6351000Y-71502000D01*
X6231000Y-70160000D02*
X6231000Y-71548000D01*
X6431000Y-66772000D02*
X6431000Y-68080000D01*
X6591000Y-70160000D02*
X6591000Y-71388000D01*
X7231000Y-67335000D02*
X7231000Y-68080000D01*
X6871000Y-67025000D02*
X6871000Y-68080000D01*
X5670000Y-70160000D02*
X5670000Y-71681000D01*
X6271000Y-70160000D02*
X6271000Y-71534000D01*
X6311000Y-70160000D02*
X6311000Y-71518000D01*
X5510000Y-70160000D02*
X5510000Y-71696000D01*
X6351000Y-66738000D02*
X6351000Y-68080000D01*
X6030000Y-66629000D02*
X6030000Y-68080000D01*
X7751000Y-68109000D02*
X7751000Y-70131000D01*
X7431000Y-67566000D02*
X7431000Y-70674000D01*
X7791000Y-68205000D02*
X7791000Y-70035000D01*
X2545225Y-67645000D02*
X3045225Y-67645000D01*
X5350000Y-70160000D02*
X5350000Y-71700000D01*
X6151000Y-66665000D02*
X6151000Y-68080000D01*
X6831000Y-66998000D02*
X6831000Y-68080000D01*
X6551000Y-70160000D02*
X6551000Y-71410000D01*
X6711000Y-66920000D02*
X6711000Y-68080000D01*
X7151000Y-67256000D02*
X7151000Y-68080000D01*
X7271000Y-70160000D02*
X7271000Y-70863000D01*
X7711000Y-68022000D02*
X7711000Y-70218000D01*
X5470000Y-66542000D02*
X5470000Y-68080000D01*
X5630000Y-66555000D02*
X5630000Y-68080000D01*
X5430000Y-66541000D02*
X5430000Y-68080000D01*
X5550000Y-66547000D02*
X5550000Y-68080000D01*
X7151000Y-70160000D02*
X7151000Y-70984000D01*
X6471000Y-70160000D02*
X6471000Y-71449000D01*
X7911000Y-68602000D02*
X7911000Y-69638000D01*
X7951000Y-68836000D02*
X7951000Y-69404000D01*
X5950000Y-70160000D02*
X5950000Y-71631000D01*
X7071000Y-70160000D02*
X7071000Y-71057000D01*
X6511000Y-70160000D02*
X6511000Y-71430000D01*
X5750000Y-70160000D02*
X5750000Y-71670000D01*
X7591000Y-67801000D02*
X7591000Y-70439000D01*
X7551000Y-67737000D02*
X7551000Y-70503000D01*
X6311000Y-66722000D02*
X6311000Y-68080000D01*
X6631000Y-66873000D02*
X6631000Y-68080000D01*
X7671000Y-67942000D02*
X7671000Y-70298000D01*
X6711000Y-70160000D02*
X6711000Y-71320000D01*
X7271000Y-67377000D02*
X7271000Y-68080000D01*
X6951000Y-67085000D02*
X6951000Y-68080000D01*
X7391000Y-67515000D02*
X7391000Y-70725000D01*
X6831000Y-70160000D02*
X6831000Y-71242000D01*
X6111000Y-70160000D02*
X6111000Y-71588000D01*
X5870000Y-70160000D02*
X5870000Y-71648000D01*
X6191000Y-66678000D02*
X6191000Y-68080000D01*
X5710000Y-66564000D02*
X5710000Y-68080000D01*
X5790000Y-70160000D02*
X5790000Y-71663000D01*
X7511000Y-67677000D02*
X7511000Y-70563000D01*
X7191000Y-70160000D02*
X7191000Y-70946000D01*
X6151000Y-70160000D02*
X6151000Y-71575000D01*
X5630000Y-70160000D02*
X5630000Y-71685000D01*
X5430000Y-70160000D02*
X5430000Y-71699000D01*
X6030000Y-70160000D02*
X6030000Y-71611000D01*
X7231000Y-70160000D02*
X7231000Y-70905000D01*
X6071000Y-66640000D02*
X6071000Y-68080000D01*
X6991000Y-67116000D02*
X6991000Y-68080000D01*
X6791000Y-70160000D02*
X6791000Y-71269000D01*
X6751000Y-66945000D02*
X6751000Y-68080000D01*
X6551000Y-66830000D02*
X6551000Y-68080000D01*
X5590000Y-66551000D02*
X5590000Y-68080000D01*
X7071000Y-67183000D02*
X7071000Y-68080000D01*
X5790000Y-66577000D02*
X5790000Y-68080000D01*
X5990000Y-70160000D02*
X5990000Y-71621000D01*
X6671000Y-66896000D02*
X6671000Y-68080000D01*
X2795225Y-67395000D02*
X2795225Y-67895000D01*
X5750000Y-66570000D02*
X5750000Y-68080000D01*
X7031000Y-70160000D02*
X7031000Y-71091000D01*
X5830000Y-70160000D02*
X5830000Y-71656000D01*
X5910000Y-66600000D02*
X5910000Y-68080000D01*
X6951000Y-70160000D02*
X6951000Y-71155000D01*
X7111000Y-70160000D02*
X7111000Y-71021000D01*
X5390000Y-66540000D02*
X5390000Y-68080000D01*
X5990000Y-66619000D02*
X5990000Y-68080000D01*
X7311000Y-67421000D02*
X7311000Y-68080000D01*
X7970000Y-69120000D02*
G75*
G03*
X2730000Y-69120000I-2620000J0D01*
G01*
X2730000Y-69120000D02*
G75*
G03*
X7970000Y-69120000I2620000J0D01*
G01*
%TO.C,C101*%
X92929000Y-60989000D02*
X92929000Y-57726000D01*
X91569000Y-65708000D02*
X91569000Y-63471000D01*
X93289000Y-60989000D02*
X93289000Y-57556000D01*
X92129000Y-66219000D02*
X92129000Y-63471000D01*
X93529000Y-66998000D02*
X93529000Y-63471000D01*
X90729000Y-64519000D02*
X90729000Y-59941000D01*
X92049000Y-60989000D02*
X92049000Y-58305000D01*
X90409000Y-63740000D02*
X90409000Y-60720000D01*
X94850000Y-67292000D02*
X94850000Y-57168000D01*
X93809000Y-60989000D02*
X93809000Y-57368000D01*
X93809000Y-67092000D02*
X93809000Y-63471000D01*
X93969000Y-67137000D02*
X93969000Y-63471000D01*
X90609000Y-64267000D02*
X90609000Y-60193000D01*
X90529000Y-64076000D02*
X90529000Y-60384000D01*
X91689000Y-60989000D02*
X91689000Y-58629000D01*
X92369000Y-66396000D02*
X92369000Y-63471000D01*
X94970000Y-67300000D02*
X94970000Y-57160000D01*
X93689000Y-60989000D02*
X93689000Y-57406000D01*
X92169000Y-60989000D02*
X92169000Y-58210000D01*
X91329000Y-65436000D02*
X91329000Y-59024000D01*
X92449000Y-66451000D02*
X92449000Y-63471000D01*
X93209000Y-60989000D02*
X93209000Y-57591000D01*
X92329000Y-60989000D02*
X92329000Y-58092000D01*
X90809000Y-64669000D02*
X90809000Y-59791000D01*
X93769000Y-67080000D02*
X93769000Y-63471000D01*
X93129000Y-66833000D02*
X93129000Y-63471000D01*
X95250000Y-67310000D02*
X95250000Y-57150000D01*
X93169000Y-66851000D02*
X93169000Y-63471000D01*
X100769646Y-65105000D02*
X99769646Y-65105000D01*
X93289000Y-66904000D02*
X93289000Y-63471000D01*
X90329000Y-63460000D02*
X90329000Y-61000000D01*
X92409000Y-66424000D02*
X92409000Y-63471000D01*
X91489000Y-65622000D02*
X91489000Y-58838000D01*
X93769000Y-60989000D02*
X93769000Y-57380000D01*
X93409000Y-66953000D02*
X93409000Y-63471000D01*
X94369000Y-67227000D02*
X94369000Y-57233000D01*
X94209000Y-67195000D02*
X94209000Y-57265000D01*
X90369000Y-63608000D02*
X90369000Y-60852000D01*
X91609000Y-65750000D02*
X91609000Y-63471000D01*
X92969000Y-66755000D02*
X92969000Y-63471000D01*
X94569000Y-67260000D02*
X94569000Y-57200000D01*
X93609000Y-60989000D02*
X93609000Y-57433000D01*
X91969000Y-60989000D02*
X91969000Y-58372000D01*
X94129000Y-67177000D02*
X94129000Y-57283000D01*
X93129000Y-60989000D02*
X93129000Y-57627000D01*
X91889000Y-66019000D02*
X91889000Y-63471000D01*
X91849000Y-60989000D02*
X91849000Y-58477000D01*
X90489000Y-63972000D02*
X90489000Y-60488000D01*
X91009000Y-65000000D02*
X91009000Y-59460000D01*
X94009000Y-60989000D02*
X94009000Y-57312000D01*
X94329000Y-67220000D02*
X94329000Y-57240000D01*
X90649000Y-64355000D02*
X90649000Y-60105000D01*
X92169000Y-66250000D02*
X92169000Y-63471000D01*
X93489000Y-66984000D02*
X93489000Y-63471000D01*
X93529000Y-60989000D02*
X93529000Y-57462000D01*
X92889000Y-60989000D02*
X92889000Y-57747000D01*
X93089000Y-60989000D02*
X93089000Y-57646000D01*
X91769000Y-65909000D02*
X91769000Y-63471000D01*
X94650000Y-67270000D02*
X94650000Y-57190000D01*
X90969000Y-64939000D02*
X90969000Y-59521000D01*
X92529000Y-66503000D02*
X92529000Y-63471000D01*
X90449000Y-63860000D02*
X90449000Y-60600000D01*
X94810000Y-67288000D02*
X94810000Y-57172000D01*
X91169000Y-65230000D02*
X91169000Y-59230000D01*
X93729000Y-67067000D02*
X93729000Y-63471000D01*
X92089000Y-66187000D02*
X92089000Y-63471000D01*
X90929000Y-64875000D02*
X90929000Y-59585000D01*
X92609000Y-66553000D02*
X92609000Y-63471000D01*
X94089000Y-67168000D02*
X94089000Y-57292000D01*
X93369000Y-60989000D02*
X93369000Y-57523000D01*
X92329000Y-66368000D02*
X92329000Y-63471000D01*
X95210000Y-67310000D02*
X95210000Y-57150000D01*
X93409000Y-60989000D02*
X93409000Y-57507000D01*
X91529000Y-65666000D02*
X91529000Y-58794000D01*
X93569000Y-60989000D02*
X93569000Y-57447000D01*
X94289000Y-67212000D02*
X94289000Y-57248000D01*
X92449000Y-60989000D02*
X92449000Y-58009000D01*
X94449000Y-67241000D02*
X94449000Y-57219000D01*
X92409000Y-60989000D02*
X92409000Y-58036000D01*
X91089000Y-65119000D02*
X91089000Y-59341000D01*
X92769000Y-66647000D02*
X92769000Y-63471000D01*
X91649000Y-65791000D02*
X91649000Y-63471000D01*
X92009000Y-66122000D02*
X92009000Y-63471000D01*
X95170000Y-67309000D02*
X95170000Y-57151000D01*
X90289000Y-63292000D02*
X90289000Y-61168000D01*
X94529000Y-67254000D02*
X94529000Y-57206000D01*
X92289000Y-60989000D02*
X92289000Y-58120000D01*
X92209000Y-66280000D02*
X92209000Y-63471000D01*
X92249000Y-60989000D02*
X92249000Y-58150000D01*
X93049000Y-60989000D02*
X93049000Y-57666000D01*
X93849000Y-60989000D02*
X93849000Y-57356000D01*
X91569000Y-60989000D02*
X91569000Y-58752000D01*
X94489000Y-67248000D02*
X94489000Y-57212000D01*
X93969000Y-60989000D02*
X93969000Y-57323000D01*
X90209000Y-62829000D02*
X90209000Y-61631000D01*
X92809000Y-66670000D02*
X92809000Y-63471000D01*
X93369000Y-66937000D02*
X93369000Y-63471000D01*
X92489000Y-66477000D02*
X92489000Y-63471000D01*
X92609000Y-60989000D02*
X92609000Y-57907000D01*
X93049000Y-66794000D02*
X93049000Y-63471000D01*
X91609000Y-60989000D02*
X91609000Y-58710000D01*
X92289000Y-66340000D02*
X92289000Y-63471000D01*
X91209000Y-65284000D02*
X91209000Y-59176000D01*
X92889000Y-66713000D02*
X92889000Y-63471000D01*
X92729000Y-66625000D02*
X92729000Y-63471000D01*
X90769000Y-64595000D02*
X90769000Y-59865000D01*
X91129000Y-65175000D02*
X91129000Y-59285000D01*
X93169000Y-60989000D02*
X93169000Y-57609000D01*
X93449000Y-60989000D02*
X93449000Y-57492000D01*
X93489000Y-60989000D02*
X93489000Y-57476000D01*
X91849000Y-65983000D02*
X91849000Y-63471000D01*
X91729000Y-65870000D02*
X91729000Y-63471000D01*
X92689000Y-66601000D02*
X92689000Y-63471000D01*
X91729000Y-60989000D02*
X91729000Y-58590000D01*
X93009000Y-60989000D02*
X93009000Y-57685000D01*
X94049000Y-67158000D02*
X94049000Y-57302000D01*
X93089000Y-66814000D02*
X93089000Y-63471000D01*
X95130000Y-67308000D02*
X95130000Y-57152000D01*
X100269646Y-65605000D02*
X100269646Y-64605000D01*
X91889000Y-60989000D02*
X91889000Y-58441000D01*
X90889000Y-64809000D02*
X90889000Y-59651000D01*
X94009000Y-67148000D02*
X94009000Y-63471000D01*
X95050000Y-67305000D02*
X95050000Y-57155000D01*
X92849000Y-60989000D02*
X92849000Y-57768000D01*
X93329000Y-60989000D02*
X93329000Y-57540000D01*
X92089000Y-60989000D02*
X92089000Y-58273000D01*
X91249000Y-65336000D02*
X91249000Y-59124000D01*
X94890000Y-67295000D02*
X94890000Y-57165000D01*
X93649000Y-60989000D02*
X93649000Y-57419000D01*
X92649000Y-66577000D02*
X92649000Y-63471000D01*
X90849000Y-64740000D02*
X90849000Y-59720000D01*
X92729000Y-60989000D02*
X92729000Y-57835000D01*
X95010000Y-67303000D02*
X95010000Y-57157000D01*
X91929000Y-66054000D02*
X91929000Y-63471000D01*
X91409000Y-65531000D02*
X91409000Y-58929000D01*
X91369000Y-65484000D02*
X91369000Y-58976000D01*
X92529000Y-60989000D02*
X92529000Y-57957000D01*
X91929000Y-60989000D02*
X91929000Y-58406000D01*
X93009000Y-66775000D02*
X93009000Y-63471000D01*
X92209000Y-60989000D02*
X92209000Y-58180000D01*
X94249000Y-67204000D02*
X94249000Y-57256000D01*
X92049000Y-66155000D02*
X92049000Y-63471000D01*
X93689000Y-67054000D02*
X93689000Y-63471000D01*
X91449000Y-65577000D02*
X91449000Y-58883000D01*
X93889000Y-60989000D02*
X93889000Y-57345000D01*
X93449000Y-66968000D02*
X93449000Y-63471000D01*
X92809000Y-60989000D02*
X92809000Y-57790000D01*
X91969000Y-66088000D02*
X91969000Y-63471000D01*
X91769000Y-60989000D02*
X91769000Y-58551000D01*
X93249000Y-66887000D02*
X93249000Y-63471000D01*
X93729000Y-60989000D02*
X93729000Y-57393000D01*
X93569000Y-67013000D02*
X93569000Y-63471000D01*
X92769000Y-60989000D02*
X92769000Y-57813000D01*
X94770000Y-67284000D02*
X94770000Y-57176000D01*
X94169000Y-67186000D02*
X94169000Y-57274000D01*
X91809000Y-60989000D02*
X91809000Y-58514000D01*
X95090000Y-67307000D02*
X95090000Y-57153000D01*
X93849000Y-67104000D02*
X93849000Y-63471000D01*
X94409000Y-67234000D02*
X94409000Y-57226000D01*
X90689000Y-64439000D02*
X90689000Y-60021000D01*
X92009000Y-60989000D02*
X92009000Y-58338000D01*
X92489000Y-60989000D02*
X92489000Y-57983000D01*
X93649000Y-67041000D02*
X93649000Y-63471000D01*
X92929000Y-66734000D02*
X92929000Y-63471000D01*
X93929000Y-60989000D02*
X93929000Y-57333000D01*
X94610000Y-67265000D02*
X94610000Y-57195000D01*
X91809000Y-65946000D02*
X91809000Y-63471000D01*
X92569000Y-66528000D02*
X92569000Y-63471000D01*
X92129000Y-60989000D02*
X92129000Y-58241000D01*
X91649000Y-60989000D02*
X91649000Y-58669000D01*
X93209000Y-66869000D02*
X93209000Y-63471000D01*
X92969000Y-60989000D02*
X92969000Y-57705000D01*
X91289000Y-65386000D02*
X91289000Y-59074000D01*
X94730000Y-67280000D02*
X94730000Y-57180000D01*
X94930000Y-67298000D02*
X94930000Y-57162000D01*
X90569000Y-64174000D02*
X90569000Y-60286000D01*
X93609000Y-67027000D02*
X93609000Y-63471000D01*
X91689000Y-65831000D02*
X91689000Y-63471000D01*
X93929000Y-67127000D02*
X93929000Y-63471000D01*
X90249000Y-63092000D02*
X90249000Y-61368000D01*
X93889000Y-67115000D02*
X93889000Y-63471000D01*
X93329000Y-66920000D02*
X93329000Y-63471000D01*
X92249000Y-66310000D02*
X92249000Y-63471000D01*
X91049000Y-65060000D02*
X91049000Y-59400000D01*
X93249000Y-60989000D02*
X93249000Y-57573000D01*
X92649000Y-60989000D02*
X92649000Y-57883000D01*
X92849000Y-66692000D02*
X92849000Y-63471000D01*
X92569000Y-60989000D02*
X92569000Y-57932000D01*
X92369000Y-60989000D02*
X92369000Y-58064000D01*
X92689000Y-60989000D02*
X92689000Y-57859000D01*
X95290000Y-67310000D02*
X95290000Y-57150000D01*
X94690000Y-67275000D02*
X94690000Y-57185000D01*
X100410000Y-62230000D02*
G75*
G03*
X90170000Y-62230000I-5120000J0D01*
G01*
X90170000Y-62230000D02*
G75*
G03*
X100410000Y-62230000I5120000J0D01*
G01*
D11*
%TO.C,U101*%
X6350000Y-72390000D02*
X52070000Y-72390000D01*
X52070000Y-72390000D02*
X52070000Y-95250000D01*
X52070000Y-95250000D02*
X6350000Y-95250000D01*
X6350000Y-95250000D02*
X6350000Y-72390000D01*
D12*
%TO.C,A102*%
X32890000Y-136020000D02*
X34290000Y-136020000D01*
X35560000Y-136020000D02*
X53470000Y-136020000D01*
X53470000Y-136020000D02*
X53470000Y-120520000D01*
X32890000Y-134620000D02*
X32890000Y-136020000D01*
X32890000Y-133350000D02*
X35560000Y-133350000D01*
X35560000Y-133350000D02*
X35560000Y-136020000D01*
X35560000Y-133350000D02*
X53470000Y-133350000D01*
X32890000Y-123190000D02*
X53470000Y-123190000D01*
X32890000Y-120520000D02*
X32890000Y-133350000D01*
X53470000Y-120520000D02*
X32890000Y-120520000D01*
%TO.C,A103*%
X53210000Y-136020000D02*
X54610000Y-136020000D01*
X55880000Y-136020000D02*
X73790000Y-136020000D01*
X73790000Y-136020000D02*
X73790000Y-120520000D01*
X53210000Y-134620000D02*
X53210000Y-136020000D01*
X53210000Y-133350000D02*
X55880000Y-133350000D01*
X55880000Y-133350000D02*
X55880000Y-136020000D01*
X55880000Y-133350000D02*
X73790000Y-133350000D01*
X53210000Y-123190000D02*
X73790000Y-123190000D01*
X53210000Y-120520000D02*
X53210000Y-133350000D01*
X73790000Y-120520000D02*
X53210000Y-120520000D01*
%TO.C,J106*%
X6290000Y-63440000D02*
X6290000Y-63560000D01*
X6290000Y-63560000D02*
X8950000Y-63560000D01*
X7620000Y-60900000D02*
X8950000Y-60900000D01*
X8950000Y-60900000D02*
X8950000Y-62230000D01*
X8950000Y-63440000D02*
X8950000Y-63560000D01*
%TO.C,D101*%
X6370000Y-14245000D02*
X6370000Y-11155000D01*
X820001Y-12699538D02*
G75*
G03*
X6369999Y-14244830I2989999J-462D01*
G01*
X6370000Y-11155170D02*
G75*
G03*
X820000Y-12700462I-2560000J-1544830D01*
G01*
X6310000Y-12700000D02*
G75*
G03*
X1310000Y-12700000I-2500000J0D01*
G01*
X1310000Y-12700000D02*
G75*
G03*
X6310000Y-12700000I2500000J0D01*
G01*
D11*
%TO.C,U102*%
X57150000Y-111760000D02*
X72390000Y-111760000D01*
X72390000Y-111760000D02*
X72390000Y-76200000D01*
X72390000Y-76200000D02*
X57150000Y-76200000D01*
X57150000Y-76200000D02*
X57150000Y-111760000D01*
D12*
%TO.C,J115*%
X60960000Y-138500000D02*
X68640000Y-138500000D01*
X60960000Y-138500000D02*
X60960000Y-135840000D01*
X68640000Y-138500000D02*
X68640000Y-135840000D01*
X58360000Y-137170000D02*
X58360000Y-135840000D01*
X58360000Y-135840000D02*
X59690000Y-135840000D01*
X60960000Y-135840000D02*
X68640000Y-135840000D01*
%TO.C,R101*%
X1170000Y-23590000D02*
X1170000Y-17050000D01*
X1500000Y-23590000D02*
X1170000Y-23590000D01*
X3580000Y-23590000D02*
X3910000Y-23590000D01*
X3910000Y-23590000D02*
X3910000Y-17050000D01*
X1170000Y-17050000D02*
X1500000Y-17050000D01*
X3910000Y-17050000D02*
X3580000Y-17050000D01*
%TO.C,A101*%
X12570000Y-136020000D02*
X13970000Y-136020000D01*
X15240000Y-136020000D02*
X33150000Y-136020000D01*
X33150000Y-136020000D02*
X33150000Y-120520000D01*
X12570000Y-134620000D02*
X12570000Y-136020000D01*
X12570000Y-133350000D02*
X15240000Y-133350000D01*
X15240000Y-133350000D02*
X15240000Y-136020000D01*
X15240000Y-133350000D02*
X33150000Y-133350000D01*
X12570000Y-123190000D02*
X33150000Y-123190000D01*
X12570000Y-120520000D02*
X12570000Y-133350000D01*
X33150000Y-120520000D02*
X12570000Y-120520000D01*
D11*
%TO.C,U106*%
X6350000Y-93980000D02*
X52070000Y-93980000D01*
X52070000Y-93980000D02*
X52070000Y-116840000D01*
X52070000Y-116840000D02*
X6350000Y-116840000D01*
X6350000Y-116840000D02*
X6350000Y-93980000D01*
D12*
%TO.C,J119*%
X81280000Y-138500000D02*
X88960000Y-138500000D01*
X81280000Y-138500000D02*
X81280000Y-135840000D01*
X88960000Y-138500000D02*
X88960000Y-135840000D01*
X78680000Y-137170000D02*
X78680000Y-135840000D01*
X78680000Y-135840000D02*
X80010000Y-135840000D01*
X81280000Y-135840000D02*
X88960000Y-135840000D01*
%TO.C,J101*%
X6290000Y-65980000D02*
X6290000Y-66100000D01*
X6290000Y-66100000D02*
X8950000Y-66100000D01*
X7620000Y-63440000D02*
X8950000Y-63440000D01*
X8950000Y-63440000D02*
X8950000Y-64770000D01*
X8950000Y-65980000D02*
X8950000Y-66100000D01*
D11*
%TO.C,U107*%
X10160000Y-71120000D02*
X88900000Y-71120000D01*
X88900000Y-71120000D02*
X88900000Y-2540000D01*
X88900000Y-2540000D02*
X10160000Y-2540000D01*
X10160000Y-2540000D02*
X10160000Y-71120000D01*
%TO.C,U103*%
X77470000Y-111760000D02*
X92710000Y-111760000D01*
X92710000Y-111760000D02*
X92710000Y-76200000D01*
X92710000Y-76200000D02*
X77470000Y-76200000D01*
X77470000Y-76200000D02*
X77470000Y-111760000D01*
D12*
%TO.C,J104*%
X20330000Y-138475000D02*
X28010000Y-138475000D01*
X20330000Y-138475000D02*
X20330000Y-135815000D01*
X28010000Y-138475000D02*
X28010000Y-135815000D01*
X17730000Y-137145000D02*
X17730000Y-135815000D01*
X17730000Y-135815000D02*
X19060000Y-135815000D01*
X20330000Y-135815000D02*
X28010000Y-135815000D01*
%TO.C,J130*%
X2480000Y-115510000D02*
X2480000Y-115630000D01*
X2480000Y-115630000D02*
X5140000Y-115630000D01*
X3810000Y-112970000D02*
X5140000Y-112970000D01*
X5140000Y-112970000D02*
X5140000Y-114300000D01*
X5140000Y-115510000D02*
X5140000Y-115630000D01*
%TO.C,J107*%
X3750000Y-27940000D02*
X3750000Y-55940000D01*
X3750000Y-27940000D02*
X6410000Y-27940000D01*
X3750000Y-55940000D02*
X6410000Y-55940000D01*
X5080000Y-25340000D02*
X6410000Y-25340000D01*
X6410000Y-25340000D02*
X6410000Y-26670000D01*
X6410000Y-27940000D02*
X6410000Y-55940000D01*
D11*
%TO.C,U108*%
X99060000Y-46990000D02*
X101600000Y-44450000D01*
X101600000Y-44450000D02*
X101600000Y-34290000D01*
X101600000Y-34290000D02*
X99060000Y-31750000D01*
X91440000Y-46990000D02*
X99060000Y-46990000D01*
X99060000Y-46990000D02*
X99060000Y-31750000D01*
X99060000Y-31750000D02*
X91440000Y-31750000D01*
X91440000Y-31750000D02*
X91440000Y-46990000D01*
D12*
%TO.C,J111*%
X40640000Y-138500000D02*
X48320000Y-138500000D01*
X40640000Y-138500000D02*
X40640000Y-135840000D01*
X48320000Y-138500000D02*
X48320000Y-135840000D01*
X38040000Y-137170000D02*
X38040000Y-135840000D01*
X38040000Y-135840000D02*
X39370000Y-135840000D01*
X40640000Y-135840000D02*
X48320000Y-135840000D01*
%TO.C,A104*%
X73530000Y-136020000D02*
X74930000Y-136020000D01*
X76200000Y-136020000D02*
X94110000Y-136020000D01*
X94110000Y-136020000D02*
X94110000Y-120520000D01*
X73530000Y-134620000D02*
X73530000Y-136020000D01*
X73530000Y-133350000D02*
X76200000Y-133350000D01*
X76200000Y-133350000D02*
X76200000Y-136020000D01*
X76200000Y-133350000D02*
X94110000Y-133350000D01*
X73530000Y-123190000D02*
X94110000Y-123190000D01*
X73530000Y-120520000D02*
X73530000Y-133350000D01*
X94110000Y-120520000D02*
X73530000Y-120520000D01*
%TO.C,J103*%
X2480000Y-93920000D02*
X2480000Y-94040000D01*
X2480000Y-94040000D02*
X5140000Y-94040000D01*
X3810000Y-91380000D02*
X5140000Y-91380000D01*
X5140000Y-91380000D02*
X5140000Y-92710000D01*
X5140000Y-93920000D02*
X5140000Y-94040000D01*
%TO.C,J105*%
X1210000Y-27940000D02*
X1210000Y-55940000D01*
X1210000Y-27940000D02*
X3870000Y-27940000D01*
X1210000Y-55940000D02*
X3870000Y-55940000D01*
X2540000Y-25340000D02*
X3870000Y-25340000D01*
X3870000Y-25340000D02*
X3870000Y-26670000D01*
X3870000Y-27940000D02*
X3870000Y-55940000D01*
%TO.C,J120*%
X52010000Y-76140000D02*
X52010000Y-76260000D01*
X52010000Y-76260000D02*
X54670000Y-76260000D01*
X53340000Y-73600000D02*
X54670000Y-73600000D01*
X54670000Y-73600000D02*
X54670000Y-74930000D01*
X54670000Y-76140000D02*
X54670000Y-76260000D01*
%TO.C,J102*%
X2480000Y-76140000D02*
X2480000Y-76260000D01*
X2480000Y-76260000D02*
X5140000Y-76260000D01*
X3810000Y-73600000D02*
X5140000Y-73600000D01*
X5140000Y-73600000D02*
X5140000Y-74930000D01*
X5140000Y-76140000D02*
X5140000Y-76260000D01*
%TD*%
M02*
