M48
; DRILL file {KiCad 7.0.10} date Wed Apr 10 19:25:25 2024
; FORMAT={-:-/ absolute / inch / decimal}
; #@! TF.CreationDate,2024-04-10T19:25:25-04:00
; #@! TF.GenerationSoftware,Kicad,Pcbnew,7.0.10
; #@! TF.FileFunction,Plated,1,2,PTH
FMAT,2
INCH
; #@! TA.AperFunction,Plated,PTH,ComponentDrill
T1C0.0315
; #@! TA.AperFunction,Plated,PTH,ComponentDrill
T2C0.0354
; #@! TA.AperFunction,Plated,PTH,ComponentDrill
T3C0.0394
%
G90
G05
T1
X0.3Y-1.5
X0.3Y-1.8
X0.65Y-1.8
X0.65Y-2.3
X0.75Y-1.8
X0.75Y-2.3
X0.85Y-1.8
X0.85Y-2.3
X0.95Y-1.8
X0.95Y-2.3
X1.05Y-1.8
X1.05Y-2.3
X1.15Y-1.8
X1.15Y-2.3
X1.25Y-1.8
X1.25Y-2.3
X1.35Y-1.8
X1.35Y-2.3
X1.45Y-1.8
X1.45Y-2.3
X1.55Y-1.8
X1.55Y-2.3
X1.65Y-1.8
X1.65Y-2.3
X1.75Y-1.8
X1.75Y-2.3
X1.85Y-1.8
X1.85Y-2.3
X1.95Y-1.8
X1.95Y-2.3
X2.05Y-1.8
X2.05Y-2.3
X2.15Y-1.8
X2.15Y-2.3
X2.25Y-1.8
X2.25Y-2.3
X2.35Y-1.8
X2.35Y-2.3
X2.45Y-1.8
X2.45Y-2.3
X2.55Y-1.8
X2.55Y-2.3
X2.65Y-1.8
X2.65Y-2.3
X2.75Y-1.8
X2.75Y-2.3
X2.85Y-1.8
X2.85Y-2.3
X2.95Y-1.8
X2.95Y-2.3
X3.05Y-1.8
X3.05Y-2.3
X3.15Y-1.8
X3.15Y-2.3
X3.25Y-1.8
X3.25Y-2.3
X3.35Y-1.8
X3.35Y-2.3
X3.45Y-1.8
X3.45Y-2.3
X3.55Y-1.8
X3.55Y-2.3
X3.65Y-1.8
X3.65Y-2.3
X3.75Y-1.8
X3.75Y-2.3
T2
X0.3Y-1.9
X0.3Y-2.0
T3
X0.2Y-0.3
X0.2Y-0.4
X0.2Y-0.5
X0.3Y-0.3
X0.3Y-0.4
X0.3Y-0.5
X0.3Y-0.6
X0.3Y-0.7
X0.3Y-0.8
X0.3Y-0.9
X0.3Y-1.0
X0.3Y-1.1
X0.3Y-1.2
X0.3Y-1.3
X0.3Y-1.4
X0.4Y-0.3
X0.4Y-0.4
X0.4Y-0.5
X0.4Y-0.6
X0.5Y-0.3
X0.5Y-0.4
X0.5Y-0.5
X0.5Y-0.6
X0.5Y-0.7
X0.5Y-0.8
X0.5Y-0.9
X0.5Y-1.0
X0.5Y-1.1
X0.5Y-1.2
X0.5Y-1.3
X0.5Y-1.4
X0.65Y-1.7
X0.75Y-1.7
X0.85Y-2.5
X0.95Y-2.5
X1.05Y-2.5
X1.15Y-2.5
X1.4Y-0.5
X1.4Y-1.2
X1.45Y-1.7
X1.55Y-1.7
X1.65Y-2.5
X1.75Y-2.5
X1.85Y-2.5
X1.95Y-2.5
X2.25Y-1.7
X2.35Y-1.7
X2.45Y-2.5
X2.55Y-2.5
X2.65Y-2.5
X2.75Y-2.5
X3.0Y-0.5
X3.0Y-1.2
X3.05Y-1.7
X3.15Y-1.7
X3.25Y-2.499
X3.35Y-2.499
X3.45Y-0.5
X3.45Y-2.499
X3.55Y-2.499
X3.75Y-1.7
M30
