M48
; DRILL file {KiCad 7.0.10} date Fri Apr 12 16:15:57 2024
; FORMAT={-:-/ absolute / inch / decimal}
; #@! TF.CreationDate,2024-04-12T16:15:57-04:00
; #@! TF.GenerationSoftware,Kicad,Pcbnew,7.0.10
; #@! TF.FileFunction,Plated,1,2,PTH
FMAT,2
INCH
; #@! TA.AperFunction,Plated,PTH,ViaDrill
T1C0.0315
; #@! TA.AperFunction,Plated,PTH,ComponentDrill
T2C0.0315
; #@! TA.AperFunction,Plated,PTH,ComponentDrill
T3C0.0354
; #@! TA.AperFunction,Plated,PTH,ComponentDrill
T4C0.0394
%
G90
G05
T1
X0.6Y-2.05
X0.6Y-2.25
X0.85Y-2.15
X0.85Y-2.35
X1.65Y-2.15
X1.65Y-2.35
X2.45Y-2.15
X2.45Y-2.35
X3.25Y-2.15
X3.25Y-2.35
T2
X0.5Y-1.65
X0.5Y-1.95
X0.85Y-1.95
X0.85Y-2.45
X0.95Y-1.95
X0.95Y-2.45
X1.05Y-1.95
X1.05Y-2.45
X1.15Y-1.95
X1.15Y-2.45
X1.25Y-1.95
X1.25Y-2.45
X1.35Y-1.95
X1.35Y-2.45
X1.45Y-1.95
X1.45Y-2.45
X1.55Y-1.95
X1.55Y-2.45
X1.65Y-1.95
X1.65Y-2.45
X1.75Y-1.95
X1.75Y-2.45
X1.85Y-1.95
X1.85Y-2.45
X1.95Y-1.95
X1.95Y-2.45
X2.05Y-1.95
X2.05Y-2.45
X2.15Y-1.95
X2.15Y-2.45
X2.25Y-1.95
X2.25Y-2.45
X2.35Y-1.95
X2.35Y-2.45
X2.45Y-1.95
X2.45Y-2.45
X2.55Y-1.95
X2.55Y-2.45
X2.65Y-1.95
X2.65Y-2.45
X2.75Y-1.95
X2.75Y-2.45
X2.85Y-1.95
X2.85Y-2.45
X2.95Y-1.95
X2.95Y-2.45
X3.05Y-1.95
X3.05Y-2.45
X3.15Y-1.95
X3.15Y-2.45
X3.25Y-1.9496
X3.25Y-2.4496
X3.35Y-1.9496
X3.35Y-2.4496
X3.45Y-1.9496
X3.45Y-2.4496
X3.55Y-1.9496
X3.55Y-2.4496
X3.65Y-1.9496
X3.65Y-2.4496
X3.75Y-1.9496
X3.75Y-2.4496
X3.85Y-1.9496
X3.85Y-2.4496
X3.95Y-1.9496
X3.95Y-2.4496
T3
X0.5Y-2.05
X0.5Y-2.15
T4
X0.4Y-0.45
X0.4Y-0.55
X0.4Y-0.65
X0.5Y-0.45
X0.5Y-0.55
X0.5Y-0.65
X0.5Y-0.75
X0.5Y-0.85
X0.5Y-0.95
X0.5Y-1.05
X0.5Y-1.15
X0.5Y-1.25
X0.5Y-1.35
X0.5Y-1.45
X0.5Y-1.55
X0.6Y-0.45
X0.6Y-0.55
X0.6Y-0.65
X0.6Y-0.75
X0.7Y-0.45
X0.7Y-0.55
X0.7Y-0.65
X0.7Y-0.75
X0.7Y-0.85
X0.7Y-0.95
X0.7Y-1.05
X0.7Y-1.15
X0.7Y-1.25
X0.7Y-1.35
X0.7Y-1.45
X0.7Y-1.55
X0.85Y-1.85
X0.95Y-1.85
X1.05Y-2.65
X1.15Y-2.65
X1.25Y-2.65
X1.35Y-2.65
X1.6Y-0.65
X1.6Y-1.35
X1.65Y-1.85
X1.75Y-1.85
X1.85Y-2.65
X1.95Y-2.65
X2.05Y-2.65
X2.15Y-2.65
X2.45Y-1.85
X2.55Y-1.85
X2.65Y-2.65
X2.75Y-2.65
X2.85Y-2.65
X2.95Y-2.65
X3.2Y-0.65
X3.2Y-1.35
X3.25Y-1.85
X3.35Y-1.85
X3.45Y-2.649
X3.55Y-2.649
X3.65Y-0.65
X3.65Y-2.649
X3.75Y-2.649
X3.95Y-1.85
M30
