%TF.GenerationSoftware,KiCad,Pcbnew,7.0.10*%
%TF.CreationDate,2024-04-12T16:17:09-04:00*%
%TF.ProjectId,ping_pong,70696e67-5f70-46f6-9e67-2e6b69636164,rev?*%
%TF.SameCoordinates,Original*%
%TF.FileFunction,Soldermask,Bot*%
%TF.FilePolarity,Negative*%
%FSLAX46Y46*%
G04 Gerber Fmt 4.6, Leading zero omitted, Abs format (unit mm)*
G04 Created by KiCad (PCBNEW 7.0.10) date 2024-04-12 16:17:09*
%MOMM*%
%LPD*%
G01*
G04 APERTURE LIST*
%ADD10R,1.700000X1.700000*%
%ADD11R,1.600000X1.600000*%
%ADD12O,1.600000X1.600000*%
%ADD13O,1.700000X1.700000*%
%ADD14C,3.200000*%
%ADD15C,1.600000*%
%ADD16C,1.700000*%
%ADD17R,1.800000X1.800000*%
%ADD18C,1.800000*%
G04 APERTURE END LIST*
D10*
%TO.C,J142*%
X15240000Y-13970000D03*
%TD*%
%TO.C,J128*%
X17780000Y-39370000D03*
%TD*%
%TO.C,J113*%
X64770000Y-46990000D03*
%TD*%
D11*
%TO.C,A102*%
X41910000Y-62230000D03*
D12*
X44450000Y-62230000D03*
X46990000Y-62230000D03*
X49530000Y-62230000D03*
X52070000Y-62230000D03*
X54610000Y-62230000D03*
X57150000Y-62230000D03*
X59690000Y-62230000D03*
X59690000Y-49530000D03*
X57150000Y-49530000D03*
X54610000Y-49530000D03*
X52070000Y-49530000D03*
X49530000Y-49530000D03*
X46990000Y-49530000D03*
X44450000Y-49530000D03*
X41910000Y-49530000D03*
%TD*%
D10*
%TO.C,J130*%
X17780000Y-19050000D03*
%TD*%
D11*
%TO.C,A103*%
X62230000Y-62230000D03*
D12*
X64770000Y-62230000D03*
X67310000Y-62230000D03*
X69850000Y-62230000D03*
X72390000Y-62230000D03*
X74930000Y-62230000D03*
X77470000Y-62230000D03*
X80010000Y-62230000D03*
X80010000Y-49530000D03*
X77470000Y-49530000D03*
X74930000Y-49530000D03*
X72390000Y-49530000D03*
X69850000Y-49530000D03*
X67310000Y-49530000D03*
X64770000Y-49530000D03*
X62230000Y-49530000D03*
%TD*%
D10*
%TO.C,J126*%
X17780000Y-21590000D03*
%TD*%
%TO.C,J134*%
X17780000Y-29210000D03*
%TD*%
%TO.C,J144*%
X15240000Y-16510000D03*
%TD*%
%TO.C,J117*%
X85090000Y-46990000D03*
%TD*%
%TO.C,J118*%
X82550000Y-46990000D03*
%TD*%
%TO.C,J114*%
X62230000Y-46990000D03*
%TD*%
%TO.C,J125*%
X17780000Y-13970000D03*
%TD*%
%TO.C,J108*%
X10160000Y-13970000D03*
%TD*%
%TO.C,J131*%
X15240000Y-11430000D03*
%TD*%
%TO.C,J104*%
X26670000Y-67310000D03*
D13*
X29210000Y-67310000D03*
X31750000Y-67310000D03*
X34290000Y-67310000D03*
%TD*%
D10*
%TO.C,J135*%
X17780000Y-31750000D03*
%TD*%
%TO.C,J140*%
X12700000Y-36830000D03*
%TD*%
%TO.C,J122*%
X12700000Y-16510000D03*
%TD*%
%TO.C,J138*%
X12700000Y-26670000D03*
%TD*%
D11*
%TO.C,A104*%
X82550000Y-62220000D03*
D12*
X85090000Y-62220000D03*
X87630000Y-62220000D03*
X90170000Y-62220000D03*
X92710000Y-62220000D03*
X95250000Y-62220000D03*
X97790000Y-62220000D03*
X100330000Y-62220000D03*
X100330000Y-49520000D03*
X97790000Y-49520000D03*
X95250000Y-49520000D03*
X92710000Y-49520000D03*
X90170000Y-49520000D03*
X87630000Y-49520000D03*
X85090000Y-49520000D03*
X82550000Y-49520000D03*
%TD*%
D10*
%TO.C,J106*%
X24130000Y-46990000D03*
%TD*%
%TO.C,J129*%
X12700000Y-24130000D03*
%TD*%
%TO.C,J115*%
X67310000Y-67310000D03*
D13*
X69850000Y-67310000D03*
X72390000Y-67310000D03*
X74930000Y-67310000D03*
%TD*%
D11*
%TO.C,A101*%
X21590000Y-62230000D03*
D12*
X24130000Y-62230000D03*
X26670000Y-62230000D03*
X29210000Y-62230000D03*
X31750000Y-62230000D03*
X34290000Y-62230000D03*
X36830000Y-62230000D03*
X39370000Y-62230000D03*
X39370000Y-49530000D03*
X36830000Y-49530000D03*
X34290000Y-49530000D03*
X31750000Y-49530000D03*
X29210000Y-49530000D03*
X26670000Y-49530000D03*
X24130000Y-49530000D03*
X21590000Y-49530000D03*
%TD*%
D14*
%TO.C,H104*%
X105000000Y-75000000D03*
%TD*%
D10*
%TO.C,J121*%
X12700000Y-13970000D03*
%TD*%
%TO.C,J127*%
X17780000Y-26670000D03*
%TD*%
D14*
%TO.C,H101*%
X5000000Y-5000000D03*
%TD*%
D10*
%TO.C,J120*%
X92710000Y-16510000D03*
%TD*%
D14*
%TO.C,H102*%
X105000000Y-5000000D03*
%TD*%
D10*
%TO.C,J133*%
X17780000Y-24130000D03*
%TD*%
%TO.C,J132*%
X17780000Y-16510000D03*
%TD*%
%TO.C,J123*%
X12700000Y-19050000D03*
%TD*%
%TO.C,J107*%
X21590000Y-46990000D03*
%TD*%
%TO.C,J119*%
X87630000Y-67285000D03*
D13*
X90170000Y-67285000D03*
X92710000Y-67285000D03*
X95250000Y-67285000D03*
%TD*%
D15*
%TO.C,R101*%
X12700000Y-41910000D03*
D12*
X12700000Y-49530000D03*
%TD*%
D10*
%TO.C,J105*%
X100330000Y-46990000D03*
%TD*%
D16*
%TO.C,U101*%
X40640000Y-16510000D03*
X40640000Y-34290000D03*
X81280000Y-16510000D03*
X81280000Y-34290000D03*
%TD*%
D10*
%TO.C,J112*%
X10160000Y-11430000D03*
%TD*%
%TO.C,J101*%
X12700000Y-11430000D03*
%TD*%
%TO.C,J147*%
X17780000Y-34290000D03*
%TD*%
%TO.C,J111*%
X46990000Y-67310000D03*
D13*
X49530000Y-67310000D03*
X52070000Y-67310000D03*
X54610000Y-67310000D03*
%TD*%
D10*
%TO.C,J103*%
X17780000Y-11430000D03*
%TD*%
%TO.C,J143*%
X15240000Y-19050000D03*
%TD*%
%TO.C,J102*%
X10160000Y-16510000D03*
%TD*%
%TO.C,J109*%
X44450000Y-46990000D03*
%TD*%
%TO.C,J148*%
X17780000Y-36830000D03*
%TD*%
%TO.C,J145*%
X12700000Y-29210000D03*
%TD*%
D14*
%TO.C,H103*%
X5000000Y-75000000D03*
%TD*%
D17*
%TO.C,D101*%
X12700000Y-54610000D03*
D18*
X12700000Y-52070000D03*
%TD*%
D10*
%TO.C,J110*%
X41910000Y-46990000D03*
%TD*%
%TO.C,J146*%
X12700000Y-31750000D03*
%TD*%
%TO.C,J139*%
X12700000Y-34290000D03*
%TD*%
%TO.C,J124*%
X12700000Y-21590000D03*
%TD*%
%TO.C,J141*%
X12700000Y-39370000D03*
%TD*%
M02*
